<svg xmlns="http://www.w3.org/2000/svg" xmlns:xlink="http://www.w3.org/1999/xlink" width="600" height="400" viewBox="0 0 2400 1600">
<defs>
  <clipPath id="clip390">
    <rect x="0" y="0" width="2400" height="1600"></rect>
  </clipPath>
</defs>
<path clip-path="url(#clip390)" d="M0 1600 L2400 1600 L2400 8.88178e-14 L0 8.88178e-14  Z" fill="#ffffff" fill-rule="evenodd" fill-opacity="1"></path>
<defs>
  <clipPath id="clip391">
    <rect x="480" y="0" width="1681" height="1600"></rect>
  </clipPath>
</defs>
<path clip-path="url(#clip390)" d="M138.959 1486.45 L2352.76 1486.45 L2352.76 47.2441 L138.959 47.2441  Z" fill="#ffffff" fill-rule="evenodd" fill-opacity="1"></path>
<defs>
  <clipPath id="clip392">
    <rect x="138" y="47" width="2215" height="1440"></rect>
  </clipPath>
</defs>
<defs>
  <clipPath id="clip393">
    <rect x="581" y="157" width="1330" height="1330"></rect>
  </clipPath>
</defs>
<polyline clip-path="url(#clip393)" style="stroke:#000000; stroke-linecap:round; stroke-linejoin:round; stroke-width:2; stroke-opacity:0.1; fill:none" points="1910.11,822.191 1245.86,822.191 "></polyline>
<polyline clip-path="url(#clip393)" style="stroke:#000000; stroke-linecap:round; stroke-linejoin:round; stroke-width:2; stroke-opacity:0.1; fill:none" points="1715.56,1291.89 1245.86,822.191 "></polyline>
<polyline clip-path="url(#clip393)" style="stroke:#000000; stroke-linecap:round; stroke-linejoin:round; stroke-width:2; stroke-opacity:0.1; fill:none" points="1245.86,1486.45 1245.86,822.191 "></polyline>
<polyline clip-path="url(#clip393)" style="stroke:#000000; stroke-linecap:round; stroke-linejoin:round; stroke-width:2; stroke-opacity:0.1; fill:none" points="776.157,1291.89 1245.86,822.191 "></polyline>
<polyline clip-path="url(#clip393)" style="stroke:#000000; stroke-linecap:round; stroke-linejoin:round; stroke-width:2; stroke-opacity:0.1; fill:none" points="581.601,822.191 1245.86,822.191 "></polyline>
<polyline clip-path="url(#clip393)" style="stroke:#000000; stroke-linecap:round; stroke-linejoin:round; stroke-width:2; stroke-opacity:0.1; fill:none" points="776.157,352.49 1245.86,822.191 "></polyline>
<polyline clip-path="url(#clip393)" style="stroke:#000000; stroke-linecap:round; stroke-linejoin:round; stroke-width:2; stroke-opacity:0.1; fill:none" points="1245.86,157.934 1245.86,822.191 "></polyline>
<polyline clip-path="url(#clip393)" style="stroke:#000000; stroke-linecap:round; stroke-linejoin:round; stroke-width:2; stroke-opacity:0.1; fill:none" points="1715.56,352.49 1245.86,822.191 "></polyline>
<polyline clip-path="url(#clip393)" style="stroke:#000000; stroke-linecap:round; stroke-linejoin:round; stroke-width:2; stroke-opacity:0.1; fill:none" points="1245.86,822.191 1245.86,822.191 "></polyline>
<polyline clip-path="url(#clip393)" style="stroke:#000000; stroke-linecap:round; stroke-linejoin:round; stroke-width:2; stroke-opacity:0.1; fill:none" points="1467.28,822.191 1467.24,818.327 1467.14,814.463 1466.97,810.603 1466.74,806.745 1466.43,802.893 1466.06,799.046 1465.63,795.207 1465.12,791.375 1464.55,787.553 1463.91,783.742 1463.21,779.942 1462.44,776.155 1461.6,772.382 1460.7,768.625 1459.73,764.883 1458.7,761.16 1457.6,757.454 1456.44,753.769 1455.21,750.104 1453.92,746.461 1452.57,742.841 1451.15,739.246 1449.67,735.676 1448.13,732.132 1446.53,728.615 1444.87,725.127 1443.14,721.669 1441.36,718.241 1439.52,714.845 1437.61,711.481 1435.65,708.152 1433.63,704.857 1431.56,701.597 1429.42,698.375 1427.23,695.19 1424.99,692.044 1422.69,688.938 1420.34,685.872 1417.93,682.847 1415.47,679.866 1412.96,676.927 1410.4,674.033 1407.79,671.184 1405.13,668.38 1402.42,665.624 1399.67,662.915 1396.87,660.255 1394.02,657.645 1391.12,655.084 1388.18,652.574 1385.2,650.116 1382.18,647.71 1379.11,645.358 1376,643.059 1372.86,640.815 1369.67,638.626 1366.45,636.493 1363.19,634.417 1359.9,632.398 1356.57,630.436 1353.2,628.533 1349.81,626.69 1346.38,624.905 1342.92,623.181 1339.43,621.517 1335.92,619.915 1332.37,618.374 1328.8,616.895 1325.21,615.478 1321.59,614.125 1317.94,612.835 1314.28,611.609 1310.59,610.447 1306.89,609.349 1303.17,608.317 1299.42,607.349 1295.67,606.447 1291.89,605.61 1288.11,604.84 1284.31,604.136 1280.5,603.498 1276.67,602.927 1272.84,602.422 1269,601.985 1265.16,601.614 1261.3,601.311 1257.45,601.075 1253.59,600.907 1249.72,600.806 1245.86,600.772 1241.99,600.806 1238.13,600.907 1234.27,601.075 1230.41,601.311 1226.56,601.614 1222.71,601.985 1218.87,602.422 1215.04,602.927 1211.22,603.498 1207.41,604.136 1203.61,604.84 1199.82,605.61 1196.05,606.447 1192.29,607.349 1188.55,608.317 1184.83,609.349 1181.12,610.447 1177.44,611.609 1173.77,612.835 1170.13,614.125 1166.51,615.478 1162.91,616.895 1159.34,618.374 1155.8,619.915 1152.28,621.517 1148.79,623.181 1145.34,624.905 1141.91,626.69 1138.51,628.533 1135.15,630.436 1131.82,632.398 1128.52,634.417 1125.26,636.493 1122.04,638.626 1118.86,640.815 1115.71,643.059 1112.6,645.358 1109.54,647.71 1106.51,650.116 1103.53,652.574 1100.59,655.084 1097.7,657.645 1094.85,660.255 1092.05,662.915 1089.29,665.624 1086.58,668.38 1083.92,671.184 1081.31,674.033 1078.75,676.927 1076.24,679.866 1073.78,682.847 1071.38,685.872 1069.02,688.938 1066.73,692.044 1064.48,695.19 1062.29,698.375 1060.16,701.597 1058.08,704.857 1056.06,708.152 1054.1,711.481 1052.2,714.845 1050.36,718.241 1048.57,721.669 1046.85,725.127 1045.18,728.615 1043.58,732.132 1042.04,735.676 1040.56,739.246 1039.15,742.841 1037.79,746.461 1036.5,750.104 1035.28,753.769 1034.11,757.454 1033.02,761.16 1031.98,764.883 1031.02,768.625 1030.11,772.382 1029.28,776.155 1028.51,779.942 1027.8,783.742 1027.16,787.553 1026.59,791.375 1026.09,795.207 1025.65,799.046 1025.28,802.893 1024.98,806.745 1024.74,810.603 1024.57,814.463 1024.47,818.327 1024.44,822.191 1024.47,826.055 1024.57,829.918 1024.74,833.779 1024.98,837.636 1025.28,841.489 1025.65,845.335 1026.09,849.175 1026.59,853.006 1027.16,856.828 1027.8,860.64 1028.51,864.44 1029.28,868.226 1030.11,871.999 1031.02,875.757 1031.98,879.498 1033.02,883.222 1034.11,886.928 1035.28,890.613 1036.5,894.278 1037.79,897.921 1039.15,901.54 1040.56,905.136 1042.04,908.706 1043.58,912.25 1045.18,915.767 1046.85,919.255 1048.57,922.713 1050.36,926.141 1052.2,929.537 1054.1,932.9 1056.06,936.23 1058.08,939.525 1060.16,942.784 1062.29,946.007 1064.48,949.192 1066.73,952.338 1069.02,955.444 1071.38,958.51 1073.78,961.534 1076.24,964.516 1078.75,967.455 1081.31,970.349 1083.92,973.198 1086.58,976.001 1089.29,978.758 1092.05,981.466 1094.85,984.126 1097.7,986.737 1100.59,989.298 1103.53,991.808 1106.51,994.266 1109.54,996.671 1112.6,999.024 1115.71,1001.32 1118.86,1003.57 1122.04,1005.76 1125.26,1007.89 1128.52,1009.96 1131.82,1011.98 1135.15,1013.95 1138.51,1015.85 1141.91,1017.69 1145.34,1019.48 1148.79,1021.2 1152.28,1022.86 1155.8,1024.47 1159.34,1026.01 1162.91,1027.49 1166.51,1028.9 1170.13,1030.26 1173.77,1031.55 1177.44,1032.77 1181.12,1033.93 1184.83,1035.03 1188.55,1036.07 1192.29,1037.03 1196.05,1037.93 1199.82,1038.77 1203.61,1039.54 1207.41,1040.25 1211.22,1040.88 1215.04,1041.46 1218.87,1041.96 1222.71,1042.4 1226.56,1042.77 1230.41,1043.07 1234.27,1043.31 1238.13,1043.48 1241.99,1043.58 1245.86,1043.61 1249.72,1043.58 1253.59,1043.48 1257.45,1043.31 1261.3,1043.07 1265.16,1042.77 1269,1042.4 1272.84,1041.96 1276.67,1041.46 1280.5,1040.88 1284.31,1040.25 1288.11,1039.54 1291.89,1038.77 1295.67,1037.93 1299.42,1037.03 1303.17,1036.07 1306.89,1035.03 1310.59,1033.93 1314.28,1032.77 1317.94,1031.55 1321.59,1030.26 1325.21,1028.9 1328.8,1027.49 1332.37,1026.01 1335.92,1024.47 1339.43,1022.86 1342.92,1021.2 1346.38,1019.48 1349.81,1017.69 1353.2,1015.85 1356.57,1013.95 1359.9,1011.98 1363.19,1009.96 1366.45,1007.89 1369.67,1005.76 1372.86,1003.57 1376,1001.32 1379.11,999.024 1382.18,996.671 1385.2,994.266 1388.18,991.808 1391.12,989.298 1394.02,986.737 1396.87,984.126 1399.67,981.466 1402.42,978.758 1405.13,976.001 1407.79,973.198 1410.4,970.349 1412.96,967.455 1415.47,964.516 1417.93,961.534 1420.34,958.51 1422.69,955.444 1424.99,952.338 1427.23,949.192 1429.42,946.007 1431.56,942.784 1433.63,939.525 1435.65,936.23 1437.61,932.9 1439.52,929.537 1441.36,926.141 1443.14,922.713 1444.87,919.255 1446.53,915.767 1448.13,912.25 1449.67,908.706 1451.15,905.136 1452.57,901.54 1453.92,897.921 1455.21,894.278 1456.44,890.613 1457.6,886.928 1458.7,883.222 1459.73,879.498 1460.7,875.757 1461.6,871.999 1462.44,868.226 1463.21,864.44 1463.91,860.64 1464.55,856.828 1465.12,853.006 1465.63,849.175 1466.06,845.335 1466.43,841.489 1466.74,837.636 1466.97,833.779 1467.14,829.918 1467.24,826.055 "></polyline>
<polyline clip-path="url(#clip393)" style="stroke:#000000; stroke-linecap:round; stroke-linejoin:round; stroke-width:2; stroke-opacity:0.1; fill:none" points="1688.7,822.191 1688.63,814.462 1688.43,806.736 1688.09,799.015 1687.62,791.3 1687.01,783.595 1686.27,775.902 1685.39,768.223 1684.39,760.56 1683.24,752.916 1681.97,745.293 1680.56,737.693 1679.02,730.12 1677.35,722.574 1675.54,715.059 1673.61,707.576 1671.54,700.128 1669.35,692.718 1667.02,685.346 1664.57,678.017 1661.99,670.731 1659.28,663.492 1656.45,656.301 1653.49,649.16 1650.41,642.072 1647.21,635.039 1643.88,628.064 1640.43,621.147 1636.86,614.291 1633.17,607.499 1629.37,600.772 1625.44,594.112 1621.41,587.523 1617.25,581.004 1612.99,574.559 1608.61,568.189 1604.12,561.897 1599.52,555.684 1594.82,549.553 1590.01,543.504 1585.09,537.54 1580.07,531.663 1574.95,525.874 1569.73,520.176 1564.41,514.57 1558.99,509.057 1553.48,503.64 1547.87,498.32 1542.17,493.098 1536.39,487.977 1530.51,482.957 1524.54,478.041 1518.5,473.23 1512.36,468.525 1506.15,463.927 1499.86,459.439 1493.49,455.062 1487.04,450.796 1480.53,446.643 1473.94,442.605 1467.28,438.682 1460.55,434.876 1453.76,431.188 1446.9,427.619 1439.99,424.171 1433.01,420.843 1425.98,417.638 1418.89,414.556 1411.75,411.599 1404.56,408.766 1397.32,406.059 1390.03,403.479 1382.7,401.027 1375.33,398.703 1367.92,396.508 1360.47,394.442 1352.99,392.507 1345.47,390.703 1337.93,389.03 1330.36,387.489 1322.76,386.081 1315.13,384.805 1307.49,383.663 1299.83,382.654 1292.15,381.779 1284.45,381.038 1276.75,380.432 1269.03,379.96 1261.31,379.623 1253.59,379.42 1245.86,379.353 1238.13,379.42 1230.4,379.623 1222.68,379.96 1214.97,380.432 1207.26,381.038 1199.57,381.779 1191.89,382.654 1184.23,383.663 1176.58,384.805 1168.96,386.081 1161.36,387.489 1153.79,389.03 1146.24,390.703 1138.73,392.507 1131.24,394.442 1123.79,396.508 1116.38,398.703 1109.01,401.027 1101.68,403.479 1094.4,406.059 1087.16,408.766 1079.97,411.599 1072.83,414.556 1065.74,417.638 1058.71,420.843 1051.73,424.171 1044.81,427.619 1037.96,431.188 1031.17,434.876 1024.44,438.682 1017.78,442.605 1011.19,446.643 1004.67,450.796 998.226,455.062 991.856,459.439 985.564,463.927 979.351,468.525 973.219,473.23 967.171,478.041 961.207,482.957 955.33,487.977 949.541,493.098 943.843,498.32 938.237,503.64 932.724,509.057 927.307,514.57 921.986,520.176 916.765,525.874 911.644,531.663 906.624,537.54 901.708,543.504 896.897,549.553 892.192,555.684 887.594,561.897 883.106,568.189 878.728,574.559 874.462,581.004 870.31,587.523 866.271,594.112 862.349,600.772 858.543,607.499 854.855,614.291 851.286,621.147 847.838,628.064 844.51,635.039 841.305,642.072 838.223,649.16 835.265,656.301 832.433,663.492 829.726,670.731 827.146,678.017 824.694,685.346 822.37,692.718 820.174,700.128 818.109,707.576 816.174,715.059 814.37,722.574 812.697,730.12 811.156,737.693 809.747,745.293 808.472,752.916 807.329,760.56 806.321,768.223 805.446,775.902 804.705,783.595 804.098,791.3 803.627,799.015 803.289,806.736 803.087,814.462 803.02,822.191 803.087,829.919 803.289,837.646 803.627,845.367 804.098,853.082 804.705,860.787 805.446,868.48 806.321,876.159 807.329,883.822 808.472,891.466 809.747,899.089 811.156,906.688 812.697,914.262 814.37,921.808 816.174,929.323 818.109,936.806 820.174,944.254 822.37,951.664 824.694,959.035 827.146,966.365 829.726,973.65 832.433,980.89 835.265,988.081 838.223,995.221 841.305,1002.31 844.51,1009.34 847.838,1016.32 851.286,1023.24 854.855,1030.09 858.543,1036.88 862.349,1043.61 866.271,1050.27 870.31,1056.86 874.462,1063.38 878.728,1069.82 883.106,1076.19 887.594,1082.48 892.192,1088.7 896.897,1094.83 901.708,1100.88 906.624,1106.84 911.644,1112.72 916.765,1118.51 921.986,1124.21 927.307,1129.81 932.724,1135.32 938.237,1140.74 943.843,1146.06 949.541,1151.28 955.33,1156.4 961.207,1161.42 967.171,1166.34 973.219,1171.15 979.351,1175.86 985.564,1180.45 991.856,1184.94 998.226,1189.32 1004.67,1193.59 1011.19,1197.74 1017.78,1201.78 1024.44,1205.7 1031.17,1209.51 1037.96,1213.19 1044.81,1216.76 1051.73,1220.21 1058.71,1223.54 1065.74,1226.74 1072.83,1229.83 1079.97,1232.78 1087.16,1235.62 1094.4,1238.32 1101.68,1240.9 1109.01,1243.35 1116.38,1245.68 1123.79,1247.87 1131.24,1249.94 1138.73,1251.87 1146.24,1253.68 1153.79,1255.35 1161.36,1256.89 1168.96,1258.3 1176.58,1259.58 1184.23,1260.72 1191.89,1261.73 1199.57,1262.6 1207.26,1263.34 1214.97,1263.95 1222.68,1264.42 1230.4,1264.76 1238.13,1264.96 1245.86,1265.03 1253.59,1264.96 1261.31,1264.76 1269.03,1264.42 1276.75,1263.95 1284.45,1263.34 1292.15,1262.6 1299.83,1261.73 1307.49,1260.72 1315.13,1259.58 1322.76,1258.3 1330.36,1256.89 1337.93,1255.35 1345.47,1253.68 1352.99,1251.87 1360.47,1249.94 1367.92,1247.87 1375.33,1245.68 1382.7,1243.35 1390.03,1240.9 1397.32,1238.32 1404.56,1235.62 1411.75,1232.78 1418.89,1229.83 1425.98,1226.74 1433.01,1223.54 1439.99,1220.21 1446.9,1216.76 1453.76,1213.19 1460.55,1209.51 1467.28,1205.7 1473.94,1201.78 1480.53,1197.74 1487.04,1193.59 1493.49,1189.32 1499.86,1184.94 1506.15,1180.45 1512.36,1175.86 1518.5,1171.15 1524.54,1166.34 1530.51,1161.42 1536.39,1156.4 1542.17,1151.28 1547.87,1146.06 1553.48,1140.74 1558.99,1135.32 1564.41,1129.81 1569.73,1124.21 1574.95,1118.51 1580.07,1112.72 1585.09,1106.84 1590.01,1100.88 1594.82,1094.83 1599.52,1088.7 1604.12,1082.48 1608.61,1076.19 1612.99,1069.82 1617.25,1063.38 1621.41,1056.86 1625.44,1050.27 1629.37,1043.61 1633.17,1036.88 1636.86,1030.09 1640.43,1023.24 1643.88,1016.32 1647.21,1009.34 1650.41,1002.31 1653.49,995.221 1656.45,988.081 1659.28,980.89 1661.99,973.65 1664.57,966.365 1667.02,959.035 1669.35,951.664 1671.54,944.254 1673.61,936.806 1675.54,929.323 1677.35,921.808 1679.02,914.262 1680.56,906.688 1681.97,899.089 1683.24,891.466 1684.39,883.822 1685.39,876.159 1686.27,868.48 1687.01,860.787 1687.62,853.082 1688.09,845.367 1688.43,837.646 1688.63,829.919 "></polyline>
<polyline clip-path="url(#clip393)" style="stroke:#000000; stroke-linecap:round; stroke-linejoin:round; stroke-width:2; stroke-opacity:0.1; fill:none" points="1910.11,822.191 1910.01,810.598 1909.71,799.009 1909.2,787.426 1908.5,775.855 1907.59,764.297 1906.48,752.757 1905.16,741.238 1903.65,729.744 1901.94,718.278 1900.02,706.844 1897.91,695.445 1895.6,684.084 1893.09,672.766 1890.38,661.493 1887.48,650.269 1884.38,639.097 1881.09,627.981 1877.6,616.924 1873.92,605.93 1870.06,595.002 1865.99,584.142 1861.75,573.356 1857.31,562.645 1852.69,552.013 1847.88,541.464 1842.89,531 1837.71,520.625 1832.36,510.341 1826.83,500.153 1821.12,490.062 1815.24,480.073 1809.18,470.188 1802.95,460.411 1796.55,450.743 1789.99,441.189 1783.25,431.75 1776.36,422.431 1769.3,413.233 1762.08,404.16 1754.71,395.215 1747.18,386.399 1739.5,377.716 1731.66,369.169 1723.68,360.759 1715.56,352.49 1707.29,344.364 1698.88,336.384 1690.33,328.552 1681.65,320.87 1672.83,313.341 1663.89,305.966 1654.82,298.749 1645.62,291.692 1636.3,284.796 1626.86,278.063 1617.31,271.497 1607.64,265.098 1597.86,258.869 1587.98,252.812 1577.99,246.927 1567.9,241.219 1557.71,235.687 1547.42,230.334 1537.05,225.161 1526.58,220.17 1516.04,215.362 1505.4,210.739 1494.69,206.303 1483.91,202.054 1473.05,197.994 1462.12,194.124 1451.12,190.445 1440.07,186.959 1428.95,183.666 1417.78,180.568 1406.56,177.665 1395.28,174.959 1383.96,172.45 1372.6,170.138 1361.2,168.025 1349.77,166.112 1338.3,164.398 1326.81,162.885 1315.29,161.573 1303.75,160.462 1292.19,159.552 1280.62,158.844 1269.04,158.339 1257.45,158.035 1245.86,157.934 1234.26,158.035 1222.68,158.339 1211.09,158.844 1199.52,159.552 1187.96,160.462 1176.42,161.573 1164.91,162.885 1153.41,164.398 1141.94,166.112 1130.51,168.025 1119.11,170.138 1107.75,172.45 1096.43,174.959 1085.16,177.665 1073.94,180.568 1062.76,183.666 1051.65,186.959 1040.59,190.445 1029.6,194.124 1018.67,197.994 1007.81,202.054 997.023,206.303 986.312,210.739 975.68,215.362 965.131,220.17 954.667,225.161 944.291,230.334 934.008,235.687 923.819,241.219 913.729,246.927 903.74,252.812 893.855,258.869 884.077,265.098 874.41,271.497 864.856,278.063 855.417,284.796 846.098,291.692 836.9,298.749 827.827,305.966 818.882,313.341 810.066,320.87 801.383,328.552 792.836,336.384 784.426,344.364 776.157,352.49 768.031,360.759 760.051,369.169 752.219,377.716 744.537,386.399 737.007,395.215 729.633,404.16 722.416,413.233 715.358,422.431 708.462,431.75 701.73,441.189 695.164,450.743 688.765,460.411 682.536,470.188 676.478,480.073 670.594,490.062 664.885,500.153 659.354,510.341 654,520.625 648.827,531 643.836,541.464 639.029,552.013 634.406,562.645 629.969,573.356 625.72,584.142 621.66,595.002 617.79,605.93 614.112,616.924 610.626,627.981 607.333,639.097 604.235,650.269 601.332,661.493 598.626,672.766 596.116,684.084 593.805,695.445 591.692,706.844 589.779,718.278 588.065,729.744 586.552,741.238 585.24,752.757 584.128,764.297 583.219,775.855 582.511,787.426 582.005,799.009 581.702,810.598 581.601,822.191 581.702,833.784 582.005,845.373 582.511,856.955 583.219,868.527 584.128,880.085 585.24,891.625 586.552,903.143 588.065,914.638 589.779,926.104 591.692,937.538 593.805,948.937 596.116,960.298 598.626,971.616 601.332,982.889 604.235,994.113 607.333,1005.28 610.626,1016.4 614.112,1027.46 617.79,1038.45 621.66,1049.38 625.72,1060.24 629.969,1071.03 634.406,1081.74 639.029,1092.37 643.836,1102.92 648.827,1113.38 654,1123.76 659.354,1134.04 664.885,1144.23 670.594,1154.32 676.478,1164.31 682.536,1174.19 688.765,1183.97 695.164,1193.64 701.73,1203.19 708.462,1212.63 715.358,1221.95 722.416,1231.15 729.633,1240.22 737.007,1249.17 744.537,1257.98 752.219,1266.67 760.051,1275.21 768.031,1283.62 776.157,1291.89 784.426,1300.02 792.836,1308 801.383,1315.83 810.066,1323.51 818.882,1331.04 827.827,1338.42 836.9,1345.63 846.098,1352.69 855.417,1359.59 864.856,1366.32 874.41,1372.88 884.077,1379.28 893.855,1385.51 903.74,1391.57 913.729,1397.45 923.819,1403.16 934.008,1408.69 944.291,1414.05 954.667,1419.22 965.131,1424.21 975.68,1429.02 986.312,1433.64 997.023,1438.08 1007.81,1442.33 1018.67,1446.39 1029.6,1450.26 1040.59,1453.94 1051.65,1457.42 1062.76,1460.72 1073.94,1463.81 1085.16,1466.72 1096.43,1469.42 1107.75,1471.93 1119.11,1474.24 1130.51,1476.36 1141.94,1478.27 1153.41,1479.98 1164.91,1481.5 1176.42,1482.81 1187.96,1483.92 1199.52,1484.83 1211.09,1485.54 1222.68,1486.04 1234.26,1486.35 1245.86,1486.45 1257.45,1486.35 1269.04,1486.04 1280.62,1485.54 1292.19,1484.83 1303.75,1483.92 1315.29,1482.81 1326.81,1481.5 1338.3,1479.98 1349.77,1478.27 1361.2,1476.36 1372.6,1474.24 1383.96,1471.93 1395.28,1469.42 1406.56,1466.72 1417.78,1463.81 1428.95,1460.72 1440.07,1457.42 1451.12,1453.94 1462.12,1450.26 1473.05,1446.39 1483.91,1442.33 1494.69,1438.08 1505.4,1433.64 1516.04,1429.02 1526.58,1424.21 1537.05,1419.22 1547.42,1414.05 1557.71,1408.69 1567.9,1403.16 1577.99,1397.45 1587.98,1391.57 1597.86,1385.51 1607.64,1379.28 1617.31,1372.88 1626.86,1366.32 1636.3,1359.59 1645.62,1352.69 1654.82,1345.63 1663.89,1338.42 1672.83,1331.04 1681.65,1323.51 1690.33,1315.83 1698.88,1308 1707.29,1300.02 1715.56,1291.89 1723.68,1283.62 1731.66,1275.21 1739.5,1266.67 1747.18,1257.98 1754.71,1249.17 1762.08,1240.22 1769.3,1231.15 1776.36,1221.95 1783.25,1212.63 1789.99,1203.19 1796.55,1193.64 1802.95,1183.97 1809.18,1174.19 1815.24,1164.31 1821.12,1154.32 1826.83,1144.23 1832.36,1134.04 1837.71,1123.76 1842.89,1113.38 1847.88,1102.92 1852.69,1092.37 1857.31,1081.74 1861.75,1071.03 1865.99,1060.24 1870.06,1049.38 1873.92,1038.45 1877.6,1027.46 1881.09,1016.4 1884.38,1005.28 1887.48,994.113 1890.38,982.889 1893.09,971.616 1895.6,960.298 1897.91,948.937 1900.02,937.538 1901.94,926.104 1903.65,914.638 1905.16,903.143 1906.48,891.625 1907.59,880.085 1908.5,868.527 1909.2,856.955 1909.71,845.373 1910.01,833.784 "></polyline>
<polyline clip-path="url(#clip393)" style="stroke:#000000; stroke-linecap:round; stroke-linejoin:round; stroke-width:2; stroke-opacity:0.1; fill:none" points="1910.11,822.191 1910.01,810.598 1909.71,799.009 1909.2,787.426 1908.5,775.855 1907.59,764.297 1906.48,752.757 1905.16,741.238 1903.65,729.744 1901.94,718.278 1900.02,706.844 1897.91,695.445 1895.6,684.084 1893.09,672.766 1890.38,661.493 1887.48,650.269 1884.38,639.097 1881.09,627.981 1877.6,616.924 1873.92,605.93 1870.06,595.002 1865.99,584.142 1861.75,573.356 1857.31,562.645 1852.69,552.013 1847.88,541.464 1842.89,531 1837.71,520.625 1832.36,510.341 1826.83,500.153 1821.12,490.062 1815.24,480.073 1809.18,470.188 1802.95,460.411 1796.55,450.743 1789.99,441.189 1783.25,431.75 1776.36,422.431 1769.3,413.233 1762.08,404.16 1754.71,395.215 1747.18,386.399 1739.5,377.716 1731.66,369.169 1723.68,360.759 1715.56,352.49 1707.29,344.364 1698.88,336.384 1690.33,328.552 1681.65,320.87 1672.83,313.341 1663.89,305.966 1654.82,298.749 1645.62,291.692 1636.3,284.796 1626.86,278.063 1617.31,271.497 1607.64,265.098 1597.86,258.869 1587.98,252.812 1577.99,246.927 1567.9,241.219 1557.71,235.687 1547.42,230.334 1537.05,225.161 1526.58,220.17 1516.04,215.362 1505.4,210.739 1494.69,206.303 1483.91,202.054 1473.05,197.994 1462.12,194.124 1451.12,190.445 1440.07,186.959 1428.95,183.666 1417.78,180.568 1406.56,177.665 1395.28,174.959 1383.96,172.45 1372.6,170.138 1361.2,168.025 1349.77,166.112 1338.3,164.398 1326.81,162.885 1315.29,161.573 1303.75,160.462 1292.19,159.552 1280.62,158.844 1269.04,158.339 1257.45,158.035 1245.86,157.934 1234.26,158.035 1222.68,158.339 1211.09,158.844 1199.52,159.552 1187.96,160.462 1176.42,161.573 1164.91,162.885 1153.41,164.398 1141.94,166.112 1130.51,168.025 1119.11,170.138 1107.75,172.45 1096.43,174.959 1085.16,177.665 1073.94,180.568 1062.76,183.666 1051.65,186.959 1040.59,190.445 1029.6,194.124 1018.67,197.994 1007.81,202.054 997.023,206.303 986.312,210.739 975.68,215.362 965.131,220.17 954.667,225.161 944.291,230.334 934.008,235.687 923.819,241.219 913.729,246.927 903.74,252.812 893.855,258.869 884.077,265.098 874.41,271.497 864.856,278.063 855.417,284.796 846.098,291.692 836.9,298.749 827.827,305.966 818.882,313.341 810.066,320.87 801.383,328.552 792.836,336.384 784.426,344.364 776.157,352.49 768.031,360.759 760.051,369.169 752.219,377.716 744.537,386.399 737.007,395.215 729.633,404.16 722.416,413.233 715.358,422.431 708.462,431.75 701.73,441.189 695.164,450.743 688.765,460.411 682.536,470.188 676.478,480.073 670.594,490.062 664.885,500.153 659.354,510.341 654,520.625 648.827,531 643.836,541.464 639.029,552.013 634.406,562.645 629.969,573.356 625.72,584.142 621.66,595.002 617.79,605.93 614.112,616.924 610.626,627.981 607.333,639.097 604.235,650.269 601.332,661.493 598.626,672.766 596.116,684.084 593.805,695.445 591.692,706.844 589.779,718.278 588.065,729.744 586.552,741.238 585.24,752.757 584.128,764.297 583.219,775.855 582.511,787.426 582.005,799.009 581.702,810.598 581.601,822.191 581.702,833.784 582.005,845.373 582.511,856.955 583.219,868.527 584.128,880.085 585.24,891.625 586.552,903.143 588.065,914.638 589.779,926.104 591.692,937.538 593.805,948.937 596.116,960.298 598.626,971.616 601.332,982.889 604.235,994.113 607.333,1005.28 610.626,1016.4 614.112,1027.46 617.79,1038.45 621.66,1049.38 625.72,1060.24 629.969,1071.03 634.406,1081.74 639.029,1092.37 643.836,1102.92 648.827,1113.38 654,1123.76 659.354,1134.04 664.885,1144.23 670.594,1154.32 676.478,1164.31 682.536,1174.19 688.765,1183.97 695.164,1193.64 701.73,1203.19 708.462,1212.63 715.358,1221.95 722.416,1231.15 729.633,1240.22 737.007,1249.17 744.537,1257.98 752.219,1266.67 760.051,1275.21 768.031,1283.62 776.157,1291.89 784.426,1300.02 792.836,1308 801.383,1315.83 810.066,1323.51 818.882,1331.04 827.827,1338.42 836.9,1345.63 846.098,1352.69 855.417,1359.59 864.856,1366.32 874.41,1372.88 884.077,1379.28 893.855,1385.51 903.74,1391.57 913.729,1397.45 923.819,1403.16 934.008,1408.69 944.291,1414.05 954.667,1419.22 965.131,1424.21 975.68,1429.02 986.312,1433.64 997.023,1438.08 1007.81,1442.33 1018.67,1446.39 1029.6,1450.26 1040.59,1453.94 1051.65,1457.42 1062.76,1460.72 1073.94,1463.81 1085.16,1466.72 1096.43,1469.42 1107.75,1471.93 1119.11,1474.24 1130.51,1476.36 1141.94,1478.27 1153.41,1479.98 1164.91,1481.5 1176.42,1482.81 1187.96,1483.92 1199.52,1484.83 1211.09,1485.54 1222.68,1486.04 1234.26,1486.35 1245.86,1486.45 1257.45,1486.35 1269.04,1486.04 1280.62,1485.54 1292.19,1484.83 1303.75,1483.92 1315.29,1482.81 1326.81,1481.5 1338.3,1479.98 1349.77,1478.27 1361.2,1476.36 1372.6,1474.24 1383.96,1471.93 1395.28,1469.42 1406.56,1466.72 1417.78,1463.81 1428.95,1460.72 1440.07,1457.42 1451.12,1453.94 1462.12,1450.26 1473.05,1446.39 1483.91,1442.33 1494.69,1438.08 1505.4,1433.64 1516.04,1429.02 1526.58,1424.21 1537.05,1419.22 1547.42,1414.05 1557.71,1408.69 1567.9,1403.16 1577.99,1397.45 1587.98,1391.57 1597.86,1385.51 1607.64,1379.28 1617.31,1372.88 1626.86,1366.32 1636.3,1359.59 1645.62,1352.69 1654.82,1345.63 1663.89,1338.42 1672.83,1331.04 1681.65,1323.51 1690.33,1315.83 1698.88,1308 1707.29,1300.02 1715.56,1291.89 1723.68,1283.62 1731.66,1275.21 1739.5,1266.67 1747.18,1257.98 1754.71,1249.17 1762.08,1240.22 1769.3,1231.15 1776.36,1221.95 1783.25,1212.63 1789.99,1203.19 1796.55,1193.64 1802.95,1183.97 1809.18,1174.19 1815.24,1164.31 1821.12,1154.32 1826.83,1144.23 1832.36,1134.04 1837.71,1123.76 1842.89,1113.38 1847.88,1102.92 1852.69,1092.37 1857.31,1081.74 1861.75,1071.03 1865.99,1060.24 1870.06,1049.38 1873.92,1038.45 1877.6,1027.46 1881.09,1016.4 1884.38,1005.28 1887.48,994.113 1890.38,982.889 1893.09,971.616 1895.6,960.298 1897.91,948.937 1900.02,937.538 1901.94,926.104 1903.65,914.638 1905.16,903.143 1906.48,891.625 1907.59,880.085 1908.5,868.527 1909.2,856.955 1909.71,845.373 1910.01,833.784 "></polyline>
<polyline clip-path="url(#clip393)" style="stroke:#ededed; stroke-linecap:round; stroke-linejoin:round; stroke-width:2; stroke-opacity:1; fill:none" points="1910.11,822.191 1910.01,810.598 1909.71,799.009 1909.2,787.426 1908.5,775.855 1907.59,764.297 1906.48,752.757 1905.16,741.238 1903.65,729.744 1901.94,718.278 1900.02,706.844 1897.91,695.445 1895.6,684.084 1893.09,672.766 1890.38,661.493 1887.48,650.269 1884.38,639.097 1881.09,627.981 1877.6,616.924 1873.92,605.93 1870.06,595.002 1865.99,584.142 1861.75,573.356 1857.31,562.645 1852.69,552.013 1847.88,541.464 1842.89,531 1837.71,520.625 1832.36,510.341 1826.83,500.153 1821.12,490.062 1815.24,480.073 1809.18,470.188 1802.95,460.411 1796.55,450.743 1789.99,441.189 1783.25,431.75 1776.36,422.431 1769.3,413.233 1762.08,404.16 1754.71,395.215 1747.18,386.399 1739.5,377.716 1731.66,369.169 1723.68,360.759 1715.56,352.49 1707.29,344.364 1698.88,336.384 1690.33,328.552 1681.65,320.87 1672.83,313.341 1663.89,305.966 1654.82,298.749 1645.62,291.692 1636.3,284.796 1626.86,278.063 1617.31,271.497 1607.64,265.098 1597.86,258.869 1587.98,252.812 1577.99,246.927 1567.9,241.219 1557.71,235.687 1547.42,230.334 1537.05,225.161 1526.58,220.17 1516.04,215.362 1505.4,210.739 1494.69,206.303 1483.91,202.054 1473.05,197.994 1462.12,194.124 1451.12,190.445 1440.07,186.959 1428.95,183.666 1417.78,180.568 1406.56,177.665 1395.28,174.959 1383.96,172.45 1372.6,170.138 1361.2,168.025 1349.77,166.112 1338.3,164.398 1326.81,162.885 1315.29,161.573 1303.75,160.462 1292.19,159.552 1280.62,158.844 1269.04,158.339 1257.45,158.035 1245.86,157.934 1234.26,158.035 1222.68,158.339 1211.09,158.844 1199.52,159.552 1187.96,160.462 1176.42,161.573 1164.91,162.885 1153.41,164.398 1141.94,166.112 1130.51,168.025 1119.11,170.138 1107.75,172.45 1096.43,174.959 1085.16,177.665 1073.94,180.568 1062.76,183.666 1051.65,186.959 1040.59,190.445 1029.6,194.124 1018.67,197.994 1007.81,202.054 997.023,206.303 986.312,210.739 975.68,215.362 965.131,220.17 954.667,225.161 944.291,230.334 934.008,235.687 923.819,241.219 913.729,246.927 903.74,252.812 893.855,258.869 884.077,265.098 874.41,271.497 864.856,278.063 855.417,284.796 846.098,291.692 836.9,298.749 827.827,305.966 818.882,313.341 810.066,320.87 801.383,328.552 792.836,336.384 784.426,344.364 776.157,352.49 768.031,360.759 760.051,369.169 752.219,377.716 744.537,386.399 737.007,395.215 729.633,404.16 722.416,413.233 715.358,422.431 708.462,431.75 701.73,441.189 695.164,450.743 688.765,460.411 682.536,470.188 676.478,480.073 670.594,490.062 664.885,500.153 659.354,510.341 654,520.625 648.827,531 643.836,541.464 639.029,552.013 634.406,562.645 629.969,573.356 625.72,584.142 621.66,595.002 617.79,605.93 614.112,616.924 610.626,627.981 607.333,639.097 604.235,650.269 601.332,661.493 598.626,672.766 596.116,684.084 593.805,695.445 591.692,706.844 589.779,718.278 588.065,729.744 586.552,741.238 585.24,752.757 584.128,764.297 583.219,775.855 582.511,787.426 582.005,799.009 581.702,810.598 581.601,822.191 581.702,833.784 582.005,845.373 582.511,856.955 583.219,868.527 584.128,880.085 585.24,891.625 586.552,903.143 588.065,914.638 589.779,926.104 591.692,937.538 593.805,948.937 596.116,960.298 598.626,971.616 601.332,982.889 604.235,994.113 607.333,1005.28 610.626,1016.4 614.112,1027.46 617.79,1038.45 621.66,1049.38 625.72,1060.24 629.969,1071.03 634.406,1081.74 639.029,1092.37 643.836,1102.92 648.827,1113.38 654,1123.76 659.354,1134.04 664.885,1144.23 670.594,1154.32 676.478,1164.31 682.536,1174.19 688.765,1183.97 695.164,1193.64 701.73,1203.19 708.462,1212.63 715.358,1221.95 722.416,1231.15 729.633,1240.22 737.007,1249.17 744.537,1257.98 752.219,1266.67 760.051,1275.21 768.031,1283.62 776.157,1291.89 784.426,1300.02 792.836,1308 801.383,1315.83 810.066,1323.51 818.882,1331.04 827.827,1338.42 836.9,1345.63 846.098,1352.69 855.417,1359.59 864.856,1366.32 874.41,1372.88 884.077,1379.28 893.855,1385.51 903.74,1391.57 913.729,1397.45 923.819,1403.16 934.008,1408.69 944.291,1414.05 954.667,1419.22 965.131,1424.21 975.68,1429.02 986.312,1433.64 997.023,1438.08 1007.81,1442.33 1018.67,1446.39 1029.6,1450.26 1040.59,1453.94 1051.65,1457.42 1062.76,1460.72 1073.94,1463.81 1085.16,1466.72 1096.43,1469.42 1107.75,1471.93 1119.11,1474.24 1130.51,1476.36 1141.94,1478.27 1153.41,1479.98 1164.91,1481.5 1176.42,1482.81 1187.96,1483.92 1199.52,1484.83 1211.09,1485.54 1222.68,1486.04 1234.26,1486.35 1245.86,1486.45 1257.45,1486.35 1269.04,1486.04 1280.62,1485.54 1292.19,1484.83 1303.75,1483.92 1315.29,1482.81 1326.81,1481.5 1338.3,1479.98 1349.77,1478.27 1361.2,1476.36 1372.6,1474.24 1383.96,1471.93 1395.28,1469.42 1406.56,1466.72 1417.78,1463.81 1428.95,1460.72 1440.07,1457.42 1451.12,1453.94 1462.12,1450.26 1473.05,1446.39 1483.91,1442.33 1494.69,1438.08 1505.4,1433.64 1516.04,1429.02 1526.58,1424.21 1537.05,1419.22 1547.42,1414.05 1557.71,1408.69 1567.9,1403.16 1577.99,1397.45 1587.98,1391.57 1597.86,1385.51 1607.64,1379.28 1617.31,1372.88 1626.86,1366.32 1636.3,1359.59 1645.62,1352.69 1654.82,1345.63 1663.89,1338.42 1672.83,1331.04 1681.65,1323.51 1690.33,1315.83 1698.88,1308 1707.29,1300.02 1715.56,1291.89 1723.68,1283.62 1731.66,1275.21 1739.5,1266.67 1747.18,1257.98 1754.71,1249.17 1762.08,1240.22 1769.3,1231.15 1776.36,1221.95 1783.25,1212.63 1789.99,1203.19 1796.55,1193.64 1802.95,1183.97 1809.18,1174.19 1815.24,1164.31 1821.12,1154.32 1826.83,1144.23 1832.36,1134.04 1837.71,1123.76 1842.89,1113.38 1847.88,1102.92 1852.69,1092.37 1857.31,1081.74 1861.75,1071.03 1865.99,1060.24 1870.06,1049.38 1873.92,1038.45 1877.6,1027.46 1881.09,1016.4 1884.38,1005.28 1887.48,994.113 1890.38,982.889 1893.09,971.616 1895.6,960.298 1897.91,948.937 1900.02,937.538 1901.94,926.104 1903.65,914.638 1905.16,903.143 1906.48,891.625 1907.59,880.085 1908.5,868.527 1909.2,856.955 1909.71,845.373 1910.01,833.784 "></polyline>
<path clip-path="url(#clip390)" d="M1966.87 814.437 Q1963.26 814.437 1961.43 818.002 Q1959.63 821.544 1959.63 828.673 Q1959.63 835.78 1961.43 839.344 Q1963.26 842.886 1966.87 842.886 Q1970.51 842.886 1972.31 839.344 Q1974.14 835.78 1974.14 828.673 Q1974.14 821.544 1972.31 818.002 Q1970.51 814.437 1966.87 814.437 M1966.87 810.733 Q1972.68 810.733 1975.74 815.34 Q1978.82 819.923 1978.82 828.673 Q1978.82 837.4 1975.74 842.006 Q1972.68 846.59 1966.87 846.59 Q1961.06 846.59 1957.98 842.006 Q1954.93 837.4 1954.93 828.673 Q1954.93 819.923 1957.98 815.34 Q1961.06 810.733 1966.87 810.733 Z" fill="#000000" fill-rule="nonzero" fill-opacity="1"></path><path clip-path="url(#clip390)" d="M1988.48 799.87 Q1985.7 799.87 1984.08 802.051 Q1982.47 804.214 1982.47 807.995 Q1982.47 811.775 1984.06 813.957 Q1985.68 816.12 1988.48 816.12 Q1991.25 816.12 1992.87 813.938 Q1994.48 811.756 1994.48 807.995 Q1994.48 804.252 1992.87 802.07 Q1991.25 799.87 1988.48 799.87 M1988.48 796.936 Q1993 796.936 1995.58 799.87 Q1998.15 802.804 1998.15 807.995 Q1998.15 813.167 1995.58 816.12 Q1993 819.054 1988.48 819.054 Q1983.95 819.054 1981.38 816.12 Q1978.82 813.167 1978.82 807.995 Q1978.82 802.804 1981.38 799.87 Q1983.95 796.936 1988.48 796.936 Z" fill="#000000" fill-rule="nonzero" fill-opacity="1"></path><path clip-path="url(#clip390)" d="M1727.12 1343.96 Q1730.48 1344.67 1732.35 1346.94 Q1734.25 1349.21 1734.25 1352.54 Q1734.25 1357.66 1730.73 1360.46 Q1727.21 1363.26 1720.73 1363.26 Q1718.56 1363.26 1716.24 1362.82 Q1713.95 1362.4 1711.5 1361.55 L1711.5 1357.03 Q1713.44 1358.17 1715.75 1358.75 Q1718.07 1359.33 1720.59 1359.33 Q1724.99 1359.33 1727.28 1357.59 Q1729.6 1355.85 1729.6 1352.54 Q1729.6 1349.49 1727.44 1347.77 Q1725.32 1346.04 1721.5 1346.04 L1717.47 1346.04 L1717.47 1342.2 L1721.68 1342.2 Q1725.13 1342.2 1726.96 1340.83 Q1728.79 1339.44 1728.79 1336.85 Q1728.79 1334.19 1726.89 1332.77 Q1725.01 1331.34 1721.5 1331.34 Q1719.57 1331.34 1717.38 1331.76 Q1715.18 1332.17 1712.54 1333.05 L1712.54 1328.89 Q1715.2 1328.14 1717.51 1327.77 Q1719.85 1327.4 1721.91 1327.4 Q1727.24 1327.4 1730.34 1329.83 Q1733.44 1332.24 1733.44 1336.36 Q1733.44 1339.23 1731.8 1341.22 Q1730.15 1343.19 1727.12 1343.96 Z" fill="#000000" fill-rule="nonzero" fill-opacity="1"></path><path clip-path="url(#clip390)" d="M1743.93 1358.65 L1751.56 1358.65 L1751.56 1332.29 L1743.25 1333.96 L1743.25 1329.7 L1751.52 1328.03 L1756.19 1328.03 L1756.19 1358.65 L1763.83 1358.65 L1763.83 1362.59 L1743.93 1362.59 L1743.93 1358.65 Z" fill="#000000" fill-rule="nonzero" fill-opacity="1"></path><path clip-path="url(#clip390)" d="M1773.32 1328.03 L1791.68 1328.03 L1791.68 1331.96 L1777.61 1331.96 L1777.61 1340.44 Q1778.62 1340.09 1779.64 1339.93 Q1780.66 1339.74 1781.68 1339.74 Q1787.47 1339.74 1790.85 1342.91 Q1794.23 1346.08 1794.23 1351.5 Q1794.23 1357.08 1790.75 1360.18 Q1787.28 1363.26 1780.96 1363.26 Q1778.79 1363.26 1776.52 1362.89 Q1774.27 1362.52 1771.87 1361.78 L1771.87 1357.08 Q1773.95 1358.21 1776.17 1358.77 Q1778.39 1359.33 1780.87 1359.33 Q1784.87 1359.33 1787.21 1357.22 Q1789.55 1355.11 1789.55 1351.5 Q1789.55 1347.89 1787.21 1345.78 Q1784.87 1343.68 1780.87 1343.68 Q1779 1343.68 1777.12 1344.09 Q1775.27 1344.51 1773.32 1345.39 L1773.32 1328.03 Z" fill="#000000" fill-rule="nonzero" fill-opacity="1"></path><path clip-path="url(#clip390)" d="M1803.89 1316.54 Q1801.11 1316.54 1799.49 1318.72 Q1797.88 1320.88 1797.88 1324.67 Q1797.88 1328.45 1799.47 1330.63 Q1801.09 1332.79 1803.89 1332.79 Q1806.66 1332.79 1808.28 1330.61 Q1809.89 1328.43 1809.89 1324.67 Q1809.89 1320.92 1808.28 1318.74 Q1806.66 1316.54 1803.89 1316.54 M1803.89 1313.61 Q1808.41 1313.61 1810.98 1316.54 Q1813.56 1319.47 1813.56 1324.67 Q1813.56 1329.84 1810.98 1332.79 Q1808.41 1335.72 1803.89 1335.72 Q1799.36 1335.72 1796.78 1332.79 Q1794.23 1329.84 1794.23 1324.67 Q1794.23 1319.47 1796.78 1316.54 Q1799.36 1313.61 1803.89 1313.61 Z" fill="#000000" fill-rule="nonzero" fill-opacity="1"></path><path clip-path="url(#clip390)" d="M1199.88 1572.67 L1216.2 1572.67 L1216.2 1576.6 L1194.26 1576.6 L1194.26 1572.67 Q1196.92 1569.91 1201.5 1565.28 Q1206.11 1560.63 1207.29 1559.29 Q1209.54 1556.76 1210.42 1555.03 Q1211.32 1553.27 1211.32 1551.58 Q1211.32 1548.82 1209.37 1547.09 Q1207.45 1545.35 1204.35 1545.35 Q1202.15 1545.35 1199.7 1546.12 Q1197.27 1546.88 1194.49 1548.43 L1194.49 1543.71 Q1197.31 1542.57 1199.77 1541.99 Q1202.22 1541.42 1204.26 1541.42 Q1209.63 1541.42 1212.82 1544.1 Q1216.02 1546.79 1216.02 1551.28 Q1216.02 1553.41 1215.21 1555.33 Q1214.42 1557.23 1212.31 1559.82 Q1211.73 1560.49 1208.63 1563.71 Q1205.53 1566.9 1199.88 1572.67 Z" fill="#000000" fill-rule="nonzero" fill-opacity="1"></path><path clip-path="url(#clip390)" d="M1224.84 1542.04 L1247.06 1542.04 L1247.06 1544.03 L1234.51 1576.6 L1229.63 1576.6 L1241.43 1545.98 L1224.84 1545.98 L1224.84 1542.04 Z" fill="#000000" fill-rule="nonzero" fill-opacity="1"></path><path clip-path="url(#clip390)" d="M1266.18 1545.12 Q1262.57 1545.12 1260.74 1548.68 Q1258.93 1552.23 1258.93 1559.36 Q1258.93 1566.46 1260.74 1570.03 Q1262.57 1573.57 1266.18 1573.57 Q1269.81 1573.57 1271.62 1570.03 Q1273.45 1566.46 1273.45 1559.36 Q1273.45 1552.23 1271.62 1548.68 Q1269.81 1545.12 1266.18 1545.12 M1266.18 1541.42 Q1271.99 1541.42 1275.04 1546.02 Q1278.12 1550.61 1278.12 1559.36 Q1278.12 1568.08 1275.04 1572.69 Q1271.99 1577.27 1266.18 1577.27 Q1260.37 1577.27 1257.29 1572.69 Q1254.23 1568.08 1254.23 1559.36 Q1254.23 1550.61 1257.29 1546.02 Q1260.37 1541.42 1266.18 1541.42 Z" fill="#000000" fill-rule="nonzero" fill-opacity="1"></path><path clip-path="url(#clip390)" d="M1287.79 1530.55 Q1285.01 1530.55 1283.39 1532.73 Q1281.77 1534.9 1281.77 1538.68 Q1281.77 1542.46 1283.37 1544.64 Q1284.99 1546.8 1287.79 1546.8 Q1290.56 1546.8 1292.17 1544.62 Q1293.79 1542.44 1293.79 1538.68 Q1293.79 1534.93 1292.17 1532.75 Q1290.56 1530.55 1287.79 1530.55 M1287.79 1527.62 Q1292.3 1527.62 1294.88 1530.55 Q1297.46 1533.49 1297.46 1538.68 Q1297.46 1543.85 1294.88 1546.8 Q1292.3 1549.74 1287.79 1549.74 Q1283.26 1549.74 1280.68 1546.8 Q1278.12 1543.85 1278.12 1538.68 Q1278.12 1533.49 1280.68 1530.55 Q1283.26 1527.62 1287.79 1527.62 Z" fill="#000000" fill-rule="nonzero" fill-opacity="1"></path><path clip-path="url(#clip390)" d="M683.71 1358.65 L700.029 1358.65 L700.029 1362.59 L678.085 1362.59 L678.085 1358.65 Q680.747 1355.9 685.33 1351.27 Q689.937 1346.62 691.117 1345.27 Q693.363 1342.75 694.242 1341.02 Q695.145 1339.26 695.145 1337.57 Q695.145 1334.81 693.201 1333.08 Q691.279 1331.34 688.177 1331.34 Q685.978 1331.34 683.525 1332.1 Q681.094 1332.87 678.316 1334.42 L678.316 1329.7 Q681.14 1328.56 683.594 1327.98 Q686.048 1327.4 688.085 1327.4 Q693.455 1327.4 696.65 1330.09 Q699.844 1332.77 699.844 1337.27 Q699.844 1339.39 699.034 1341.32 Q698.247 1343.21 696.14 1345.81 Q695.562 1346.48 692.46 1349.7 Q689.358 1352.89 683.71 1358.65 Z" fill="#000000" fill-rule="nonzero" fill-opacity="1"></path><path clip-path="url(#clip390)" d="M713.872 1358.65 L730.191 1358.65 L730.191 1362.59 L708.247 1362.59 L708.247 1358.65 Q710.909 1355.9 715.492 1351.27 Q720.099 1346.62 721.279 1345.27 Q723.524 1342.75 724.404 1341.02 Q725.307 1339.26 725.307 1337.57 Q725.307 1334.81 723.362 1333.08 Q721.441 1331.34 718.339 1331.34 Q716.14 1331.34 713.687 1332.1 Q711.256 1332.87 708.478 1334.42 L708.478 1329.7 Q711.302 1328.56 713.756 1327.98 Q716.21 1327.4 718.247 1327.4 Q723.617 1327.4 726.811 1330.09 Q730.006 1332.77 730.006 1337.27 Q730.006 1339.39 729.196 1341.32 Q728.409 1343.21 726.302 1345.81 Q725.723 1346.48 722.622 1349.7 Q719.52 1352.89 713.872 1358.65 Z" fill="#000000" fill-rule="nonzero" fill-opacity="1"></path><path clip-path="url(#clip390)" d="M740.052 1328.03 L758.408 1328.03 L758.408 1331.96 L744.334 1331.96 L744.334 1340.44 Q745.353 1340.09 746.372 1339.93 Q747.39 1339.74 748.409 1339.74 Q754.196 1339.74 757.575 1342.91 Q760.955 1346.08 760.955 1351.5 Q760.955 1357.08 757.483 1360.18 Q754.01 1363.26 747.691 1363.26 Q745.515 1363.26 743.247 1362.89 Q741.001 1362.52 738.594 1361.78 L738.594 1357.08 Q740.677 1358.21 742.899 1358.77 Q745.122 1359.33 747.598 1359.33 Q751.603 1359.33 753.941 1357.22 Q756.279 1355.11 756.279 1351.5 Q756.279 1347.89 753.941 1345.78 Q751.603 1343.68 747.598 1343.68 Q745.723 1343.68 743.848 1344.09 Q741.997 1344.51 740.052 1345.39 L740.052 1328.03 Z" fill="#000000" fill-rule="nonzero" fill-opacity="1"></path><path clip-path="url(#clip390)" d="M770.622 1316.54 Q767.838 1316.54 766.221 1318.72 Q764.603 1320.88 764.603 1324.67 Q764.603 1328.45 766.202 1330.63 Q767.82 1332.79 770.622 1332.79 Q773.387 1332.79 775.004 1330.61 Q776.622 1328.43 776.622 1324.67 Q776.622 1320.92 775.004 1318.74 Q773.387 1316.54 770.622 1316.54 M770.622 1313.61 Q775.136 1313.61 777.712 1316.54 Q780.289 1319.47 780.289 1324.67 Q780.289 1329.84 777.712 1332.79 Q775.136 1335.72 770.622 1335.72 Q766.089 1335.72 763.513 1332.79 Q760.955 1329.84 760.955 1324.67 Q760.955 1319.47 763.513 1316.54 Q766.089 1313.61 770.622 1313.61 Z" fill="#000000" fill-rule="nonzero" fill-opacity="1"></path><path clip-path="url(#clip390)" d="M465.115 841.983 L472.753 841.983 L472.753 815.618 L464.443 817.284 L464.443 813.025 L472.707 811.358 L477.383 811.358 L477.383 841.983 L485.022 841.983 L485.022 845.918 L465.115 845.918 L465.115 841.983 Z" fill="#000000" fill-rule="nonzero" fill-opacity="1"></path><path clip-path="url(#clip390)" d="M504.466 829.507 Q501.133 829.507 499.212 831.289 Q497.313 833.071 497.313 836.196 Q497.313 839.321 499.212 841.104 Q501.133 842.886 504.466 842.886 Q507.799 842.886 509.721 841.104 Q511.642 839.298 511.642 836.196 Q511.642 833.071 509.721 831.289 Q507.823 829.507 504.466 829.507 M499.79 827.516 Q496.781 826.775 495.091 824.715 Q493.425 822.655 493.425 819.692 Q493.425 815.548 496.364 813.141 Q499.327 810.733 504.466 810.733 Q509.628 810.733 512.568 813.141 Q515.508 815.548 515.508 819.692 Q515.508 822.655 513.818 824.715 Q512.151 826.775 509.165 827.516 Q512.545 828.303 514.42 830.595 Q516.318 832.886 516.318 836.196 Q516.318 841.219 513.239 843.905 Q510.184 846.59 504.466 846.59 Q498.749 846.59 495.67 843.905 Q492.614 841.219 492.614 836.196 Q492.614 832.886 494.512 830.595 Q496.411 828.303 499.79 827.516 M498.077 820.132 Q498.077 822.817 499.744 824.321 Q501.434 825.826 504.466 825.826 Q507.475 825.826 509.165 824.321 Q510.878 822.817 510.878 820.132 Q510.878 817.446 509.165 815.942 Q507.475 814.437 504.466 814.437 Q501.434 814.437 499.744 815.942 Q498.077 817.446 498.077 820.132 Z" fill="#000000" fill-rule="nonzero" fill-opacity="1"></path><path clip-path="url(#clip390)" d="M534.628 814.437 Q531.017 814.437 529.188 818.002 Q527.383 821.544 527.383 828.673 Q527.383 835.78 529.188 839.344 Q531.017 842.886 534.628 842.886 Q538.262 842.886 540.068 839.344 Q541.896 835.78 541.896 828.673 Q541.896 821.544 540.068 818.002 Q538.262 814.437 534.628 814.437 M534.628 810.733 Q540.438 810.733 543.494 815.34 Q546.572 819.923 546.572 828.673 Q546.572 837.4 543.494 842.006 Q540.438 846.59 534.628 846.59 Q528.818 846.59 525.739 842.006 Q522.684 837.4 522.684 828.673 Q522.684 819.923 525.739 815.34 Q528.818 810.733 534.628 810.733 Z" fill="#000000" fill-rule="nonzero" fill-opacity="1"></path><path clip-path="url(#clip390)" d="M556.24 799.87 Q553.456 799.87 551.839 802.051 Q550.221 804.214 550.221 807.995 Q550.221 811.775 551.82 813.957 Q553.437 816.12 556.24 816.12 Q559.004 816.12 560.622 813.938 Q562.239 811.756 562.239 807.995 Q562.239 804.252 560.622 802.07 Q559.004 799.87 556.24 799.87 M556.24 796.936 Q560.753 796.936 563.33 799.87 Q565.907 802.804 565.907 807.995 Q565.907 813.167 563.33 816.12 Q560.753 819.054 556.24 819.054 Q551.707 819.054 549.13 816.12 Q546.572 813.167 546.572 807.995 Q546.572 802.804 549.13 799.87 Q551.707 796.936 556.24 796.936 Z" fill="#000000" fill-rule="nonzero" fill-opacity="1"></path><path clip-path="url(#clip390)" d="M679.624 325.313 L687.263 325.313 L687.263 298.947 L678.953 300.614 L678.953 296.354 L687.217 294.688 L691.893 294.688 L691.893 325.313 L699.531 325.313 L699.531 329.248 L679.624 329.248 L679.624 325.313 Z" fill="#000000" fill-rule="nonzero" fill-opacity="1"></path><path clip-path="url(#clip390)" d="M723.142 310.614 Q726.499 311.331 728.374 313.6 Q730.272 315.868 730.272 319.202 Q730.272 324.317 726.754 327.118 Q723.235 329.919 716.754 329.919 Q714.578 329.919 712.263 329.479 Q709.971 329.063 707.518 328.206 L707.518 323.692 Q709.462 324.827 711.777 325.405 Q714.092 325.984 716.615 325.984 Q721.013 325.984 723.305 324.248 Q725.619 322.512 725.619 319.202 Q725.619 316.146 723.467 314.433 Q721.337 312.697 717.518 312.697 L713.49 312.697 L713.49 308.854 L717.703 308.854 Q721.152 308.854 722.98 307.489 Q724.809 306.1 724.809 303.507 Q724.809 300.845 722.911 299.433 Q721.036 297.998 717.518 297.998 Q715.596 297.998 713.397 298.415 Q711.198 298.831 708.559 299.711 L708.559 295.544 Q711.221 294.804 713.536 294.433 Q715.874 294.063 717.934 294.063 Q723.258 294.063 726.36 296.493 Q729.462 298.901 729.462 303.021 Q729.462 305.891 727.818 307.882 Q726.175 309.85 723.142 310.614 Z" fill="#000000" fill-rule="nonzero" fill-opacity="1"></path><path clip-path="url(#clip390)" d="M739.184 294.688 L757.54 294.688 L757.54 298.623 L743.466 298.623 L743.466 307.095 Q744.485 306.748 745.503 306.586 Q746.522 306.401 747.54 306.401 Q753.327 306.401 756.707 309.572 Q760.087 312.743 760.087 318.16 Q760.087 323.739 756.615 326.84 Q753.142 329.919 746.823 329.919 Q744.647 329.919 742.378 329.549 Q740.133 329.178 737.726 328.438 L737.726 323.739 Q739.809 324.873 742.031 325.428 Q744.253 325.984 746.73 325.984 Q750.735 325.984 753.073 323.877 Q755.411 321.771 755.411 318.16 Q755.411 314.549 753.073 312.442 Q750.735 310.336 746.73 310.336 Q744.855 310.336 742.98 310.753 Q741.128 311.169 739.184 312.049 L739.184 294.688 Z" fill="#000000" fill-rule="nonzero" fill-opacity="1"></path><path clip-path="url(#clip390)" d="M769.754 283.199 Q766.97 283.199 765.353 285.381 Q763.735 287.544 763.735 291.324 Q763.735 295.104 765.334 297.286 Q766.952 299.449 769.754 299.449 Q772.519 299.449 774.136 297.267 Q775.754 295.085 775.754 291.324 Q775.754 287.581 774.136 285.399 Q772.519 283.199 769.754 283.199 M769.754 280.265 Q774.268 280.265 776.844 283.199 Q779.421 286.133 779.421 291.324 Q779.421 296.496 776.844 299.449 Q774.268 302.383 769.754 302.383 Q765.221 302.383 762.645 299.449 Q760.087 296.496 760.087 291.324 Q760.087 286.133 762.645 283.199 Q765.221 280.265 769.754 280.265 Z" fill="#000000" fill-rule="nonzero" fill-opacity="1"></path><path clip-path="url(#clip390)" d="M1211.32 114.518 L1211.32 110.259 Q1213.08 111.092 1214.88 111.532 Q1216.69 111.972 1218.42 111.972 Q1223.05 111.972 1225.48 108.87 Q1227.94 105.745 1228.29 99.4026 Q1226.94 101.393 1224.88 102.458 Q1222.82 103.523 1220.32 103.523 Q1215.14 103.523 1212.1 100.398 Q1209.1 97.2498 1209.1 91.81 Q1209.1 86.486 1212.24 83.2684 Q1215.39 80.0508 1220.62 80.0508 Q1226.62 80.0508 1229.77 84.6573 Q1232.94 89.2406 1232.94 97.9905 Q1232.94 106.162 1229.05 111.046 Q1225.18 115.907 1218.63 115.907 Q1216.87 115.907 1215.07 115.56 Q1213.26 115.213 1211.32 114.518 M1220.62 99.8655 Q1223.77 99.8655 1225.6 97.7128 Q1227.45 95.56 1227.45 91.81 Q1227.45 88.0832 1225.6 85.9304 Q1223.77 83.7545 1220.62 83.7545 Q1217.48 83.7545 1215.62 85.9304 Q1213.79 88.0832 1213.79 91.81 Q1213.79 95.56 1215.62 97.7128 Q1217.48 99.8655 1220.62 99.8655 Z" fill="#000000" fill-rule="nonzero" fill-opacity="1"></path><path clip-path="url(#clip390)" d="M1251.34 83.7545 Q1247.73 83.7545 1245.9 87.3193 Q1244.1 90.861 1244.1 97.9905 Q1244.1 105.097 1245.9 108.662 Q1247.73 112.203 1251.34 112.203 Q1254.98 112.203 1256.78 108.662 Q1258.61 105.097 1258.61 97.9905 Q1258.61 90.861 1256.78 87.3193 Q1254.98 83.7545 1251.34 83.7545 M1251.34 80.0508 Q1257.15 80.0508 1260.21 84.6573 Q1263.29 89.2406 1263.29 97.9905 Q1263.29 106.717 1260.21 111.324 Q1257.15 115.907 1251.34 115.907 Q1245.53 115.907 1242.45 111.324 Q1239.4 106.717 1239.4 97.9905 Q1239.4 89.2406 1242.45 84.6573 Q1245.53 80.0508 1251.34 80.0508 Z" fill="#000000" fill-rule="nonzero" fill-opacity="1"></path><path clip-path="url(#clip390)" d="M1272.95 69.1869 Q1270.17 69.1869 1268.55 71.3686 Q1266.93 73.5315 1266.93 77.3119 Q1266.93 81.0922 1268.53 83.2739 Q1270.15 85.4368 1272.95 85.4368 Q1275.72 85.4368 1277.33 83.2551 Q1278.95 81.0734 1278.95 77.3119 Q1278.95 73.5691 1277.33 71.3874 Q1275.72 69.1869 1272.95 69.1869 M1272.95 66.2529 Q1277.47 66.2529 1280.04 69.1869 Q1282.62 72.1209 1282.62 77.3119 Q1282.62 82.484 1280.04 85.4368 Q1277.47 88.3708 1272.95 88.3708 Q1268.42 88.3708 1265.84 85.4368 Q1263.29 82.484 1263.29 77.3119 Q1263.29 72.1209 1265.84 69.1869 Q1268.42 66.2529 1272.95 66.2529 Z" fill="#000000" fill-rule="nonzero" fill-opacity="1"></path><path clip-path="url(#clip390)" d="M1741.53 298.762 L1729.72 317.211 L1741.53 317.211 L1741.53 298.762 M1740.3 294.688 L1746.18 294.688 L1746.18 317.211 L1751.11 317.211 L1751.11 321.1 L1746.18 321.1 L1746.18 329.248 L1741.53 329.248 L1741.53 321.1 L1725.93 321.1 L1725.93 316.586 L1740.3 294.688 Z" fill="#000000" fill-rule="nonzero" fill-opacity="1"></path><path clip-path="url(#clip390)" d="M1758.89 294.688 L1777.25 294.688 L1777.25 298.623 L1763.17 298.623 L1763.17 307.095 Q1764.19 306.748 1765.21 306.586 Q1766.23 306.401 1767.25 306.401 Q1773.03 306.401 1776.41 309.572 Q1779.79 312.743 1779.79 318.16 Q1779.79 323.739 1776.32 326.84 Q1772.85 329.919 1766.53 329.919 Q1764.35 329.919 1762.09 329.549 Q1759.84 329.178 1757.43 328.438 L1757.43 323.739 Q1759.52 324.873 1761.74 325.428 Q1763.96 325.984 1766.44 325.984 Q1770.44 325.984 1772.78 323.877 Q1775.12 321.771 1775.12 318.16 Q1775.12 314.549 1772.78 312.442 Q1770.44 310.336 1766.44 310.336 Q1764.56 310.336 1762.69 310.753 Q1760.84 311.169 1758.89 312.049 L1758.89 294.688 Z" fill="#000000" fill-rule="nonzero" fill-opacity="1"></path><path clip-path="url(#clip390)" d="M1789.46 283.199 Q1786.68 283.199 1785.06 285.381 Q1783.44 287.544 1783.44 291.324 Q1783.44 295.104 1785.04 297.286 Q1786.66 299.449 1789.46 299.449 Q1792.23 299.449 1793.84 297.267 Q1795.46 295.085 1795.46 291.324 Q1795.46 287.581 1793.84 285.399 Q1792.23 283.199 1789.46 283.199 M1789.46 280.265 Q1793.97 280.265 1796.55 283.199 Q1799.13 286.133 1799.13 291.324 Q1799.13 296.496 1796.55 299.449 Q1793.97 302.383 1789.46 302.383 Q1784.93 302.383 1782.35 299.449 Q1779.79 296.496 1779.79 291.324 Q1779.79 286.133 1782.35 283.199 Q1784.93 280.265 1789.46 280.265 Z" fill="#000000" fill-rule="nonzero" fill-opacity="1"></path><path clip-path="url(#clip390)" d="M1279.07 807.99 Q1275.46 807.99 1273.63 811.554 Q1271.83 815.096 1271.83 822.226 Q1271.83 829.332 1273.63 832.897 Q1275.46 836.439 1279.07 836.439 Q1282.7 836.439 1284.51 832.897 Q1286.34 829.332 1286.34 822.226 Q1286.34 815.096 1284.51 811.554 Q1282.7 807.99 1279.07 807.99 M1279.07 804.286 Q1284.88 804.286 1287.94 808.892 Q1291.01 813.476 1291.01 822.226 Q1291.01 830.952 1287.94 835.559 Q1284.88 840.142 1279.07 840.142 Q1273.26 840.142 1270.18 835.559 Q1267.13 830.952 1267.13 822.226 Q1267.13 813.476 1270.18 808.892 Q1273.26 804.286 1279.07 804.286 Z" fill="#000000" fill-rule="nonzero" fill-opacity="1"></path><path clip-path="url(#clip390)" d="M1269.35 583.492 L1287.7 583.492 L1287.7 587.427 L1273.63 587.427 L1273.63 595.899 Q1274.65 595.552 1275.67 595.39 Q1276.69 595.205 1277.7 595.205 Q1283.49 595.205 1286.87 598.376 Q1290.25 601.547 1290.25 606.964 Q1290.25 612.543 1286.78 615.645 Q1283.31 618.723 1276.99 618.723 Q1274.81 618.723 1272.54 618.353 Q1270.3 617.982 1267.89 617.242 L1267.89 612.543 Q1269.97 613.677 1272.2 614.232 Q1274.42 614.788 1276.89 614.788 Q1280.9 614.788 1283.24 612.682 Q1285.58 610.575 1285.58 606.964 Q1285.58 603.353 1283.24 601.246 Q1280.9 599.14 1276.89 599.14 Q1275.02 599.14 1273.14 599.557 Q1271.29 599.973 1269.35 600.853 L1269.35 583.492 Z" fill="#000000" fill-rule="nonzero" fill-opacity="1"></path><path clip-path="url(#clip390)" d="M1253.76 392.698 L1261.4 392.698 L1261.4 366.332 L1253.09 367.999 L1253.09 363.74 L1261.35 362.073 L1266.03 362.073 L1266.03 392.698 L1273.67 392.698 L1273.67 396.633 L1253.76 396.633 L1253.76 392.698 Z" fill="#000000" fill-rule="nonzero" fill-opacity="1"></path><path clip-path="url(#clip390)" d="M1293.11 365.152 Q1289.5 365.152 1287.67 368.716 Q1285.86 372.258 1285.86 379.388 Q1285.86 386.494 1287.67 390.059 Q1289.5 393.601 1293.11 393.601 Q1296.74 393.601 1298.55 390.059 Q1300.38 386.494 1300.38 379.388 Q1300.38 372.258 1298.55 368.716 Q1296.74 365.152 1293.11 365.152 M1293.11 361.448 Q1298.92 361.448 1301.98 366.054 Q1305.05 370.638 1305.05 379.388 Q1305.05 388.114 1301.98 392.721 Q1298.92 397.304 1293.11 397.304 Q1287.3 397.304 1284.22 392.721 Q1281.17 388.114 1281.17 379.388 Q1281.17 370.638 1284.22 366.054 Q1287.3 361.448 1293.11 361.448 Z" fill="#000000" fill-rule="nonzero" fill-opacity="1"></path><path clip-path="url(#clip390)" d="M1254.26 171.279 L1261.89 171.279 L1261.89 144.913 L1253.58 146.58 L1253.58 142.321 L1261.85 140.654 L1266.52 140.654 L1266.52 171.279 L1274.16 171.279 L1274.16 175.214 L1254.26 175.214 L1254.26 171.279 Z" fill="#000000" fill-rule="nonzero" fill-opacity="1"></path><path clip-path="url(#clip390)" d="M1283.65 140.654 L1302.01 140.654 L1302.01 144.589 L1287.94 144.589 L1287.94 153.061 Q1288.95 152.714 1289.97 152.552 Q1290.99 152.367 1292.01 152.367 Q1297.8 152.367 1301.18 155.538 Q1304.56 158.709 1304.56 164.126 Q1304.56 169.705 1301.08 172.807 Q1297.61 175.885 1291.29 175.885 Q1289.12 175.885 1286.85 175.515 Q1284.6 175.144 1282.2 174.404 L1282.2 169.705 Q1284.28 170.839 1286.5 171.394 Q1288.72 171.95 1291.2 171.95 Q1295.2 171.95 1297.54 169.844 Q1299.88 167.737 1299.88 164.126 Q1299.88 160.515 1297.54 158.408 Q1295.2 156.302 1291.2 156.302 Q1289.33 156.302 1287.45 156.719 Q1285.6 157.135 1283.65 158.015 L1283.65 140.654 Z" fill="#000000" fill-rule="nonzero" fill-opacity="1"></path><polyline clip-path="url(#clip393)" style="stroke:#009af9; stroke-linecap:round; stroke-linejoin:round; stroke-width:4; stroke-opacity:1; fill:none" points="1385.52,822.191 1385.86,820.791 1386.18,819.384 1386.49,817.971 1386.79,816.551 1387.07,815.125 1387.34,813.692 1387.59,812.253 1387.83,810.809 1388.06,809.358 1388.27,807.902 1388.47,806.44 1388.66,804.972 1388.83,803.499 1388.98,802.021 1389.13,800.538 1389.25,799.05 1389.37,797.557 1389.46,796.059 1389.55,794.556 1389.62,793.05 1389.67,791.538 1389.71,790.023 1389.73,788.504 1389.74,786.98 1389.73,785.454 1389.71,783.923 1389.67,782.389 1389.62,780.852 1389.55,779.311 1389.47,777.767 1389.37,776.221 1389.25,774.672 1389.12,773.12 1388.97,771.566 1388.81,770.01 1388.63,768.451 1388.43,766.891 1388.22,765.329 1387.99,763.765 1387.75,762.2 1387.49,760.633 1387.21,759.065 1386.92,757.496 1386.61,755.927 1386.29,754.357 1385.94,752.786 1385.58,751.215 1385.21,749.643 1384.82,748.072 1384.41,746.501 1383.98,744.93 1383.54,743.36 1383.08,741.79 1382.6,740.221 1382.11,738.653 1381.6,737.086 1381.07,735.521 1380.53,733.957 1379.97,732.395 1379.39,730.835 1378.8,729.276 1378.19,727.72 1377.56,726.167 1376.91,724.616 1376.25,723.067 1375.57,721.522 1374.87,719.98 1374.16,718.441 1373.42,716.905 1372.68,715.373 1371.91,713.845 1371.13,712.321 1370.33,710.801 1369.51,709.285 1368.68,707.774 1367.82,706.268 1366.95,704.767 1366.07,703.271 1365.17,701.78 1364.25,700.294 1363.31,698.814 1362.35,697.34 1361.38,695.872 1360.39,694.41 1359.39,692.955 1358.37,691.506 1357.33,690.064 1356.27,688.629 1355.2,687.201 1354.11,685.781 1353,684.368 1351.88,682.962 1350.73,681.565 1349.58,680.175 1348.4,678.794 1347.21,677.421 1346,676.057 1344.78,674.702 1343.54,673.356 1342.28,672.019 1341.01,670.691 1339.72,669.373 1338.41,668.065 1337.09,666.766 1335.75,665.478 1334.4,664.2 1333.03,662.933 1331.64,661.676 1330.24,660.43 1328.82,659.195 1327.38,657.972 1325.93,656.76 1324.47,655.559 1322.99,654.371 1321.49,653.194 1319.98,652.029 1318.45,650.877 1316.91,649.738 1315.35,648.611 1313.78,647.497 1312.19,646.396 1310.58,645.309 1308.97,644.234 1307.33,643.174 1305.69,642.127 1304.03,641.095 1302.35,640.076 1300.66,639.072 1298.96,638.082 1297.24,637.107 1295.51,636.147 1293.76,635.202 1292,634.272 1290.23,633.358 1288.44,632.459 1286.64,631.576 1284.83,630.709 1283.01,629.858 1281.17,629.023 1279.32,628.205 1277.45,627.403 1275.57,626.618 1273.69,625.85 1271.78,625.099 1269.87,624.365 1267.95,623.648 1266.01,622.95 1264.06,622.269 1262.1,621.605 1260.13,620.96 1258.15,620.334 1256.15,619.725 1254.15,619.135 1252.13,618.564 1250.1,618.011 1248.07,617.478 1246.02,616.963 1243.96,616.468 1241.9,615.993 1239.82,615.537 1237.73,615.1 1235.64,614.684 1233.53,614.287 1231.42,613.911 1229.3,613.555 1227.17,613.219 1225.03,612.904 1222.88,612.61 1220.72,612.336 1218.56,612.084 1216.39,611.852 1214.21,611.642 1212.02,611.453 1209.83,611.285 1207.63,611.139 1205.42,611.015 1203.2,610.913 1200.98,610.833 1198.76,610.774 1196.52,610.738 1194.29,610.724 1192.04,610.733 1189.79,610.764 1187.54,610.817 1185.28,610.894 1183.02,610.993 1180.75,611.115 1178.48,611.26 1176.2,611.429 1173.92,611.62 1171.64,611.835 1169.35,612.073 1167.06,612.335 1164.76,612.62 1162.47,612.929 1160.17,613.262 1157.87,613.619 1155.57,613.999 1153.26,614.404 1150.96,614.832 1148.65,615.285 1146.34,615.762 1144.04,616.263 1141.73,616.789 1139.42,617.339 1137.11,617.913 1134.8,618.512 1132.49,619.136 1130.18,619.784 1127.87,620.457 1125.57,621.155 1123.26,621.877 1120.96,622.625 1118.66,623.397 1116.36,624.194 1114.07,625.016 1111.77,625.863 1109.48,626.735 1107.19,627.632 1104.91,628.555 1102.63,629.502 1100.35,630.474 1098.08,631.472 1095.82,632.495 1093.55,633.543 1091.3,634.616 1089.04,635.714 1086.8,636.838 1084.56,637.987 1082.32,639.161 1080.1,640.36 1077.87,641.585 1075.66,642.834 1073.45,644.109 1071.25,645.409 1069.06,646.734 1066.88,648.085 1064.7,649.46 1062.53,650.861 1060.38,652.287 1058.23,653.738 1056.09,655.214 1053.96,656.714 1051.84,658.24 1049.73,659.791 1047.63,661.367 1045.54,662.967 1043.46,664.592 1041.39,666.242 1039.34,667.917 1037.3,669.616 1035.27,671.34 1033.25,673.089 1031.24,674.861 1029.25,676.659 1027.27,678.48 1025.3,680.326 1023.35,682.196 1021.41,684.089 1019.49,686.007 1017.58,687.949 1015.68,689.915 1013.8,691.904 1011.94,693.917 1010.09,695.953 1008.26,698.013 1006.44,700.097 1004.64,702.203 1002.86,704.332 1001.1,706.485 999.347,708.66 997.616,710.859 995.903,713.079 994.209,715.323 992.532,717.588 990.875,719.876 989.236,722.186 987.616,724.518 986.016,726.872 984.436,729.248 982.876,731.645 981.336,734.063 979.817,736.503 978.318,738.964 976.84,741.446 975.384,743.948 973.95,746.472 972.537,749.015 971.146,751.579 969.778,754.163 968.432,756.767 967.109,759.391 965.809,762.034 964.533,764.697 963.28,767.379 962.052,770.08 960.847,772.799 959.666,775.538 958.511,778.294 957.38,781.069 956.274,783.862 955.193,786.673 954.139,789.501 953.109,792.347 952.106,795.21 951.13,798.09 950.179,800.986 949.256,803.899 948.36,806.829 947.49,809.774 946.648,812.735 945.834,815.712 945.048,818.704 944.29,821.711 943.56,824.732 942.858,827.769 942.186,830.82 941.542,833.885 940.928,836.963 940.343,840.056 939.787,843.161 939.261,846.28 938.766,849.411 938.3,852.555 937.865,855.711 937.461,858.879 937.087,862.059 936.744,865.25 936.433,868.452 936.152,871.665 935.904,874.889 935.687,878.122 935.502,881.366 935.349,884.62 935.228,887.882 935.14,891.154 935.084,894.435 935.061,897.724 935.071,901.021 935.114,904.326 935.19,907.638 935.299,910.958 935.443,914.285 935.619,917.618 935.83,920.957 936.075,924.302 936.354,927.653 936.667,931.009 937.014,934.371 937.396,937.736 937.813,941.106 938.264,944.48 938.75,947.857 939.272,951.238 939.828,954.622 940.42,958.008 941.047,961.396 941.71,964.787 942.408,968.178 943.142,971.571 943.911,974.965 944.717,978.359 945.558,981.753 946.436,985.147 947.349,988.541 948.299,991.933 949.285,995.324 950.308,998.713 951.367,1002.1 952.462,1005.48 953.594,1008.87 954.763,1012.25 955.968,1015.62 957.21,1018.99 958.489,1022.36 959.804,1025.72 961.157,1029.08 962.546,1032.43 963.972,1035.77 965.436,1039.11 966.936,1042.45 968.473,1045.77 970.048,1049.09 971.659,1052.4 973.307,1055.7 974.993,1059 976.715,1062.28 978.475,1065.56 980.272,1068.82 982.105,1072.08 983.976,1075.32 985.884,1078.55 987.829,1081.78 989.811,1084.99 991.829,1088.19 993.885,1091.37 995.978,1094.55 998.107,1097.71 1000.27,1100.85 1002.48,1103.98 1004.72,1107.1 1006.99,1110.2 1009.3,1113.29 1011.65,1116.36 1014.04,1119.42 1016.46,1122.45 1018.92,1125.48 1021.42,1128.48 1023.95,1131.47 1026.51,1134.43 1029.12,1137.38 1031.75,1140.31 1034.43,1143.23 1037.14,1146.12 1039.88,1148.99 1042.66,1151.84 1045.48,1154.67 1048.33,1157.48 1051.22,1160.26 1054.14,1163.03 1057.09,1165.77 1060.08,1168.49 1063.11,1171.18 1066.17,1173.85 1069.26,1176.5 1072.39,1179.12 1075.55,1181.72 1078.74,1184.29 1081.97,1186.83 1085.23,1189.35 1088.53,1191.85 1091.85,1194.31 1095.21,1196.75 1098.61,1199.16 1102.03,1201.54 1105.49,1203.9 1108.98,1206.22 1112.5,1208.52 1116.05,1210.78 1119.63,1213.02 1123.25,1215.23 1126.89,1217.4 1130.57,1219.54 1134.28,1221.65 1138.01,1223.73 1141.78,1225.78 1145.57,1227.79 1149.4,1229.77 1153.25,1231.72 1157.13,1233.63 1161.05,1235.51 1164.98,1237.36 1168.95,1239.16 1172.95,1240.94 1176.97,1242.68 1181.02,1244.38 1185.09,1246.04 1189.2,1247.67 1193.33,1249.26 1197.48,1250.81 1201.66,1252.33 1205.87,1253.81 1210.1,1255.25 1214.35,1256.65 1218.63,1258.01 1222.94,1259.33 1227.26,1260.61 1231.61,1261.85 1235.99,1263.05 1240.38,1264.21 1244.8,1265.32 1249.24,1266.4 1253.7,1267.43 1258.18,1268.43 1262.68,1269.38 1267.21,1270.28 1271.75,1271.15 1276.31,1271.97 1280.9,1272.74 1285.5,1273.47 1290.12,1274.16 1294.75,1274.8 1299.41,1275.4 1304.08,1275.96 1308.77,1276.46 1313.47,1276.92 1318.19,1277.34 1322.93,1277.71 1327.68,1278.03 1332.45,1278.31 1337.23,1278.54 1342.02,1278.72 1346.83,1278.85 1351.65,1278.94 1356.48,1278.97 1361.33,1278.96 1366.19,1278.9 1371.05,1278.8 1375.93,1278.64 1380.82,1278.43 1385.72,1278.18 1390.63,1277.87 1395.54,1277.52 1400.47,1277.11 1405.4,1276.65 1410.34,1276.15 1415.28,1275.59 1420.24,1274.98 1425.19,1274.32 1430.16,1273.61 1435.13,1272.85 1440.1,1272.04 1445.07,1271.17 1450.05,1270.25 1455.04,1269.28 1460.02,1268.26 1465.01,1267.19 1470,1266.06 1474.98,1264.88 1479.97,1263.65 1484.96,1262.36 1489.95,1261.02 1494.93,1259.63 1499.92,1258.19 1504.9,1256.69 1509.88,1255.14 1514.85,1253.53 1519.82,1251.87 1524.79,1250.16 1529.75,1248.39 1534.71,1246.57 1539.65,1244.69 1544.6,1242.77 1549.53,1240.78 1554.46,1238.74 1559.37,1236.65 1564.28,1234.51 1569.18,1232.31 1574.07,1230.05 1578.95,1227.74 1583.81,1225.38 1588.67,1222.96 1593.51,1220.49 1598.34,1217.96 1603.15,1215.38 1607.95,1212.74 1612.74,1210.05 1617.51,1207.3 1622.26,1204.5 1627,1201.65 1631.72,1198.74 1636.42,1195.78 1641.11,1192.76 1645.77,1189.69 1650.42,1186.57 1655.04,1183.39 1659.65,1180.15 1664.23,1176.87 1668.79,1173.52 1673.33,1170.13 1677.85,1166.68 1682.34,1163.18 1686.81,1159.62 1691.25,1156.01 1695.67,1152.35 1700.06,1148.64 1704.42,1144.87 1708.76,1141.05 1713.07,1137.17 1717.35,1133.25 1721.6,1129.27 1725.82,1125.24 1730.02,1121.16 1734.18,1117.02 1738.31,1112.84 1742.4,1108.6 1746.47,1104.31 1750.5,1099.97 1754.5,1095.58 1758.46,1091.14 1762.39,1086.64 1766.28,1082.1 1770.14,1077.51 1773.96,1072.87 1777.74,1068.18 1781.49,1063.44 1785.19,1058.65 1788.86,1053.81 1792.49,1048.92 1796.07,1043.99 1799.62,1039.01 1803.13,1033.98 1806.59,1028.9 1810.01,1023.78 1813.39,1018.61 1816.72,1013.39 1820.01,1008.13 1823.25,1002.82 1826.45,997.464 1829.6,992.065 1832.71,986.622 1835.77,981.134 1838.78,975.603 1841.75,970.028 1844.66,964.41 1847.53,958.749 1850.34,953.046 1853.11,947.301 1855.82,941.515 1858.48,935.687 1861.09,929.819 1863.65,923.91 1866.16,917.962 1868.61,911.974 1871.01,905.947 1873.35,899.882 1875.64,893.779 1877.87,887.637 1880.04,881.459 1882.16,875.245 1884.22,868.994 1886.23,862.707 1888.17,856.385 1890.06,850.028 1891.89,843.638 1893.66,837.213 1895.37,830.755 1897.01,824.265 1897.52,822.191 "></polyline>
<polyline clip-path="url(#clip393)" style="stroke:#e26f46; stroke-linecap:round; stroke-linejoin:round; stroke-width:4; stroke-opacity:1; fill:none" points="1245.86,822.191 1277.17,853.504 1308.48,884.818 1339.8,916.131 1371.11,947.444 1402.42,978.758 1433.74,1010.07 1465.05,1041.38 1496.36,1072.7 1527.68,1104.01 1558.99,1135.32 1590.3,1166.64 1621.62,1197.95 1652.93,1229.26 1684.24,1260.58 1715.56,1291.89 "></polyline>
<path clip-path="url(#clip390)" d="M212.753 250.738 L1179.38 250.738 L1179.38 95.2176 L212.753 95.2176  Z" fill="#ffffff" fill-rule="evenodd" fill-opacity="1"></path>
<polyline clip-path="url(#clip390)" style="stroke:#000000; stroke-linecap:round; stroke-linejoin:round; stroke-width:4; stroke-opacity:1; fill:none" points="212.753,250.738 1179.38,250.738 1179.38,95.2176 212.753,95.2176 212.753,250.738 "></polyline>
<polyline clip-path="url(#clip390)" style="stroke:#009af9; stroke-linecap:round; stroke-linejoin:round; stroke-width:4; stroke-opacity:1; fill:none" points="237.35,147.058 384.937,147.058 "></polyline>
<path clip-path="url(#clip390)" d="M409.535 129.778 L438.771 129.778 L438.771 133.713 L426.502 133.713 L426.502 164.338 L421.803 164.338 L421.803 133.713 L409.535 133.713 L409.535 129.778 Z" fill="#000000" fill-rule="nonzero" fill-opacity="1"></path><path clip-path="url(#clip390)" d="M447.22 160.449 L447.22 174.199 L442.937 174.199 L442.937 138.412 L447.22 138.412 L447.22 142.347 Q448.562 140.032 450.599 138.921 Q452.659 137.787 455.507 137.787 Q460.229 137.787 463.169 141.537 Q466.131 145.287 466.131 151.398 Q466.131 157.509 463.169 161.259 Q460.229 165.009 455.507 165.009 Q452.659 165.009 450.599 163.898 Q448.562 162.763 447.22 160.449 M461.71 151.398 Q461.71 146.699 459.766 144.037 Q457.844 141.352 454.465 141.352 Q451.085 141.352 449.141 144.037 Q447.22 146.699 447.22 151.398 Q447.22 156.097 449.141 158.782 Q451.085 161.444 454.465 161.444 Q457.844 161.444 459.766 158.782 Q461.71 156.097 461.71 151.398 Z" fill="#000000" fill-rule="nonzero" fill-opacity="1"></path><path clip-path="url(#clip390)" d="M484.974 151.305 Q479.812 151.305 477.821 152.486 Q475.831 153.666 475.831 156.514 Q475.831 158.782 477.312 160.125 Q478.817 161.444 481.386 161.444 Q484.928 161.444 487.057 158.944 Q489.21 156.421 489.21 152.254 L489.21 151.305 L484.974 151.305 M493.469 149.546 L493.469 164.338 L489.21 164.338 L489.21 160.402 Q487.752 162.763 485.576 163.898 Q483.4 165.009 480.252 165.009 Q476.27 165.009 473.909 162.787 Q471.571 160.541 471.571 156.791 Q471.571 152.416 474.488 150.194 Q477.428 147.972 483.238 147.972 L489.21 147.972 L489.21 147.555 Q489.21 144.615 487.266 143.018 Q485.344 141.398 481.849 141.398 Q479.627 141.398 477.52 141.93 Q475.414 142.463 473.469 143.527 L473.469 139.592 Q475.807 138.69 478.006 138.25 Q480.205 137.787 482.289 137.787 Q487.914 137.787 490.692 140.703 Q493.469 143.62 493.469 149.546 Z" fill="#000000" fill-rule="nonzero" fill-opacity="1"></path><path clip-path="url(#clip390)" d="M524.418 150.31 L524.418 152.393 L504.835 152.393 Q505.113 156.791 507.474 159.106 Q509.858 161.398 514.094 161.398 Q516.548 161.398 518.84 160.796 Q521.154 160.194 523.423 158.99 L523.423 163.018 Q521.131 163.99 518.724 164.5 Q516.316 165.009 513.84 165.009 Q507.636 165.009 504.002 161.398 Q500.391 157.787 500.391 151.629 Q500.391 145.264 503.816 141.537 Q507.266 137.787 513.099 137.787 Q518.33 137.787 521.363 141.166 Q524.418 144.523 524.418 150.31 M520.159 149.06 Q520.113 145.565 518.191 143.481 Q516.293 141.398 513.145 141.398 Q509.58 141.398 507.428 143.412 Q505.298 145.426 504.974 149.083 L520.159 149.06 Z" fill="#000000" fill-rule="nonzero" fill-opacity="1"></path><path clip-path="url(#clip390)" d="M531.247 138.412 L535.483 138.412 L535.483 150.588 L547.497 138.412 L552.728 138.412 L542.821 148.435 L554.001 164.338 L549.233 164.338 L540.043 151.259 L535.483 155.889 L535.483 164.338 L531.247 164.338 L531.247 138.412 Z" fill="#000000" fill-rule="nonzero" fill-opacity="1"></path><path clip-path="url(#clip390)" d="M556.964 138.412 L581.802 138.412 L581.802 141.815 L571.478 141.815 L571.478 164.338 L567.288 164.338 L567.288 141.815 L556.964 141.815 L556.964 138.412 Z" fill="#000000" fill-rule="nonzero" fill-opacity="1"></path><path clip-path="url(#clip390)" d="M597.705 141.398 Q594.279 141.398 592.288 144.083 Q590.297 146.745 590.297 151.398 Q590.297 156.051 592.265 158.736 Q594.256 161.398 597.705 161.398 Q601.108 161.398 603.098 158.713 Q605.089 156.027 605.089 151.398 Q605.089 146.791 603.098 144.106 Q601.108 141.398 597.705 141.398 M597.705 137.787 Q603.26 137.787 606.432 141.398 Q609.603 145.009 609.603 151.398 Q609.603 157.764 606.432 161.398 Q603.26 165.009 597.705 165.009 Q592.126 165.009 588.955 161.398 Q585.807 157.764 585.807 151.398 Q585.807 145.009 588.955 141.398 Q592.126 137.787 597.705 137.787 Z" fill="#000000" fill-rule="nonzero" fill-opacity="1"></path><path clip-path="url(#clip390)" d="M620.783 160.449 L620.783 174.199 L616.501 174.199 L616.501 138.412 L620.783 138.412 L620.783 142.347 Q622.126 140.032 624.163 138.921 Q626.223 137.787 629.07 137.787 Q633.793 137.787 636.732 141.537 Q639.695 145.287 639.695 151.398 Q639.695 157.509 636.732 161.259 Q633.793 165.009 629.07 165.009 Q626.223 165.009 624.163 163.898 Q622.126 162.763 620.783 160.449 M635.274 151.398 Q635.274 146.699 633.33 144.037 Q631.408 141.352 628.029 141.352 Q624.649 141.352 622.705 144.037 Q620.783 146.699 620.783 151.398 Q620.783 156.097 622.705 158.782 Q624.649 161.444 628.029 161.444 Q631.408 161.444 633.33 158.782 Q635.274 156.097 635.274 151.398 Z" fill="#000000" fill-rule="nonzero" fill-opacity="1"></path><path clip-path="url(#clip390)" d="M668.792 138.412 L668.792 164.338 L664.556 164.338 L664.556 143.527 L652.056 164.338 L646.593 164.338 L646.593 138.412 L650.83 138.412 L650.83 159.176 L663.306 138.412 L668.792 138.412 Z" fill="#000000" fill-rule="nonzero" fill-opacity="1"></path><path clip-path="url(#clip390)" d="M681.848 145.889 Q681.848 147.81 683.329 148.898 Q684.811 149.986 687.565 149.986 L693.306 149.986 L693.306 141.815 L687.565 141.815 Q684.811 141.815 683.329 142.879 Q681.848 143.944 681.848 145.889 M675.783 164.338 L683.7 152.972 Q681.015 152.37 679.232 150.796 Q677.45 149.199 677.45 145.889 Q677.45 142.139 679.927 140.287 Q682.427 138.412 687.45 138.412 L697.589 138.412 L697.589 164.338 L693.306 164.338 L693.306 153.389 L688.005 153.389 L680.366 164.338 L675.783 164.338 Z" fill="#000000" fill-rule="nonzero" fill-opacity="1"></path><path clip-path="url(#clip390)" d="M726.94 160.935 L739.301 160.935 L739.301 141.815 L730.343 141.815 L730.343 145.055 Q730.343 154.592 727.612 159.685 L726.94 160.935 M720.76 160.935 Q722.866 160.009 723.792 158.041 Q726.061 153.157 726.061 143.319 L726.061 138.412 L743.584 138.412 L743.584 160.935 L746.986 160.935 L746.986 170.888 L743.584 170.888 L743.584 164.338 L722.565 164.338 L722.565 170.888 L719.163 170.888 L719.163 160.935 L720.76 160.935 Z" fill="#000000" fill-rule="nonzero" fill-opacity="1"></path><path clip-path="url(#clip390)" d="M758.028 152.393 L758.028 160.935 L764.093 160.935 Q767.01 160.935 768.537 159.847 Q770.065 158.736 770.065 156.652 Q770.065 154.569 768.537 153.481 Q767.01 152.393 764.093 152.393 L758.028 152.393 M758.028 141.815 L758.028 148.99 L763.63 148.99 Q766.037 148.99 767.565 148.041 Q769.093 147.069 769.093 145.356 Q769.093 143.643 767.565 142.74 Q766.037 141.815 763.63 141.815 L758.028 141.815 M753.769 138.412 L763.908 138.412 Q768.468 138.412 770.922 140.078 Q773.375 141.745 773.375 144.824 Q773.375 147.208 772.125 148.62 Q770.875 150.009 768.422 150.356 Q771.361 150.912 772.982 152.671 Q774.602 154.43 774.602 157.069 Q774.602 160.541 771.917 162.439 Q769.255 164.338 764.301 164.338 L753.769 164.338 L753.769 138.412 Z" fill="#000000" fill-rule="nonzero" fill-opacity="1"></path><path clip-path="url(#clip390)" d="M803.907 138.412 L803.907 164.338 L799.671 164.338 L799.671 143.527 L787.171 164.338 L781.708 164.338 L781.708 138.412 L785.945 138.412 L785.945 159.176 L798.421 138.412 L803.907 138.412 Z" fill="#000000" fill-rule="nonzero" fill-opacity="1"></path><path clip-path="url(#clip390)" d="M827.449 138.412 L831.685 138.412 L831.685 150.588 L843.004 138.412 L847.958 138.412 L838.653 148.389 L849.301 164.338 L844.741 164.338 L836.014 151.236 L831.685 155.889 L831.685 164.338 L827.449 164.338 L827.449 155.889 L823.12 151.236 L814.394 164.338 L809.833 164.338 L820.481 148.389 L811.176 138.412 L816.13 138.412 L827.449 150.588 L827.449 138.412 Z" fill="#000000" fill-rule="nonzero" fill-opacity="1"></path><path clip-path="url(#clip390)" d="M877.564 150.31 L877.564 152.393 L857.981 152.393 Q858.259 156.791 860.62 159.106 Q863.004 161.398 867.24 161.398 Q869.694 161.398 871.986 160.796 Q874.301 160.194 876.569 158.99 L876.569 163.018 Q874.277 163.99 871.87 164.5 Q869.463 165.009 866.986 165.009 Q860.782 165.009 857.148 161.398 Q853.537 157.787 853.537 151.629 Q853.537 145.264 856.963 141.537 Q860.412 137.787 866.245 137.787 Q871.477 137.787 874.509 141.166 Q877.564 144.523 877.564 150.31 M873.305 149.06 Q873.259 145.565 871.338 143.481 Q869.44 141.398 866.291 141.398 Q862.727 141.398 860.574 143.412 Q858.444 145.426 858.12 149.083 L873.305 149.06 Z" fill="#000000" fill-rule="nonzero" fill-opacity="1"></path><path clip-path="url(#clip390)" d="M884.393 138.412 L888.676 138.412 L888.676 148.99 L902.495 148.99 L902.495 138.412 L906.777 138.412 L906.777 164.338 L902.495 164.338 L902.495 152.393 L888.676 152.393 L888.676 164.338 L884.393 164.338 L884.393 138.412 Z" fill="#000000" fill-rule="nonzero" fill-opacity="1"></path><path clip-path="url(#clip390)" d="M937.587 138.412 L937.587 164.338 L933.351 164.338 L933.351 143.527 L920.851 164.338 L915.388 164.338 L915.388 138.412 L919.624 138.412 L919.624 159.176 L932.101 138.412 L937.587 138.412 Z" fill="#000000" fill-rule="nonzero" fill-opacity="1"></path><path clip-path="url(#clip390)" d="M950.643 145.889 Q950.643 147.81 952.124 148.898 Q953.606 149.986 956.36 149.986 L962.101 149.986 L962.101 141.815 L956.36 141.815 Q953.606 141.815 952.124 142.879 Q950.643 143.944 950.643 145.889 M944.578 164.338 L952.495 152.972 Q949.809 152.37 948.027 150.796 Q946.245 149.199 946.245 145.889 Q946.245 142.139 948.721 140.287 Q951.221 138.412 956.245 138.412 L966.383 138.412 L966.383 164.338 L962.101 164.338 L962.101 153.389 L956.8 153.389 L949.161 164.338 L944.578 164.338 Z" fill="#000000" fill-rule="nonzero" fill-opacity="1"></path><path clip-path="url(#clip390)" d="M989.786 138.412 L994.022 138.412 L994.022 150.588 L1006.04 138.412 L1011.27 138.412 L1001.36 148.435 L1012.54 164.338 L1007.77 164.338 L998.582 151.259 L994.022 155.889 L994.022 164.338 L989.786 164.338 L989.786 138.412 Z" fill="#000000" fill-rule="nonzero" fill-opacity="1"></path><path clip-path="url(#clip390)" d="M1030.36 151.305 Q1025.2 151.305 1023.21 152.486 Q1021.22 153.666 1021.22 156.514 Q1021.22 158.782 1022.7 160.125 Q1024.21 161.444 1026.78 161.444 Q1030.32 161.444 1032.45 158.944 Q1034.6 156.421 1034.6 152.254 L1034.6 151.305 L1030.36 151.305 M1038.86 149.546 L1038.86 164.338 L1034.6 164.338 L1034.6 160.402 Q1033.14 162.763 1030.97 163.898 Q1028.79 165.009 1025.64 165.009 Q1021.66 165.009 1019.3 162.787 Q1016.96 160.541 1016.96 156.791 Q1016.96 152.416 1019.88 150.194 Q1022.82 147.972 1028.63 147.972 L1034.6 147.972 L1034.6 147.555 Q1034.6 144.615 1032.66 143.018 Q1030.73 141.398 1027.24 141.398 Q1025.02 141.398 1022.91 141.93 Q1020.8 142.463 1018.86 143.527 L1018.86 139.592 Q1021.2 138.69 1023.4 138.25 Q1025.6 137.787 1027.68 137.787 Q1033.3 137.787 1036.08 140.703 Q1038.86 143.62 1038.86 149.546 Z" fill="#000000" fill-rule="nonzero" fill-opacity="1"></path><path clip-path="url(#clip390)" d="M1044.55 138.412 L1069.39 138.412 L1069.39 141.815 L1059.07 141.815 L1059.07 164.338 L1054.88 164.338 L1054.88 141.815 L1044.55 141.815 L1044.55 138.412 Z" fill="#000000" fill-rule="nonzero" fill-opacity="1"></path><path clip-path="url(#clip390)" d="M1097.42 150.31 L1097.42 152.393 L1077.84 152.393 Q1078.12 156.791 1080.48 159.106 Q1082.86 161.398 1087.1 161.398 Q1089.55 161.398 1091.85 160.796 Q1094.16 160.194 1096.43 158.99 L1096.43 163.018 Q1094.14 163.99 1091.73 164.5 Q1089.32 165.009 1086.85 165.009 Q1080.64 165.009 1077.01 161.398 Q1073.4 157.787 1073.4 151.629 Q1073.4 145.264 1076.82 141.537 Q1080.27 137.787 1086.11 137.787 Q1091.34 137.787 1094.37 141.166 Q1097.42 144.523 1097.42 150.31 M1093.17 149.06 Q1093.12 145.565 1091.2 143.481 Q1089.3 141.398 1086.15 141.398 Q1082.59 141.398 1080.43 143.412 Q1078.3 145.426 1077.98 149.083 L1093.17 149.06 Z" fill="#000000" fill-rule="nonzero" fill-opacity="1"></path><path clip-path="url(#clip390)" d="M1108.54 160.449 L1108.54 174.199 L1104.25 174.199 L1104.25 138.412 L1108.54 138.412 L1108.54 142.347 Q1109.88 140.032 1111.92 138.921 Q1113.98 137.787 1116.82 137.787 Q1121.54 137.787 1124.48 141.537 Q1127.45 145.287 1127.45 151.398 Q1127.45 157.509 1124.48 161.259 Q1121.54 165.009 1116.82 165.009 Q1113.98 165.009 1111.92 163.898 Q1109.88 162.763 1108.54 160.449 M1123.03 151.398 Q1123.03 146.699 1121.08 144.037 Q1119.16 141.352 1115.78 141.352 Q1112.4 141.352 1110.46 144.037 Q1108.54 146.699 1108.54 151.398 Q1108.54 156.097 1110.46 158.782 Q1112.4 161.444 1115.78 161.444 Q1119.16 161.444 1121.08 158.782 Q1123.03 156.097 1123.03 151.398 Z" fill="#000000" fill-rule="nonzero" fill-opacity="1"></path><path clip-path="url(#clip390)" d="M1146.29 151.305 Q1141.13 151.305 1139.14 152.486 Q1137.15 153.666 1137.15 156.514 Q1137.15 158.782 1138.63 160.125 Q1140.13 161.444 1142.7 161.444 Q1146.24 161.444 1148.37 158.944 Q1150.53 156.421 1150.53 152.254 L1150.53 151.305 L1146.29 151.305 M1154.79 149.546 L1154.79 164.338 L1150.53 164.338 L1150.53 160.402 Q1149.07 162.763 1146.89 163.898 Q1144.72 165.009 1141.57 165.009 Q1137.59 165.009 1135.23 162.787 Q1132.89 160.541 1132.89 156.791 Q1132.89 152.416 1135.8 150.194 Q1138.74 147.972 1144.55 147.972 L1150.53 147.972 L1150.53 147.555 Q1150.53 144.615 1148.58 143.018 Q1146.66 141.398 1143.16 141.398 Q1140.94 141.398 1138.84 141.93 Q1136.73 142.463 1134.79 143.527 L1134.79 139.592 Q1137.12 138.69 1139.32 138.25 Q1141.52 137.787 1143.6 137.787 Q1149.23 137.787 1152.01 140.703 Q1154.79 143.62 1154.79 149.546 Z" fill="#000000" fill-rule="nonzero" fill-opacity="1"></path><polyline clip-path="url(#clip390)" style="stroke:#e26f46; stroke-linecap:round; stroke-linejoin:round; stroke-width:4; stroke-opacity:1; fill:none" points="237.35,198.898 384.937,198.898 "></polyline>
<path clip-path="url(#clip390)" d="M409.535 181.618 L438.771 181.618 L438.771 185.553 L426.502 185.553 L426.502 216.178 L421.803 216.178 L421.803 185.553 L409.535 185.553 L409.535 181.618 Z" fill="#000000" fill-rule="nonzero" fill-opacity="1"></path><path clip-path="url(#clip390)" d="M447.22 212.289 L447.22 226.039 L442.937 226.039 L442.937 190.252 L447.22 190.252 L447.22 194.187 Q448.562 191.872 450.599 190.761 Q452.659 189.627 455.507 189.627 Q460.229 189.627 463.169 193.377 Q466.131 197.127 466.131 203.238 Q466.131 209.349 463.169 213.099 Q460.229 216.849 455.507 216.849 Q452.659 216.849 450.599 215.738 Q448.562 214.603 447.22 212.289 M461.71 203.238 Q461.71 198.539 459.766 195.877 Q457.844 193.192 454.465 193.192 Q451.085 193.192 449.141 195.877 Q447.22 198.539 447.22 203.238 Q447.22 207.937 449.141 210.622 Q451.085 213.284 454.465 213.284 Q457.844 213.284 459.766 210.622 Q461.71 207.937 461.71 203.238 Z" fill="#000000" fill-rule="nonzero" fill-opacity="1"></path><path clip-path="url(#clip390)" d="M484.974 203.145 Q479.812 203.145 477.821 204.326 Q475.831 205.506 475.831 208.354 Q475.831 210.622 477.312 211.965 Q478.817 213.284 481.386 213.284 Q484.928 213.284 487.057 210.784 Q489.21 208.261 489.21 204.094 L489.21 203.145 L484.974 203.145 M493.469 201.386 L493.469 216.178 L489.21 216.178 L489.21 212.242 Q487.752 214.603 485.576 215.738 Q483.4 216.849 480.252 216.849 Q476.27 216.849 473.909 214.627 Q471.571 212.381 471.571 208.631 Q471.571 204.256 474.488 202.034 Q477.428 199.812 483.238 199.812 L489.21 199.812 L489.21 199.395 Q489.21 196.455 487.266 194.858 Q485.344 193.238 481.849 193.238 Q479.627 193.238 477.52 193.77 Q475.414 194.303 473.469 195.367 L473.469 191.432 Q475.807 190.53 478.006 190.09 Q480.205 189.627 482.289 189.627 Q487.914 189.627 490.692 192.543 Q493.469 195.46 493.469 201.386 Z" fill="#000000" fill-rule="nonzero" fill-opacity="1"></path><path clip-path="url(#clip390)" d="M524.418 202.15 L524.418 204.233 L504.835 204.233 Q505.113 208.631 507.474 210.946 Q509.858 213.238 514.094 213.238 Q516.548 213.238 518.84 212.636 Q521.154 212.034 523.423 210.83 L523.423 214.858 Q521.131 215.83 518.724 216.34 Q516.316 216.849 513.84 216.849 Q507.636 216.849 504.002 213.238 Q500.391 209.627 500.391 203.469 Q500.391 197.104 503.816 193.377 Q507.266 189.627 513.099 189.627 Q518.33 189.627 521.363 193.006 Q524.418 196.363 524.418 202.15 M520.159 200.9 Q520.113 197.405 518.191 195.321 Q516.293 193.238 513.145 193.238 Q509.58 193.238 507.428 195.252 Q505.298 197.266 504.974 200.923 L520.159 200.9 Z" fill="#000000" fill-rule="nonzero" fill-opacity="1"></path><path clip-path="url(#clip390)" d="M531.247 190.252 L535.483 190.252 L535.483 202.428 L547.497 190.252 L552.728 190.252 L542.821 200.275 L554.001 216.178 L549.233 216.178 L540.043 203.099 L535.483 207.729 L535.483 216.178 L531.247 216.178 L531.247 190.252 Z" fill="#000000" fill-rule="nonzero" fill-opacity="1"></path><path clip-path="url(#clip390)" d="M556.964 190.252 L581.802 190.252 L581.802 193.655 L571.478 193.655 L571.478 216.178 L567.288 216.178 L567.288 193.655 L556.964 193.655 L556.964 190.252 Z" fill="#000000" fill-rule="nonzero" fill-opacity="1"></path><path clip-path="url(#clip390)" d="M597.705 193.238 Q594.279 193.238 592.288 195.923 Q590.297 198.585 590.297 203.238 Q590.297 207.891 592.265 210.576 Q594.256 213.238 597.705 213.238 Q601.108 213.238 603.098 210.553 Q605.089 207.867 605.089 203.238 Q605.089 198.631 603.098 195.946 Q601.108 193.238 597.705 193.238 M597.705 189.627 Q603.26 189.627 606.432 193.238 Q609.603 196.849 609.603 203.238 Q609.603 209.604 606.432 213.238 Q603.26 216.849 597.705 216.849 Q592.126 216.849 588.955 213.238 Q585.807 209.604 585.807 203.238 Q585.807 196.849 588.955 193.238 Q592.126 189.627 597.705 189.627 Z" fill="#000000" fill-rule="nonzero" fill-opacity="1"></path><path clip-path="url(#clip390)" d="M620.783 212.289 L620.783 226.039 L616.501 226.039 L616.501 190.252 L620.783 190.252 L620.783 194.187 Q622.126 191.872 624.163 190.761 Q626.223 189.627 629.07 189.627 Q633.793 189.627 636.732 193.377 Q639.695 197.127 639.695 203.238 Q639.695 209.349 636.732 213.099 Q633.793 216.849 629.07 216.849 Q626.223 216.849 624.163 215.738 Q622.126 214.603 620.783 212.289 M635.274 203.238 Q635.274 198.539 633.33 195.877 Q631.408 193.192 628.029 193.192 Q624.649 193.192 622.705 195.877 Q620.783 198.539 620.783 203.238 Q620.783 207.937 622.705 210.622 Q624.649 213.284 628.029 213.284 Q631.408 213.284 633.33 210.622 Q635.274 207.937 635.274 203.238 Z" fill="#000000" fill-rule="nonzero" fill-opacity="1"></path><path clip-path="url(#clip390)" d="M668.792 190.252 L668.792 216.178 L664.556 216.178 L664.556 195.367 L652.056 216.178 L646.593 216.178 L646.593 190.252 L650.83 190.252 L650.83 211.016 L663.306 190.252 L668.792 190.252 Z" fill="#000000" fill-rule="nonzero" fill-opacity="1"></path><path clip-path="url(#clip390)" d="M681.848 197.729 Q681.848 199.65 683.329 200.738 Q684.811 201.826 687.565 201.826 L693.306 201.826 L693.306 193.655 L687.565 193.655 Q684.811 193.655 683.329 194.719 Q681.848 195.784 681.848 197.729 M675.783 216.178 L683.7 204.812 Q681.015 204.21 679.232 202.636 Q677.45 201.039 677.45 197.729 Q677.45 193.979 679.927 192.127 Q682.427 190.252 687.45 190.252 L697.589 190.252 L697.589 216.178 L693.306 216.178 L693.306 205.229 L688.005 205.229 L680.366 216.178 L675.783 216.178 Z" fill="#000000" fill-rule="nonzero" fill-opacity="1"></path><path clip-path="url(#clip390)" d="M726.94 212.775 L739.301 212.775 L739.301 193.655 L730.343 193.655 L730.343 196.895 Q730.343 206.432 727.612 211.525 L726.94 212.775 M720.76 212.775 Q722.866 211.849 723.792 209.881 Q726.061 204.997 726.061 195.159 L726.061 190.252 L743.584 190.252 L743.584 212.775 L746.986 212.775 L746.986 222.728 L743.584 222.728 L743.584 216.178 L722.565 216.178 L722.565 222.728 L719.163 222.728 L719.163 212.775 L720.76 212.775 Z" fill="#000000" fill-rule="nonzero" fill-opacity="1"></path><path clip-path="url(#clip390)" d="M758.028 204.233 L758.028 212.775 L764.093 212.775 Q767.01 212.775 768.537 211.687 Q770.065 210.576 770.065 208.492 Q770.065 206.409 768.537 205.321 Q767.01 204.233 764.093 204.233 L758.028 204.233 M758.028 193.655 L758.028 200.83 L763.63 200.83 Q766.037 200.83 767.565 199.881 Q769.093 198.909 769.093 197.196 Q769.093 195.483 767.565 194.58 Q766.037 193.655 763.63 193.655 L758.028 193.655 M753.769 190.252 L763.908 190.252 Q768.468 190.252 770.922 191.918 Q773.375 193.585 773.375 196.664 Q773.375 199.048 772.125 200.46 Q770.875 201.849 768.422 202.196 Q771.361 202.752 772.982 204.511 Q774.602 206.27 774.602 208.909 Q774.602 212.381 771.917 214.279 Q769.255 216.178 764.301 216.178 L753.769 216.178 L753.769 190.252 Z" fill="#000000" fill-rule="nonzero" fill-opacity="1"></path><path clip-path="url(#clip390)" d="M803.907 190.252 L803.907 216.178 L799.671 216.178 L799.671 195.367 L787.171 216.178 L781.708 216.178 L781.708 190.252 L785.945 190.252 L785.945 211.016 L798.421 190.252 L803.907 190.252 Z" fill="#000000" fill-rule="nonzero" fill-opacity="1"></path><path clip-path="url(#clip390)" d="M827.449 190.252 L831.685 190.252 L831.685 202.428 L843.004 190.252 L847.958 190.252 L838.653 200.229 L849.301 216.178 L844.741 216.178 L836.014 203.076 L831.685 207.729 L831.685 216.178 L827.449 216.178 L827.449 207.729 L823.12 203.076 L814.394 216.178 L809.833 216.178 L820.481 200.229 L811.176 190.252 L816.13 190.252 L827.449 202.428 L827.449 190.252 Z" fill="#000000" fill-rule="nonzero" fill-opacity="1"></path><path clip-path="url(#clip390)" d="M877.564 202.15 L877.564 204.233 L857.981 204.233 Q858.259 208.631 860.62 210.946 Q863.004 213.238 867.24 213.238 Q869.694 213.238 871.986 212.636 Q874.301 212.034 876.569 210.83 L876.569 214.858 Q874.277 215.83 871.87 216.34 Q869.463 216.849 866.986 216.849 Q860.782 216.849 857.148 213.238 Q853.537 209.627 853.537 203.469 Q853.537 197.104 856.963 193.377 Q860.412 189.627 866.245 189.627 Q871.477 189.627 874.509 193.006 Q877.564 196.363 877.564 202.15 M873.305 200.9 Q873.259 197.405 871.338 195.321 Q869.44 193.238 866.291 193.238 Q862.727 193.238 860.574 195.252 Q858.444 197.266 858.12 200.923 L873.305 200.9 Z" fill="#000000" fill-rule="nonzero" fill-opacity="1"></path><path clip-path="url(#clip390)" d="M884.393 190.252 L888.676 190.252 L888.676 200.83 L902.495 200.83 L902.495 190.252 L906.777 190.252 L906.777 216.178 L902.495 216.178 L902.495 204.233 L888.676 204.233 L888.676 216.178 L884.393 216.178 L884.393 190.252 Z" fill="#000000" fill-rule="nonzero" fill-opacity="1"></path><path clip-path="url(#clip390)" d="M937.587 190.252 L937.587 216.178 L933.351 216.178 L933.351 195.367 L920.851 216.178 L915.388 216.178 L915.388 190.252 L919.624 190.252 L919.624 211.016 L932.101 190.252 L937.587 190.252 Z" fill="#000000" fill-rule="nonzero" fill-opacity="1"></path><path clip-path="url(#clip390)" d="M950.643 197.729 Q950.643 199.65 952.124 200.738 Q953.606 201.826 956.36 201.826 L962.101 201.826 L962.101 193.655 L956.36 193.655 Q953.606 193.655 952.124 194.719 Q950.643 195.784 950.643 197.729 M944.578 216.178 L952.495 204.812 Q949.809 204.21 948.027 202.636 Q946.245 201.039 946.245 197.729 Q946.245 193.979 948.721 192.127 Q951.221 190.252 956.245 190.252 L966.383 190.252 L966.383 216.178 L962.101 216.178 L962.101 205.229 L956.8 205.229 L949.161 216.178 L944.578 216.178 Z" fill="#000000" fill-rule="nonzero" fill-opacity="1"></path><path clip-path="url(#clip390)" d="M987.24 216.178 L987.24 212.636 Q991.453 211.988 992.749 209.071 Q994.323 204.974 994.323 194.488 L994.323 190.252 L1011.85 190.252 L1011.85 216.178 L1007.59 216.178 L1007.59 193.655 L998.582 193.655 L998.582 196.224 Q998.582 206.224 996.545 210.715 Q994.369 215.506 987.24 216.178 Z" fill="#000000" fill-rule="nonzero" fill-opacity="1"></path><path clip-path="url(#clip390)" d="M1030.3 193.238 Q1026.87 193.238 1024.88 195.923 Q1022.89 198.585 1022.89 203.238 Q1022.89 207.891 1024.86 210.576 Q1026.85 213.238 1030.3 213.238 Q1033.7 213.238 1035.69 210.553 Q1037.68 207.867 1037.68 203.238 Q1037.68 198.631 1035.69 195.946 Q1033.7 193.238 1030.3 193.238 M1030.3 189.627 Q1035.85 189.627 1039.02 193.238 Q1042.19 196.849 1042.19 203.238 Q1042.19 209.604 1039.02 213.238 Q1035.85 216.849 1030.3 216.849 Q1024.72 216.849 1021.55 213.238 Q1018.4 209.604 1018.4 203.238 Q1018.4 196.849 1021.55 193.238 Q1024.72 189.627 1030.3 189.627 Z" fill="#000000" fill-rule="nonzero" fill-opacity="1"></path><path clip-path="url(#clip390)" d="M1055.04 212.775 L1067.4 212.775 L1067.4 193.655 L1058.44 193.655 L1058.44 196.895 Q1058.44 206.432 1055.71 211.525 L1055.04 212.775 M1048.86 212.775 Q1050.97 211.849 1051.89 209.881 Q1054.16 204.997 1054.16 195.159 L1054.16 190.252 L1071.68 190.252 L1071.68 212.775 L1075.09 212.775 L1075.09 222.728 L1071.68 222.728 L1071.68 216.178 L1050.67 216.178 L1050.67 222.728 L1047.26 222.728 L1047.26 212.775 L1048.86 212.775 Z" fill="#000000" fill-rule="nonzero" fill-opacity="1"></path><path clip-path="url(#clip390)" d="M1081.87 190.252 L1086.11 190.252 L1086.11 202.428 L1098.12 190.252 L1103.35 190.252 L1093.44 200.275 L1104.62 216.178 L1099.85 216.178 L1090.67 203.099 L1086.11 207.729 L1086.11 216.178 L1081.87 216.178 L1081.87 190.252 Z" fill="#000000" fill-rule="nonzero" fill-opacity="1"></path><path clip-path="url(#clip390)" d="M1132.7 190.252 L1132.7 216.178 L1128.47 216.178 L1128.47 195.367 L1115.97 216.178 L1110.5 216.178 L1110.5 190.252 L1114.74 190.252 L1114.74 211.016 L1127.22 190.252 L1132.7 190.252 Z" fill="#000000" fill-rule="nonzero" fill-opacity="1"></path></svg>