<svg xmlns="http://www.w3.org/2000/svg" xmlns:xlink="http://www.w3.org/1999/xlink" width="600" height="400" viewBox="0 0 2400 1600">
<defs>
  <clipPath id="clip310">
    <rect x="0" y="0" width="2400" height="1600"></rect>
  </clipPath>
</defs>
<path clip-path="url(#clip310)" d="M0 1600 L2400 1600 L2400 8.88178e-14 L0 8.88178e-14  Z" fill="#ffffff" fill-rule="evenodd" fill-opacity="1"></path>
<defs>
  <clipPath id="clip311">
    <rect x="480" y="0" width="1681" height="1600"></rect>
  </clipPath>
</defs>
<path clip-path="url(#clip310)" d="M138.959 1486.45 L2352.76 1486.45 L2352.76 47.2441 L138.959 47.2441  Z" fill="#ffffff" fill-rule="evenodd" fill-opacity="1"></path>
<defs>
  <clipPath id="clip312">
    <rect x="138" y="47" width="2215" height="1440"></rect>
  </clipPath>
</defs>
<defs>
  <clipPath id="clip313">
    <rect x="581" y="157" width="1330" height="1330"></rect>
  </clipPath>
</defs>
<polyline clip-path="url(#clip313)" style="stroke:#000000; stroke-linecap:round; stroke-linejoin:round; stroke-width:2; stroke-opacity:0.1; fill:none" points="1910.11,822.191 1245.86,822.191 "></polyline>
<polyline clip-path="url(#clip313)" style="stroke:#000000; stroke-linecap:round; stroke-linejoin:round; stroke-width:2; stroke-opacity:0.1; fill:none" points="1715.56,1291.89 1245.86,822.191 "></polyline>
<polyline clip-path="url(#clip313)" style="stroke:#000000; stroke-linecap:round; stroke-linejoin:round; stroke-width:2; stroke-opacity:0.1; fill:none" points="1245.86,1486.45 1245.86,822.191 "></polyline>
<polyline clip-path="url(#clip313)" style="stroke:#000000; stroke-linecap:round; stroke-linejoin:round; stroke-width:2; stroke-opacity:0.1; fill:none" points="776.157,1291.89 1245.86,822.191 "></polyline>
<polyline clip-path="url(#clip313)" style="stroke:#000000; stroke-linecap:round; stroke-linejoin:round; stroke-width:2; stroke-opacity:0.1; fill:none" points="581.601,822.191 1245.86,822.191 "></polyline>
<polyline clip-path="url(#clip313)" style="stroke:#000000; stroke-linecap:round; stroke-linejoin:round; stroke-width:2; stroke-opacity:0.1; fill:none" points="776.157,352.49 1245.86,822.191 "></polyline>
<polyline clip-path="url(#clip313)" style="stroke:#000000; stroke-linecap:round; stroke-linejoin:round; stroke-width:2; stroke-opacity:0.1; fill:none" points="1245.86,157.934 1245.86,822.191 "></polyline>
<polyline clip-path="url(#clip313)" style="stroke:#000000; stroke-linecap:round; stroke-linejoin:round; stroke-width:2; stroke-opacity:0.1; fill:none" points="1715.56,352.49 1245.86,822.191 "></polyline>
<polyline clip-path="url(#clip313)" style="stroke:#000000; stroke-linecap:round; stroke-linejoin:round; stroke-width:2; stroke-opacity:0.1; fill:none" points="1245.86,822.191 1245.86,822.191 "></polyline>
<polyline clip-path="url(#clip313)" style="stroke:#000000; stroke-linecap:round; stroke-linejoin:round; stroke-width:2; stroke-opacity:0.1; fill:none" points="1467.28,822.191 1467.24,818.327 1467.14,814.463 1466.97,810.603 1466.74,806.745 1466.43,802.893 1466.06,799.046 1465.63,795.207 1465.12,791.375 1464.55,787.553 1463.91,783.742 1463.21,779.942 1462.44,776.155 1461.6,772.382 1460.7,768.625 1459.73,764.883 1458.7,761.16 1457.6,757.454 1456.44,753.769 1455.21,750.104 1453.92,746.461 1452.57,742.841 1451.15,739.246 1449.67,735.676 1448.13,732.132 1446.53,728.615 1444.87,725.127 1443.14,721.669 1441.36,718.241 1439.52,714.845 1437.61,711.481 1435.65,708.152 1433.63,704.857 1431.56,701.597 1429.42,698.375 1427.23,695.19 1424.99,692.044 1422.69,688.938 1420.34,685.872 1417.93,682.847 1415.47,679.866 1412.96,676.927 1410.4,674.033 1407.79,671.184 1405.13,668.38 1402.42,665.624 1399.67,662.915 1396.87,660.255 1394.02,657.645 1391.12,655.084 1388.18,652.574 1385.2,650.116 1382.18,647.71 1379.11,645.358 1376,643.059 1372.86,640.815 1369.67,638.626 1366.45,636.493 1363.19,634.417 1359.9,632.398 1356.57,630.436 1353.2,628.533 1349.81,626.69 1346.38,624.905 1342.92,623.181 1339.43,621.517 1335.92,619.915 1332.37,618.374 1328.8,616.895 1325.21,615.478 1321.59,614.125 1317.94,612.835 1314.28,611.609 1310.59,610.447 1306.89,609.349 1303.17,608.317 1299.42,607.349 1295.67,606.447 1291.89,605.61 1288.11,604.84 1284.31,604.136 1280.5,603.498 1276.67,602.927 1272.84,602.422 1269,601.985 1265.16,601.614 1261.3,601.311 1257.45,601.075 1253.59,600.907 1249.72,600.806 1245.86,600.772 1241.99,600.806 1238.13,600.907 1234.27,601.075 1230.41,601.311 1226.56,601.614 1222.71,601.985 1218.87,602.422 1215.04,602.927 1211.22,603.498 1207.41,604.136 1203.61,604.84 1199.82,605.61 1196.05,606.447 1192.29,607.349 1188.55,608.317 1184.83,609.349 1181.12,610.447 1177.44,611.609 1173.77,612.835 1170.13,614.125 1166.51,615.478 1162.91,616.895 1159.34,618.374 1155.8,619.915 1152.28,621.517 1148.79,623.181 1145.34,624.905 1141.91,626.69 1138.51,628.533 1135.15,630.436 1131.82,632.398 1128.52,634.417 1125.26,636.493 1122.04,638.626 1118.86,640.815 1115.71,643.059 1112.6,645.358 1109.54,647.71 1106.51,650.116 1103.53,652.574 1100.59,655.084 1097.7,657.645 1094.85,660.255 1092.05,662.915 1089.29,665.624 1086.58,668.38 1083.92,671.184 1081.31,674.033 1078.75,676.927 1076.24,679.866 1073.78,682.847 1071.38,685.872 1069.02,688.938 1066.73,692.044 1064.48,695.19 1062.29,698.375 1060.16,701.597 1058.08,704.857 1056.06,708.152 1054.1,711.481 1052.2,714.845 1050.36,718.241 1048.57,721.669 1046.85,725.127 1045.18,728.615 1043.58,732.132 1042.04,735.676 1040.56,739.246 1039.15,742.841 1037.79,746.461 1036.5,750.104 1035.28,753.769 1034.11,757.454 1033.02,761.16 1031.98,764.883 1031.02,768.625 1030.11,772.382 1029.28,776.155 1028.51,779.942 1027.8,783.742 1027.16,787.553 1026.59,791.375 1026.09,795.207 1025.65,799.046 1025.28,802.893 1024.98,806.745 1024.74,810.603 1024.57,814.463 1024.47,818.327 1024.44,822.191 1024.47,826.055 1024.57,829.918 1024.74,833.779 1024.98,837.636 1025.28,841.489 1025.65,845.335 1026.09,849.175 1026.59,853.006 1027.16,856.828 1027.8,860.64 1028.51,864.44 1029.28,868.226 1030.11,871.999 1031.02,875.757 1031.98,879.498 1033.02,883.222 1034.11,886.928 1035.28,890.613 1036.5,894.278 1037.79,897.921 1039.15,901.54 1040.56,905.136 1042.04,908.706 1043.58,912.25 1045.18,915.767 1046.85,919.255 1048.57,922.713 1050.36,926.141 1052.2,929.537 1054.1,932.9 1056.06,936.23 1058.08,939.525 1060.16,942.784 1062.29,946.007 1064.48,949.192 1066.73,952.338 1069.02,955.444 1071.38,958.51 1073.78,961.534 1076.24,964.516 1078.75,967.455 1081.31,970.349 1083.92,973.198 1086.58,976.001 1089.29,978.758 1092.05,981.466 1094.85,984.126 1097.7,986.737 1100.59,989.298 1103.53,991.808 1106.51,994.266 1109.54,996.671 1112.6,999.024 1115.71,1001.32 1118.86,1003.57 1122.04,1005.76 1125.26,1007.89 1128.52,1009.96 1131.82,1011.98 1135.15,1013.95 1138.51,1015.85 1141.91,1017.69 1145.34,1019.48 1148.79,1021.2 1152.28,1022.86 1155.8,1024.47 1159.34,1026.01 1162.91,1027.49 1166.51,1028.9 1170.13,1030.26 1173.77,1031.55 1177.44,1032.77 1181.12,1033.93 1184.83,1035.03 1188.55,1036.07 1192.29,1037.03 1196.05,1037.93 1199.82,1038.77 1203.61,1039.54 1207.41,1040.25 1211.22,1040.88 1215.04,1041.46 1218.87,1041.96 1222.71,1042.4 1226.56,1042.77 1230.41,1043.07 1234.27,1043.31 1238.13,1043.48 1241.99,1043.58 1245.86,1043.61 1249.72,1043.58 1253.59,1043.48 1257.45,1043.31 1261.3,1043.07 1265.16,1042.77 1269,1042.4 1272.84,1041.96 1276.67,1041.46 1280.5,1040.88 1284.31,1040.25 1288.11,1039.54 1291.89,1038.77 1295.67,1037.93 1299.42,1037.03 1303.17,1036.07 1306.89,1035.03 1310.59,1033.93 1314.28,1032.77 1317.94,1031.55 1321.59,1030.26 1325.21,1028.9 1328.8,1027.49 1332.37,1026.01 1335.92,1024.47 1339.43,1022.86 1342.92,1021.2 1346.38,1019.48 1349.81,1017.69 1353.2,1015.85 1356.57,1013.95 1359.9,1011.98 1363.19,1009.96 1366.45,1007.89 1369.67,1005.76 1372.86,1003.57 1376,1001.32 1379.11,999.024 1382.18,996.671 1385.2,994.266 1388.18,991.808 1391.12,989.298 1394.02,986.737 1396.87,984.126 1399.67,981.466 1402.42,978.758 1405.13,976.001 1407.79,973.198 1410.4,970.349 1412.96,967.455 1415.47,964.516 1417.93,961.534 1420.34,958.51 1422.69,955.444 1424.99,952.338 1427.23,949.192 1429.42,946.007 1431.56,942.784 1433.63,939.525 1435.65,936.23 1437.61,932.9 1439.52,929.537 1441.36,926.141 1443.14,922.713 1444.87,919.255 1446.53,915.767 1448.13,912.25 1449.67,908.706 1451.15,905.136 1452.57,901.54 1453.92,897.921 1455.21,894.278 1456.44,890.613 1457.6,886.928 1458.7,883.222 1459.73,879.498 1460.7,875.757 1461.6,871.999 1462.44,868.226 1463.21,864.44 1463.91,860.64 1464.55,856.828 1465.12,853.006 1465.63,849.175 1466.06,845.335 1466.43,841.489 1466.74,837.636 1466.97,833.779 1467.14,829.918 1467.24,826.055 "></polyline>
<polyline clip-path="url(#clip313)" style="stroke:#000000; stroke-linecap:round; stroke-linejoin:round; stroke-width:2; stroke-opacity:0.1; fill:none" points="1688.7,822.191 1688.63,814.462 1688.43,806.736 1688.09,799.015 1687.62,791.3 1687.01,783.595 1686.27,775.902 1685.39,768.223 1684.39,760.56 1683.24,752.916 1681.97,745.293 1680.56,737.693 1679.02,730.12 1677.35,722.574 1675.54,715.059 1673.61,707.576 1671.54,700.128 1669.35,692.718 1667.02,685.346 1664.57,678.017 1661.99,670.731 1659.28,663.492 1656.45,656.301 1653.49,649.16 1650.41,642.072 1647.21,635.039 1643.88,628.064 1640.43,621.147 1636.86,614.291 1633.17,607.499 1629.37,600.772 1625.44,594.112 1621.41,587.523 1617.25,581.004 1612.99,574.559 1608.61,568.189 1604.12,561.897 1599.52,555.684 1594.82,549.553 1590.01,543.504 1585.09,537.54 1580.07,531.663 1574.95,525.874 1569.73,520.176 1564.41,514.57 1558.99,509.057 1553.48,503.64 1547.87,498.32 1542.17,493.098 1536.39,487.977 1530.51,482.957 1524.54,478.041 1518.5,473.23 1512.36,468.525 1506.15,463.927 1499.86,459.439 1493.49,455.062 1487.04,450.796 1480.53,446.643 1473.94,442.605 1467.28,438.682 1460.55,434.876 1453.76,431.188 1446.9,427.619 1439.99,424.171 1433.01,420.843 1425.98,417.638 1418.89,414.556 1411.75,411.599 1404.56,408.766 1397.32,406.059 1390.03,403.479 1382.7,401.027 1375.33,398.703 1367.92,396.508 1360.47,394.442 1352.99,392.507 1345.47,390.703 1337.93,389.03 1330.36,387.489 1322.76,386.081 1315.13,384.805 1307.49,383.663 1299.83,382.654 1292.15,381.779 1284.45,381.038 1276.75,380.432 1269.03,379.96 1261.31,379.623 1253.59,379.42 1245.86,379.353 1238.13,379.42 1230.4,379.623 1222.68,379.96 1214.97,380.432 1207.26,381.038 1199.57,381.779 1191.89,382.654 1184.23,383.663 1176.58,384.805 1168.96,386.081 1161.36,387.489 1153.79,389.03 1146.24,390.703 1138.73,392.507 1131.24,394.442 1123.79,396.508 1116.38,398.703 1109.01,401.027 1101.68,403.479 1094.4,406.059 1087.16,408.766 1079.97,411.599 1072.83,414.556 1065.74,417.638 1058.71,420.843 1051.73,424.171 1044.81,427.619 1037.96,431.188 1031.17,434.876 1024.44,438.682 1017.78,442.605 1011.19,446.643 1004.67,450.796 998.226,455.062 991.856,459.439 985.564,463.927 979.351,468.525 973.219,473.23 967.171,478.041 961.207,482.957 955.33,487.977 949.541,493.098 943.843,498.32 938.237,503.64 932.724,509.057 927.307,514.57 921.986,520.176 916.765,525.874 911.644,531.663 906.624,537.54 901.708,543.504 896.897,549.553 892.192,555.684 887.594,561.897 883.106,568.189 878.728,574.559 874.462,581.004 870.31,587.523 866.271,594.112 862.349,600.772 858.543,607.499 854.855,614.291 851.286,621.147 847.838,628.064 844.51,635.039 841.305,642.072 838.223,649.16 835.265,656.301 832.433,663.492 829.726,670.731 827.146,678.017 824.694,685.346 822.37,692.718 820.174,700.128 818.109,707.576 816.174,715.059 814.37,722.574 812.697,730.12 811.156,737.693 809.747,745.293 808.472,752.916 807.329,760.56 806.321,768.223 805.446,775.902 804.705,783.595 804.098,791.3 803.627,799.015 803.289,806.736 803.087,814.462 803.02,822.191 803.087,829.919 803.289,837.646 803.627,845.367 804.098,853.082 804.705,860.787 805.446,868.48 806.321,876.159 807.329,883.822 808.472,891.466 809.747,899.089 811.156,906.688 812.697,914.262 814.37,921.808 816.174,929.323 818.109,936.806 820.174,944.254 822.37,951.664 824.694,959.035 827.146,966.365 829.726,973.65 832.433,980.89 835.265,988.081 838.223,995.221 841.305,1002.31 844.51,1009.34 847.838,1016.32 851.286,1023.24 854.855,1030.09 858.543,1036.88 862.349,1043.61 866.271,1050.27 870.31,1056.86 874.462,1063.38 878.728,1069.82 883.106,1076.19 887.594,1082.48 892.192,1088.7 896.897,1094.83 901.708,1100.88 906.624,1106.84 911.644,1112.72 916.765,1118.51 921.986,1124.21 927.307,1129.81 932.724,1135.32 938.237,1140.74 943.843,1146.06 949.541,1151.28 955.33,1156.4 961.207,1161.42 967.171,1166.34 973.219,1171.15 979.351,1175.86 985.564,1180.45 991.856,1184.94 998.226,1189.32 1004.67,1193.59 1011.19,1197.74 1017.78,1201.78 1024.44,1205.7 1031.17,1209.51 1037.96,1213.19 1044.81,1216.76 1051.73,1220.21 1058.71,1223.54 1065.74,1226.74 1072.83,1229.83 1079.97,1232.78 1087.16,1235.62 1094.4,1238.32 1101.68,1240.9 1109.01,1243.35 1116.38,1245.68 1123.79,1247.87 1131.24,1249.94 1138.73,1251.87 1146.24,1253.68 1153.79,1255.35 1161.36,1256.89 1168.96,1258.3 1176.58,1259.58 1184.23,1260.72 1191.89,1261.73 1199.57,1262.6 1207.26,1263.34 1214.97,1263.95 1222.68,1264.42 1230.4,1264.76 1238.13,1264.96 1245.86,1265.03 1253.59,1264.96 1261.31,1264.76 1269.03,1264.42 1276.75,1263.95 1284.45,1263.34 1292.15,1262.6 1299.83,1261.73 1307.49,1260.72 1315.13,1259.58 1322.76,1258.3 1330.36,1256.89 1337.93,1255.35 1345.47,1253.68 1352.99,1251.87 1360.47,1249.94 1367.92,1247.87 1375.33,1245.68 1382.7,1243.35 1390.03,1240.9 1397.32,1238.32 1404.56,1235.62 1411.75,1232.78 1418.89,1229.83 1425.98,1226.74 1433.01,1223.54 1439.99,1220.21 1446.9,1216.76 1453.76,1213.19 1460.55,1209.51 1467.28,1205.7 1473.94,1201.78 1480.53,1197.74 1487.04,1193.59 1493.49,1189.32 1499.86,1184.94 1506.15,1180.45 1512.36,1175.86 1518.5,1171.15 1524.54,1166.34 1530.51,1161.42 1536.39,1156.4 1542.17,1151.28 1547.87,1146.06 1553.48,1140.74 1558.99,1135.32 1564.41,1129.81 1569.73,1124.21 1574.95,1118.51 1580.07,1112.72 1585.09,1106.84 1590.01,1100.88 1594.82,1094.83 1599.52,1088.7 1604.12,1082.48 1608.61,1076.19 1612.99,1069.82 1617.25,1063.38 1621.41,1056.86 1625.44,1050.27 1629.37,1043.61 1633.17,1036.88 1636.86,1030.09 1640.43,1023.24 1643.88,1016.32 1647.21,1009.34 1650.41,1002.31 1653.49,995.221 1656.45,988.081 1659.28,980.89 1661.99,973.65 1664.57,966.365 1667.02,959.035 1669.35,951.664 1671.54,944.254 1673.61,936.806 1675.54,929.323 1677.35,921.808 1679.02,914.262 1680.56,906.688 1681.97,899.089 1683.24,891.466 1684.39,883.822 1685.39,876.159 1686.27,868.48 1687.01,860.787 1687.62,853.082 1688.09,845.367 1688.43,837.646 1688.63,829.919 "></polyline>
<polyline clip-path="url(#clip313)" style="stroke:#000000; stroke-linecap:round; stroke-linejoin:round; stroke-width:2; stroke-opacity:0.1; fill:none" points="1910.11,822.191 1910.01,810.598 1909.71,799.009 1909.2,787.426 1908.5,775.855 1907.59,764.297 1906.48,752.757 1905.16,741.238 1903.65,729.744 1901.94,718.278 1900.02,706.844 1897.91,695.445 1895.6,684.084 1893.09,672.766 1890.38,661.493 1887.48,650.269 1884.38,639.097 1881.09,627.981 1877.6,616.924 1873.92,605.93 1870.06,595.002 1865.99,584.142 1861.75,573.356 1857.31,562.645 1852.69,552.013 1847.88,541.464 1842.89,531 1837.71,520.625 1832.36,510.341 1826.83,500.153 1821.12,490.062 1815.24,480.073 1809.18,470.188 1802.95,460.411 1796.55,450.743 1789.99,441.189 1783.25,431.75 1776.36,422.431 1769.3,413.233 1762.08,404.16 1754.71,395.215 1747.18,386.399 1739.5,377.716 1731.66,369.169 1723.68,360.759 1715.56,352.49 1707.29,344.364 1698.88,336.384 1690.33,328.552 1681.65,320.87 1672.83,313.341 1663.89,305.966 1654.82,298.749 1645.62,291.692 1636.3,284.796 1626.86,278.063 1617.31,271.497 1607.64,265.098 1597.86,258.869 1587.98,252.812 1577.99,246.927 1567.9,241.219 1557.71,235.687 1547.42,230.334 1537.05,225.161 1526.58,220.17 1516.04,215.362 1505.4,210.739 1494.69,206.303 1483.91,202.054 1473.05,197.994 1462.12,194.124 1451.12,190.445 1440.07,186.959 1428.95,183.666 1417.78,180.568 1406.56,177.665 1395.28,174.959 1383.96,172.45 1372.6,170.138 1361.2,168.025 1349.77,166.112 1338.3,164.398 1326.81,162.885 1315.29,161.573 1303.75,160.462 1292.19,159.552 1280.62,158.844 1269.04,158.339 1257.45,158.035 1245.86,157.934 1234.26,158.035 1222.68,158.339 1211.09,158.844 1199.52,159.552 1187.96,160.462 1176.42,161.573 1164.91,162.885 1153.41,164.398 1141.94,166.112 1130.51,168.025 1119.11,170.138 1107.75,172.45 1096.43,174.959 1085.16,177.665 1073.94,180.568 1062.76,183.666 1051.65,186.959 1040.59,190.445 1029.6,194.124 1018.67,197.994 1007.81,202.054 997.023,206.303 986.312,210.739 975.68,215.362 965.131,220.17 954.667,225.161 944.291,230.334 934.008,235.687 923.819,241.219 913.729,246.927 903.74,252.812 893.855,258.869 884.077,265.098 874.41,271.497 864.856,278.063 855.417,284.796 846.098,291.692 836.9,298.749 827.827,305.966 818.882,313.341 810.066,320.87 801.383,328.552 792.836,336.384 784.426,344.364 776.157,352.49 768.031,360.759 760.051,369.169 752.219,377.716 744.537,386.399 737.007,395.215 729.633,404.16 722.416,413.233 715.358,422.431 708.462,431.75 701.73,441.189 695.164,450.743 688.765,460.411 682.536,470.188 676.478,480.073 670.594,490.062 664.885,500.153 659.354,510.341 654,520.625 648.827,531 643.836,541.464 639.029,552.013 634.406,562.645 629.969,573.356 625.72,584.142 621.66,595.002 617.79,605.93 614.112,616.924 610.626,627.981 607.333,639.097 604.235,650.269 601.332,661.493 598.626,672.766 596.116,684.084 593.805,695.445 591.692,706.844 589.779,718.278 588.065,729.744 586.552,741.238 585.24,752.757 584.128,764.297 583.219,775.855 582.511,787.426 582.005,799.009 581.702,810.598 581.601,822.191 581.702,833.784 582.005,845.373 582.511,856.955 583.219,868.527 584.128,880.085 585.24,891.625 586.552,903.143 588.065,914.638 589.779,926.104 591.692,937.538 593.805,948.937 596.116,960.298 598.626,971.616 601.332,982.889 604.235,994.113 607.333,1005.28 610.626,1016.4 614.112,1027.46 617.79,1038.45 621.66,1049.38 625.72,1060.24 629.969,1071.03 634.406,1081.74 639.029,1092.37 643.836,1102.92 648.827,1113.38 654,1123.76 659.354,1134.04 664.885,1144.23 670.594,1154.32 676.478,1164.31 682.536,1174.19 688.765,1183.97 695.164,1193.64 701.73,1203.19 708.462,1212.63 715.358,1221.95 722.416,1231.15 729.633,1240.22 737.007,1249.17 744.537,1257.98 752.219,1266.67 760.051,1275.21 768.031,1283.62 776.157,1291.89 784.426,1300.02 792.836,1308 801.383,1315.83 810.066,1323.51 818.882,1331.04 827.827,1338.42 836.9,1345.63 846.098,1352.69 855.417,1359.59 864.856,1366.32 874.41,1372.88 884.077,1379.28 893.855,1385.51 903.74,1391.57 913.729,1397.45 923.819,1403.16 934.008,1408.69 944.291,1414.05 954.667,1419.22 965.131,1424.21 975.68,1429.02 986.312,1433.64 997.023,1438.08 1007.81,1442.33 1018.67,1446.39 1029.6,1450.26 1040.59,1453.94 1051.65,1457.42 1062.76,1460.72 1073.94,1463.81 1085.16,1466.72 1096.43,1469.42 1107.75,1471.93 1119.11,1474.24 1130.51,1476.36 1141.94,1478.27 1153.41,1479.98 1164.91,1481.5 1176.42,1482.81 1187.96,1483.92 1199.52,1484.83 1211.09,1485.54 1222.68,1486.04 1234.26,1486.35 1245.86,1486.45 1257.45,1486.35 1269.04,1486.04 1280.62,1485.54 1292.19,1484.83 1303.75,1483.92 1315.29,1482.81 1326.81,1481.5 1338.3,1479.98 1349.77,1478.27 1361.2,1476.36 1372.6,1474.24 1383.96,1471.93 1395.28,1469.42 1406.56,1466.72 1417.78,1463.81 1428.95,1460.72 1440.07,1457.42 1451.12,1453.94 1462.12,1450.26 1473.05,1446.39 1483.91,1442.33 1494.69,1438.08 1505.4,1433.64 1516.04,1429.02 1526.58,1424.21 1537.05,1419.22 1547.42,1414.05 1557.71,1408.69 1567.9,1403.16 1577.99,1397.45 1587.98,1391.57 1597.86,1385.51 1607.64,1379.28 1617.31,1372.88 1626.86,1366.32 1636.3,1359.59 1645.62,1352.69 1654.82,1345.63 1663.89,1338.42 1672.83,1331.04 1681.65,1323.51 1690.33,1315.83 1698.88,1308 1707.29,1300.02 1715.56,1291.89 1723.68,1283.62 1731.66,1275.21 1739.5,1266.67 1747.18,1257.98 1754.71,1249.17 1762.08,1240.22 1769.3,1231.15 1776.36,1221.95 1783.25,1212.63 1789.99,1203.19 1796.55,1193.64 1802.95,1183.97 1809.18,1174.19 1815.24,1164.31 1821.12,1154.32 1826.83,1144.23 1832.36,1134.04 1837.71,1123.76 1842.89,1113.38 1847.88,1102.92 1852.69,1092.37 1857.31,1081.74 1861.75,1071.03 1865.99,1060.24 1870.06,1049.38 1873.92,1038.45 1877.6,1027.46 1881.09,1016.4 1884.38,1005.28 1887.48,994.113 1890.38,982.889 1893.09,971.616 1895.6,960.298 1897.91,948.937 1900.02,937.538 1901.94,926.104 1903.65,914.638 1905.16,903.143 1906.48,891.625 1907.59,880.085 1908.5,868.527 1909.2,856.955 1909.71,845.373 1910.01,833.784 "></polyline>
<polyline clip-path="url(#clip313)" style="stroke:#000000; stroke-linecap:round; stroke-linejoin:round; stroke-width:2; stroke-opacity:0.1; fill:none" points="1910.11,822.191 1910.01,810.598 1909.71,799.009 1909.2,787.426 1908.5,775.855 1907.59,764.297 1906.48,752.757 1905.16,741.238 1903.65,729.744 1901.94,718.278 1900.02,706.844 1897.91,695.445 1895.6,684.084 1893.09,672.766 1890.38,661.493 1887.48,650.269 1884.38,639.097 1881.09,627.981 1877.6,616.924 1873.92,605.93 1870.06,595.002 1865.99,584.142 1861.75,573.356 1857.31,562.645 1852.69,552.013 1847.88,541.464 1842.89,531 1837.71,520.625 1832.36,510.341 1826.83,500.153 1821.12,490.062 1815.24,480.073 1809.18,470.188 1802.95,460.411 1796.55,450.743 1789.99,441.189 1783.25,431.75 1776.36,422.431 1769.3,413.233 1762.08,404.16 1754.71,395.215 1747.18,386.399 1739.5,377.716 1731.66,369.169 1723.68,360.759 1715.56,352.49 1707.29,344.364 1698.88,336.384 1690.33,328.552 1681.65,320.87 1672.83,313.341 1663.89,305.966 1654.82,298.749 1645.62,291.692 1636.3,284.796 1626.86,278.063 1617.31,271.497 1607.64,265.098 1597.86,258.869 1587.98,252.812 1577.99,246.927 1567.9,241.219 1557.71,235.687 1547.42,230.334 1537.05,225.161 1526.58,220.17 1516.04,215.362 1505.4,210.739 1494.69,206.303 1483.91,202.054 1473.05,197.994 1462.12,194.124 1451.12,190.445 1440.07,186.959 1428.95,183.666 1417.78,180.568 1406.56,177.665 1395.28,174.959 1383.96,172.45 1372.6,170.138 1361.2,168.025 1349.77,166.112 1338.3,164.398 1326.81,162.885 1315.29,161.573 1303.75,160.462 1292.19,159.552 1280.62,158.844 1269.04,158.339 1257.45,158.035 1245.86,157.934 1234.26,158.035 1222.68,158.339 1211.09,158.844 1199.52,159.552 1187.96,160.462 1176.42,161.573 1164.91,162.885 1153.41,164.398 1141.94,166.112 1130.51,168.025 1119.11,170.138 1107.75,172.45 1096.43,174.959 1085.16,177.665 1073.94,180.568 1062.76,183.666 1051.65,186.959 1040.59,190.445 1029.6,194.124 1018.67,197.994 1007.81,202.054 997.023,206.303 986.312,210.739 975.68,215.362 965.131,220.17 954.667,225.161 944.291,230.334 934.008,235.687 923.819,241.219 913.729,246.927 903.74,252.812 893.855,258.869 884.077,265.098 874.41,271.497 864.856,278.063 855.417,284.796 846.098,291.692 836.9,298.749 827.827,305.966 818.882,313.341 810.066,320.87 801.383,328.552 792.836,336.384 784.426,344.364 776.157,352.49 768.031,360.759 760.051,369.169 752.219,377.716 744.537,386.399 737.007,395.215 729.633,404.16 722.416,413.233 715.358,422.431 708.462,431.75 701.73,441.189 695.164,450.743 688.765,460.411 682.536,470.188 676.478,480.073 670.594,490.062 664.885,500.153 659.354,510.341 654,520.625 648.827,531 643.836,541.464 639.029,552.013 634.406,562.645 629.969,573.356 625.72,584.142 621.66,595.002 617.79,605.93 614.112,616.924 610.626,627.981 607.333,639.097 604.235,650.269 601.332,661.493 598.626,672.766 596.116,684.084 593.805,695.445 591.692,706.844 589.779,718.278 588.065,729.744 586.552,741.238 585.24,752.757 584.128,764.297 583.219,775.855 582.511,787.426 582.005,799.009 581.702,810.598 581.601,822.191 581.702,833.784 582.005,845.373 582.511,856.955 583.219,868.527 584.128,880.085 585.24,891.625 586.552,903.143 588.065,914.638 589.779,926.104 591.692,937.538 593.805,948.937 596.116,960.298 598.626,971.616 601.332,982.889 604.235,994.113 607.333,1005.28 610.626,1016.4 614.112,1027.46 617.79,1038.45 621.66,1049.38 625.72,1060.24 629.969,1071.03 634.406,1081.74 639.029,1092.37 643.836,1102.92 648.827,1113.38 654,1123.76 659.354,1134.04 664.885,1144.23 670.594,1154.32 676.478,1164.31 682.536,1174.19 688.765,1183.97 695.164,1193.64 701.73,1203.19 708.462,1212.63 715.358,1221.95 722.416,1231.15 729.633,1240.22 737.007,1249.17 744.537,1257.98 752.219,1266.67 760.051,1275.21 768.031,1283.62 776.157,1291.89 784.426,1300.02 792.836,1308 801.383,1315.83 810.066,1323.51 818.882,1331.04 827.827,1338.42 836.9,1345.63 846.098,1352.69 855.417,1359.59 864.856,1366.32 874.41,1372.88 884.077,1379.28 893.855,1385.51 903.74,1391.57 913.729,1397.45 923.819,1403.16 934.008,1408.69 944.291,1414.05 954.667,1419.22 965.131,1424.21 975.68,1429.02 986.312,1433.64 997.023,1438.08 1007.81,1442.33 1018.67,1446.39 1029.6,1450.26 1040.59,1453.94 1051.65,1457.42 1062.76,1460.72 1073.94,1463.81 1085.16,1466.72 1096.43,1469.42 1107.75,1471.93 1119.11,1474.24 1130.51,1476.36 1141.94,1478.27 1153.41,1479.98 1164.91,1481.5 1176.42,1482.81 1187.96,1483.92 1199.52,1484.83 1211.09,1485.54 1222.68,1486.04 1234.26,1486.35 1245.86,1486.45 1257.45,1486.35 1269.04,1486.04 1280.62,1485.54 1292.19,1484.83 1303.75,1483.92 1315.29,1482.81 1326.81,1481.5 1338.3,1479.98 1349.77,1478.27 1361.2,1476.36 1372.6,1474.24 1383.96,1471.93 1395.28,1469.42 1406.56,1466.72 1417.78,1463.81 1428.95,1460.72 1440.07,1457.42 1451.12,1453.94 1462.12,1450.26 1473.05,1446.39 1483.91,1442.33 1494.69,1438.08 1505.4,1433.64 1516.04,1429.02 1526.58,1424.21 1537.05,1419.22 1547.42,1414.05 1557.71,1408.69 1567.9,1403.16 1577.99,1397.45 1587.98,1391.57 1597.86,1385.51 1607.64,1379.28 1617.31,1372.88 1626.86,1366.32 1636.3,1359.59 1645.62,1352.69 1654.82,1345.63 1663.89,1338.42 1672.83,1331.04 1681.65,1323.51 1690.33,1315.83 1698.88,1308 1707.29,1300.02 1715.56,1291.89 1723.68,1283.62 1731.66,1275.21 1739.5,1266.67 1747.18,1257.98 1754.71,1249.17 1762.08,1240.22 1769.3,1231.15 1776.36,1221.95 1783.25,1212.63 1789.99,1203.19 1796.55,1193.64 1802.95,1183.97 1809.18,1174.19 1815.24,1164.31 1821.12,1154.32 1826.83,1144.23 1832.36,1134.04 1837.71,1123.76 1842.89,1113.38 1847.88,1102.92 1852.69,1092.37 1857.31,1081.74 1861.75,1071.03 1865.99,1060.24 1870.06,1049.38 1873.92,1038.45 1877.6,1027.46 1881.09,1016.4 1884.38,1005.28 1887.48,994.113 1890.38,982.889 1893.09,971.616 1895.6,960.298 1897.91,948.937 1900.02,937.538 1901.94,926.104 1903.65,914.638 1905.16,903.143 1906.48,891.625 1907.59,880.085 1908.5,868.527 1909.2,856.955 1909.71,845.373 1910.01,833.784 "></polyline>
<polyline clip-path="url(#clip313)" style="stroke:#ededed; stroke-linecap:round; stroke-linejoin:round; stroke-width:2; stroke-opacity:1; fill:none" points="1910.11,822.191 1910.01,810.598 1909.71,799.009 1909.2,787.426 1908.5,775.855 1907.59,764.297 1906.48,752.757 1905.16,741.238 1903.65,729.744 1901.94,718.278 1900.02,706.844 1897.91,695.445 1895.6,684.084 1893.09,672.766 1890.38,661.493 1887.48,650.269 1884.38,639.097 1881.09,627.981 1877.6,616.924 1873.92,605.93 1870.06,595.002 1865.99,584.142 1861.75,573.356 1857.31,562.645 1852.69,552.013 1847.88,541.464 1842.89,531 1837.71,520.625 1832.36,510.341 1826.83,500.153 1821.12,490.062 1815.24,480.073 1809.18,470.188 1802.95,460.411 1796.55,450.743 1789.99,441.189 1783.25,431.75 1776.36,422.431 1769.3,413.233 1762.08,404.16 1754.71,395.215 1747.18,386.399 1739.5,377.716 1731.66,369.169 1723.68,360.759 1715.56,352.49 1707.29,344.364 1698.88,336.384 1690.33,328.552 1681.65,320.87 1672.83,313.341 1663.89,305.966 1654.82,298.749 1645.62,291.692 1636.3,284.796 1626.86,278.063 1617.31,271.497 1607.64,265.098 1597.86,258.869 1587.98,252.812 1577.99,246.927 1567.9,241.219 1557.71,235.687 1547.42,230.334 1537.05,225.161 1526.58,220.17 1516.04,215.362 1505.4,210.739 1494.69,206.303 1483.91,202.054 1473.05,197.994 1462.12,194.124 1451.12,190.445 1440.07,186.959 1428.95,183.666 1417.78,180.568 1406.56,177.665 1395.28,174.959 1383.96,172.45 1372.6,170.138 1361.2,168.025 1349.77,166.112 1338.3,164.398 1326.81,162.885 1315.29,161.573 1303.75,160.462 1292.19,159.552 1280.62,158.844 1269.04,158.339 1257.45,158.035 1245.86,157.934 1234.26,158.035 1222.68,158.339 1211.09,158.844 1199.52,159.552 1187.96,160.462 1176.42,161.573 1164.91,162.885 1153.41,164.398 1141.94,166.112 1130.51,168.025 1119.11,170.138 1107.75,172.45 1096.43,174.959 1085.16,177.665 1073.94,180.568 1062.76,183.666 1051.65,186.959 1040.59,190.445 1029.6,194.124 1018.67,197.994 1007.81,202.054 997.023,206.303 986.312,210.739 975.68,215.362 965.131,220.17 954.667,225.161 944.291,230.334 934.008,235.687 923.819,241.219 913.729,246.927 903.74,252.812 893.855,258.869 884.077,265.098 874.41,271.497 864.856,278.063 855.417,284.796 846.098,291.692 836.9,298.749 827.827,305.966 818.882,313.341 810.066,320.87 801.383,328.552 792.836,336.384 784.426,344.364 776.157,352.49 768.031,360.759 760.051,369.169 752.219,377.716 744.537,386.399 737.007,395.215 729.633,404.16 722.416,413.233 715.358,422.431 708.462,431.75 701.73,441.189 695.164,450.743 688.765,460.411 682.536,470.188 676.478,480.073 670.594,490.062 664.885,500.153 659.354,510.341 654,520.625 648.827,531 643.836,541.464 639.029,552.013 634.406,562.645 629.969,573.356 625.72,584.142 621.66,595.002 617.79,605.93 614.112,616.924 610.626,627.981 607.333,639.097 604.235,650.269 601.332,661.493 598.626,672.766 596.116,684.084 593.805,695.445 591.692,706.844 589.779,718.278 588.065,729.744 586.552,741.238 585.24,752.757 584.128,764.297 583.219,775.855 582.511,787.426 582.005,799.009 581.702,810.598 581.601,822.191 581.702,833.784 582.005,845.373 582.511,856.955 583.219,868.527 584.128,880.085 585.24,891.625 586.552,903.143 588.065,914.638 589.779,926.104 591.692,937.538 593.805,948.937 596.116,960.298 598.626,971.616 601.332,982.889 604.235,994.113 607.333,1005.28 610.626,1016.4 614.112,1027.46 617.79,1038.45 621.66,1049.38 625.72,1060.24 629.969,1071.03 634.406,1081.74 639.029,1092.37 643.836,1102.92 648.827,1113.38 654,1123.76 659.354,1134.04 664.885,1144.23 670.594,1154.32 676.478,1164.31 682.536,1174.19 688.765,1183.97 695.164,1193.64 701.73,1203.19 708.462,1212.63 715.358,1221.95 722.416,1231.15 729.633,1240.22 737.007,1249.17 744.537,1257.98 752.219,1266.67 760.051,1275.21 768.031,1283.62 776.157,1291.89 784.426,1300.02 792.836,1308 801.383,1315.83 810.066,1323.51 818.882,1331.04 827.827,1338.42 836.9,1345.63 846.098,1352.69 855.417,1359.59 864.856,1366.32 874.41,1372.88 884.077,1379.28 893.855,1385.51 903.74,1391.57 913.729,1397.45 923.819,1403.16 934.008,1408.69 944.291,1414.05 954.667,1419.22 965.131,1424.21 975.68,1429.02 986.312,1433.64 997.023,1438.08 1007.81,1442.33 1018.67,1446.39 1029.6,1450.26 1040.59,1453.94 1051.65,1457.42 1062.76,1460.72 1073.94,1463.81 1085.16,1466.72 1096.43,1469.42 1107.75,1471.93 1119.11,1474.24 1130.51,1476.36 1141.94,1478.27 1153.41,1479.98 1164.91,1481.5 1176.42,1482.81 1187.96,1483.92 1199.52,1484.83 1211.09,1485.54 1222.68,1486.04 1234.26,1486.35 1245.86,1486.45 1257.45,1486.35 1269.04,1486.04 1280.62,1485.54 1292.19,1484.83 1303.75,1483.92 1315.29,1482.81 1326.81,1481.5 1338.3,1479.98 1349.77,1478.27 1361.2,1476.36 1372.6,1474.24 1383.96,1471.93 1395.28,1469.42 1406.56,1466.72 1417.78,1463.81 1428.95,1460.72 1440.07,1457.42 1451.12,1453.94 1462.12,1450.26 1473.05,1446.39 1483.91,1442.33 1494.69,1438.08 1505.4,1433.64 1516.04,1429.02 1526.58,1424.21 1537.05,1419.22 1547.42,1414.05 1557.71,1408.69 1567.9,1403.16 1577.99,1397.45 1587.98,1391.57 1597.86,1385.51 1607.64,1379.28 1617.31,1372.88 1626.86,1366.32 1636.3,1359.59 1645.62,1352.69 1654.82,1345.63 1663.89,1338.42 1672.83,1331.04 1681.65,1323.51 1690.33,1315.83 1698.88,1308 1707.29,1300.02 1715.56,1291.89 1723.68,1283.62 1731.66,1275.21 1739.5,1266.67 1747.18,1257.98 1754.71,1249.17 1762.08,1240.22 1769.3,1231.15 1776.36,1221.95 1783.25,1212.63 1789.99,1203.19 1796.55,1193.64 1802.95,1183.97 1809.18,1174.19 1815.24,1164.31 1821.12,1154.32 1826.83,1144.23 1832.36,1134.04 1837.71,1123.76 1842.89,1113.38 1847.88,1102.92 1852.69,1092.37 1857.31,1081.74 1861.75,1071.03 1865.99,1060.24 1870.06,1049.38 1873.92,1038.45 1877.6,1027.46 1881.09,1016.4 1884.38,1005.28 1887.48,994.113 1890.38,982.889 1893.09,971.616 1895.6,960.298 1897.91,948.937 1900.02,937.538 1901.94,926.104 1903.65,914.638 1905.16,903.143 1906.48,891.625 1907.59,880.085 1908.5,868.527 1909.2,856.955 1909.71,845.373 1910.01,833.784 "></polyline>
<path clip-path="url(#clip310)" d="M1966.87 814.437 Q1963.26 814.437 1961.43 818.002 Q1959.63 821.544 1959.63 828.673 Q1959.63 835.78 1961.43 839.344 Q1963.26 842.886 1966.87 842.886 Q1970.51 842.886 1972.31 839.344 Q1974.14 835.78 1974.14 828.673 Q1974.14 821.544 1972.31 818.002 Q1970.51 814.437 1966.87 814.437 M1966.87 810.733 Q1972.68 810.733 1975.74 815.34 Q1978.82 819.923 1978.82 828.673 Q1978.82 837.4 1975.74 842.006 Q1972.68 846.59 1966.87 846.59 Q1961.06 846.59 1957.98 842.006 Q1954.93 837.4 1954.93 828.673 Q1954.93 819.923 1957.98 815.34 Q1961.06 810.733 1966.87 810.733 Z" fill="#000000" fill-rule="nonzero" fill-opacity="1"></path><path clip-path="url(#clip310)" d="M1988.48 799.87 Q1985.7 799.87 1984.08 802.051 Q1982.47 804.214 1982.47 807.995 Q1982.47 811.775 1984.06 813.957 Q1985.68 816.12 1988.48 816.12 Q1991.25 816.12 1992.87 813.938 Q1994.48 811.756 1994.48 807.995 Q1994.48 804.252 1992.87 802.07 Q1991.25 799.87 1988.48 799.87 M1988.48 796.936 Q1993 796.936 1995.58 799.87 Q1998.15 802.804 1998.15 807.995 Q1998.15 813.167 1995.58 816.12 Q1993 819.054 1988.48 819.054 Q1983.95 819.054 1981.38 816.12 Q1978.82 813.167 1978.82 807.995 Q1978.82 802.804 1981.38 799.87 Q1983.95 796.936 1988.48 796.936 Z" fill="#000000" fill-rule="nonzero" fill-opacity="1"></path><path clip-path="url(#clip310)" d="M1727.12 1343.96 Q1730.48 1344.67 1732.35 1346.94 Q1734.25 1349.21 1734.25 1352.54 Q1734.25 1357.66 1730.73 1360.46 Q1727.21 1363.26 1720.73 1363.26 Q1718.56 1363.26 1716.24 1362.82 Q1713.95 1362.4 1711.5 1361.55 L1711.5 1357.03 Q1713.44 1358.17 1715.75 1358.75 Q1718.07 1359.33 1720.59 1359.33 Q1724.99 1359.33 1727.28 1357.59 Q1729.6 1355.85 1729.6 1352.54 Q1729.6 1349.49 1727.44 1347.77 Q1725.32 1346.04 1721.5 1346.04 L1717.47 1346.04 L1717.47 1342.2 L1721.68 1342.2 Q1725.13 1342.2 1726.96 1340.83 Q1728.79 1339.44 1728.79 1336.85 Q1728.79 1334.19 1726.89 1332.77 Q1725.01 1331.34 1721.5 1331.34 Q1719.57 1331.34 1717.38 1331.76 Q1715.18 1332.17 1712.54 1333.05 L1712.54 1328.89 Q1715.2 1328.14 1717.51 1327.77 Q1719.85 1327.4 1721.91 1327.4 Q1727.24 1327.4 1730.34 1329.83 Q1733.44 1332.24 1733.44 1336.36 Q1733.44 1339.23 1731.8 1341.22 Q1730.15 1343.19 1727.12 1343.96 Z" fill="#000000" fill-rule="nonzero" fill-opacity="1"></path><path clip-path="url(#clip310)" d="M1743.93 1358.65 L1751.56 1358.65 L1751.56 1332.29 L1743.25 1333.96 L1743.25 1329.7 L1751.52 1328.03 L1756.19 1328.03 L1756.19 1358.65 L1763.83 1358.65 L1763.83 1362.59 L1743.93 1362.59 L1743.93 1358.65 Z" fill="#000000" fill-rule="nonzero" fill-opacity="1"></path><path clip-path="url(#clip310)" d="M1773.32 1328.03 L1791.68 1328.03 L1791.68 1331.96 L1777.61 1331.96 L1777.61 1340.44 Q1778.62 1340.09 1779.64 1339.93 Q1780.66 1339.74 1781.68 1339.74 Q1787.47 1339.74 1790.85 1342.91 Q1794.23 1346.08 1794.23 1351.5 Q1794.23 1357.08 1790.75 1360.18 Q1787.28 1363.26 1780.96 1363.26 Q1778.79 1363.26 1776.52 1362.89 Q1774.27 1362.52 1771.87 1361.78 L1771.87 1357.08 Q1773.95 1358.21 1776.17 1358.77 Q1778.39 1359.33 1780.87 1359.33 Q1784.87 1359.33 1787.21 1357.22 Q1789.55 1355.11 1789.55 1351.5 Q1789.55 1347.89 1787.21 1345.78 Q1784.87 1343.68 1780.87 1343.68 Q1779 1343.68 1777.12 1344.09 Q1775.27 1344.51 1773.32 1345.39 L1773.32 1328.03 Z" fill="#000000" fill-rule="nonzero" fill-opacity="1"></path><path clip-path="url(#clip310)" d="M1803.89 1316.54 Q1801.11 1316.54 1799.49 1318.72 Q1797.88 1320.88 1797.88 1324.67 Q1797.88 1328.45 1799.47 1330.63 Q1801.09 1332.79 1803.89 1332.79 Q1806.66 1332.79 1808.28 1330.61 Q1809.89 1328.43 1809.89 1324.67 Q1809.89 1320.92 1808.28 1318.74 Q1806.66 1316.54 1803.89 1316.54 M1803.89 1313.61 Q1808.41 1313.61 1810.98 1316.54 Q1813.56 1319.47 1813.56 1324.67 Q1813.56 1329.84 1810.98 1332.79 Q1808.41 1335.72 1803.89 1335.72 Q1799.36 1335.72 1796.78 1332.79 Q1794.23 1329.84 1794.23 1324.67 Q1794.23 1319.47 1796.78 1316.54 Q1799.36 1313.61 1803.89 1313.61 Z" fill="#000000" fill-rule="nonzero" fill-opacity="1"></path><path clip-path="url(#clip310)" d="M1199.88 1572.67 L1216.2 1572.67 L1216.2 1576.6 L1194.26 1576.6 L1194.26 1572.67 Q1196.92 1569.91 1201.5 1565.28 Q1206.11 1560.63 1207.29 1559.29 Q1209.54 1556.76 1210.42 1555.03 Q1211.32 1553.27 1211.32 1551.58 Q1211.32 1548.82 1209.37 1547.09 Q1207.45 1545.35 1204.35 1545.35 Q1202.15 1545.35 1199.7 1546.12 Q1197.27 1546.88 1194.49 1548.43 L1194.49 1543.71 Q1197.31 1542.57 1199.77 1541.99 Q1202.22 1541.42 1204.26 1541.42 Q1209.63 1541.42 1212.82 1544.1 Q1216.02 1546.79 1216.02 1551.28 Q1216.02 1553.41 1215.21 1555.33 Q1214.42 1557.23 1212.31 1559.82 Q1211.73 1560.49 1208.63 1563.71 Q1205.53 1566.9 1199.88 1572.67 Z" fill="#000000" fill-rule="nonzero" fill-opacity="1"></path><path clip-path="url(#clip310)" d="M1224.84 1542.04 L1247.06 1542.04 L1247.06 1544.03 L1234.51 1576.6 L1229.63 1576.6 L1241.43 1545.98 L1224.84 1545.98 L1224.84 1542.04 Z" fill="#000000" fill-rule="nonzero" fill-opacity="1"></path><path clip-path="url(#clip310)" d="M1266.18 1545.12 Q1262.57 1545.12 1260.74 1548.68 Q1258.93 1552.23 1258.93 1559.36 Q1258.93 1566.46 1260.74 1570.03 Q1262.57 1573.57 1266.18 1573.57 Q1269.81 1573.57 1271.62 1570.03 Q1273.45 1566.46 1273.45 1559.36 Q1273.45 1552.23 1271.62 1548.68 Q1269.81 1545.12 1266.18 1545.12 M1266.18 1541.42 Q1271.99 1541.42 1275.04 1546.02 Q1278.12 1550.61 1278.12 1559.36 Q1278.12 1568.08 1275.04 1572.69 Q1271.99 1577.27 1266.18 1577.27 Q1260.37 1577.27 1257.29 1572.69 Q1254.23 1568.08 1254.23 1559.36 Q1254.23 1550.61 1257.29 1546.02 Q1260.37 1541.42 1266.18 1541.42 Z" fill="#000000" fill-rule="nonzero" fill-opacity="1"></path><path clip-path="url(#clip310)" d="M1287.79 1530.55 Q1285.01 1530.55 1283.39 1532.73 Q1281.77 1534.9 1281.77 1538.68 Q1281.77 1542.46 1283.37 1544.64 Q1284.99 1546.8 1287.79 1546.8 Q1290.56 1546.8 1292.17 1544.62 Q1293.79 1542.44 1293.79 1538.68 Q1293.79 1534.93 1292.17 1532.75 Q1290.56 1530.55 1287.79 1530.55 M1287.79 1527.62 Q1292.3 1527.62 1294.88 1530.55 Q1297.46 1533.49 1297.46 1538.68 Q1297.46 1543.85 1294.88 1546.8 Q1292.3 1549.74 1287.79 1549.74 Q1283.26 1549.74 1280.68 1546.8 Q1278.12 1543.85 1278.12 1538.68 Q1278.12 1533.49 1280.68 1530.55 Q1283.26 1527.62 1287.79 1527.62 Z" fill="#000000" fill-rule="nonzero" fill-opacity="1"></path><path clip-path="url(#clip310)" d="M683.71 1358.65 L700.029 1358.65 L700.029 1362.59 L678.085 1362.59 L678.085 1358.65 Q680.747 1355.9 685.33 1351.27 Q689.937 1346.62 691.117 1345.27 Q693.363 1342.75 694.242 1341.02 Q695.145 1339.26 695.145 1337.57 Q695.145 1334.81 693.201 1333.08 Q691.279 1331.34 688.177 1331.34 Q685.978 1331.34 683.525 1332.1 Q681.094 1332.87 678.316 1334.42 L678.316 1329.7 Q681.14 1328.56 683.594 1327.98 Q686.048 1327.4 688.085 1327.4 Q693.455 1327.4 696.65 1330.09 Q699.844 1332.77 699.844 1337.27 Q699.844 1339.39 699.034 1341.32 Q698.247 1343.21 696.14 1345.81 Q695.562 1346.48 692.46 1349.7 Q689.358 1352.89 683.71 1358.65 Z" fill="#000000" fill-rule="nonzero" fill-opacity="1"></path><path clip-path="url(#clip310)" d="M713.872 1358.65 L730.191 1358.65 L730.191 1362.59 L708.247 1362.59 L708.247 1358.65 Q710.909 1355.9 715.492 1351.27 Q720.099 1346.62 721.279 1345.27 Q723.524 1342.75 724.404 1341.02 Q725.307 1339.26 725.307 1337.57 Q725.307 1334.81 723.362 1333.08 Q721.441 1331.34 718.339 1331.34 Q716.14 1331.34 713.687 1332.1 Q711.256 1332.87 708.478 1334.42 L708.478 1329.7 Q711.302 1328.56 713.756 1327.98 Q716.21 1327.4 718.247 1327.4 Q723.617 1327.4 726.811 1330.09 Q730.006 1332.77 730.006 1337.27 Q730.006 1339.39 729.196 1341.32 Q728.409 1343.21 726.302 1345.81 Q725.723 1346.48 722.622 1349.7 Q719.52 1352.89 713.872 1358.65 Z" fill="#000000" fill-rule="nonzero" fill-opacity="1"></path><path clip-path="url(#clip310)" d="M740.052 1328.03 L758.408 1328.03 L758.408 1331.96 L744.334 1331.96 L744.334 1340.44 Q745.353 1340.09 746.372 1339.93 Q747.39 1339.74 748.409 1339.74 Q754.196 1339.74 757.575 1342.91 Q760.955 1346.08 760.955 1351.5 Q760.955 1357.08 757.483 1360.18 Q754.01 1363.26 747.691 1363.26 Q745.515 1363.26 743.247 1362.89 Q741.001 1362.52 738.594 1361.78 L738.594 1357.08 Q740.677 1358.21 742.899 1358.77 Q745.122 1359.33 747.598 1359.33 Q751.603 1359.33 753.941 1357.22 Q756.279 1355.11 756.279 1351.5 Q756.279 1347.89 753.941 1345.78 Q751.603 1343.68 747.598 1343.68 Q745.723 1343.68 743.848 1344.09 Q741.997 1344.51 740.052 1345.39 L740.052 1328.03 Z" fill="#000000" fill-rule="nonzero" fill-opacity="1"></path><path clip-path="url(#clip310)" d="M770.622 1316.54 Q767.838 1316.54 766.221 1318.72 Q764.603 1320.88 764.603 1324.67 Q764.603 1328.45 766.202 1330.63 Q767.82 1332.79 770.622 1332.79 Q773.387 1332.79 775.004 1330.61 Q776.622 1328.43 776.622 1324.67 Q776.622 1320.92 775.004 1318.74 Q773.387 1316.54 770.622 1316.54 M770.622 1313.61 Q775.136 1313.61 777.712 1316.54 Q780.289 1319.47 780.289 1324.67 Q780.289 1329.84 777.712 1332.79 Q775.136 1335.72 770.622 1335.72 Q766.089 1335.72 763.513 1332.79 Q760.955 1329.84 760.955 1324.67 Q760.955 1319.47 763.513 1316.54 Q766.089 1313.61 770.622 1313.61 Z" fill="#000000" fill-rule="nonzero" fill-opacity="1"></path><path clip-path="url(#clip310)" d="M465.115 841.983 L472.753 841.983 L472.753 815.618 L464.443 817.284 L464.443 813.025 L472.707 811.358 L477.383 811.358 L477.383 841.983 L485.022 841.983 L485.022 845.918 L465.115 845.918 L465.115 841.983 Z" fill="#000000" fill-rule="nonzero" fill-opacity="1"></path><path clip-path="url(#clip310)" d="M504.466 829.507 Q501.133 829.507 499.212 831.289 Q497.313 833.071 497.313 836.196 Q497.313 839.321 499.212 841.104 Q501.133 842.886 504.466 842.886 Q507.799 842.886 509.721 841.104 Q511.642 839.298 511.642 836.196 Q511.642 833.071 509.721 831.289 Q507.823 829.507 504.466 829.507 M499.79 827.516 Q496.781 826.775 495.091 824.715 Q493.425 822.655 493.425 819.692 Q493.425 815.548 496.364 813.141 Q499.327 810.733 504.466 810.733 Q509.628 810.733 512.568 813.141 Q515.508 815.548 515.508 819.692 Q515.508 822.655 513.818 824.715 Q512.151 826.775 509.165 827.516 Q512.545 828.303 514.42 830.595 Q516.318 832.886 516.318 836.196 Q516.318 841.219 513.239 843.905 Q510.184 846.59 504.466 846.59 Q498.749 846.59 495.67 843.905 Q492.614 841.219 492.614 836.196 Q492.614 832.886 494.512 830.595 Q496.411 828.303 499.79 827.516 M498.077 820.132 Q498.077 822.817 499.744 824.321 Q501.434 825.826 504.466 825.826 Q507.475 825.826 509.165 824.321 Q510.878 822.817 510.878 820.132 Q510.878 817.446 509.165 815.942 Q507.475 814.437 504.466 814.437 Q501.434 814.437 499.744 815.942 Q498.077 817.446 498.077 820.132 Z" fill="#000000" fill-rule="nonzero" fill-opacity="1"></path><path clip-path="url(#clip310)" d="M534.628 814.437 Q531.017 814.437 529.188 818.002 Q527.383 821.544 527.383 828.673 Q527.383 835.78 529.188 839.344 Q531.017 842.886 534.628 842.886 Q538.262 842.886 540.068 839.344 Q541.896 835.78 541.896 828.673 Q541.896 821.544 540.068 818.002 Q538.262 814.437 534.628 814.437 M534.628 810.733 Q540.438 810.733 543.494 815.34 Q546.572 819.923 546.572 828.673 Q546.572 837.4 543.494 842.006 Q540.438 846.59 534.628 846.59 Q528.818 846.59 525.739 842.006 Q522.684 837.4 522.684 828.673 Q522.684 819.923 525.739 815.34 Q528.818 810.733 534.628 810.733 Z" fill="#000000" fill-rule="nonzero" fill-opacity="1"></path><path clip-path="url(#clip310)" d="M556.24 799.87 Q553.456 799.87 551.839 802.051 Q550.221 804.214 550.221 807.995 Q550.221 811.775 551.82 813.957 Q553.437 816.12 556.24 816.12 Q559.004 816.12 560.622 813.938 Q562.239 811.756 562.239 807.995 Q562.239 804.252 560.622 802.07 Q559.004 799.87 556.24 799.87 M556.24 796.936 Q560.753 796.936 563.33 799.87 Q565.907 802.804 565.907 807.995 Q565.907 813.167 563.33 816.12 Q560.753 819.054 556.24 819.054 Q551.707 819.054 549.13 816.12 Q546.572 813.167 546.572 807.995 Q546.572 802.804 549.13 799.87 Q551.707 796.936 556.24 796.936 Z" fill="#000000" fill-rule="nonzero" fill-opacity="1"></path><path clip-path="url(#clip310)" d="M679.624 325.313 L687.263 325.313 L687.263 298.947 L678.953 300.614 L678.953 296.354 L687.217 294.688 L691.893 294.688 L691.893 325.313 L699.531 325.313 L699.531 329.248 L679.624 329.248 L679.624 325.313 Z" fill="#000000" fill-rule="nonzero" fill-opacity="1"></path><path clip-path="url(#clip310)" d="M723.142 310.614 Q726.499 311.331 728.374 313.6 Q730.272 315.868 730.272 319.202 Q730.272 324.317 726.754 327.118 Q723.235 329.919 716.754 329.919 Q714.578 329.919 712.263 329.479 Q709.971 329.063 707.518 328.206 L707.518 323.692 Q709.462 324.827 711.777 325.405 Q714.092 325.984 716.615 325.984 Q721.013 325.984 723.305 324.248 Q725.619 322.512 725.619 319.202 Q725.619 316.146 723.467 314.433 Q721.337 312.697 717.518 312.697 L713.49 312.697 L713.49 308.854 L717.703 308.854 Q721.152 308.854 722.98 307.489 Q724.809 306.1 724.809 303.507 Q724.809 300.845 722.911 299.433 Q721.036 297.998 717.518 297.998 Q715.596 297.998 713.397 298.415 Q711.198 298.831 708.559 299.711 L708.559 295.544 Q711.221 294.804 713.536 294.433 Q715.874 294.063 717.934 294.063 Q723.258 294.063 726.36 296.493 Q729.462 298.901 729.462 303.021 Q729.462 305.891 727.818 307.882 Q726.175 309.85 723.142 310.614 Z" fill="#000000" fill-rule="nonzero" fill-opacity="1"></path><path clip-path="url(#clip310)" d="M739.184 294.688 L757.54 294.688 L757.54 298.623 L743.466 298.623 L743.466 307.095 Q744.485 306.748 745.503 306.586 Q746.522 306.401 747.54 306.401 Q753.327 306.401 756.707 309.572 Q760.087 312.743 760.087 318.16 Q760.087 323.739 756.615 326.84 Q753.142 329.919 746.823 329.919 Q744.647 329.919 742.378 329.549 Q740.133 329.178 737.726 328.438 L737.726 323.739 Q739.809 324.873 742.031 325.428 Q744.253 325.984 746.73 325.984 Q750.735 325.984 753.073 323.877 Q755.411 321.771 755.411 318.16 Q755.411 314.549 753.073 312.442 Q750.735 310.336 746.73 310.336 Q744.855 310.336 742.98 310.753 Q741.128 311.169 739.184 312.049 L739.184 294.688 Z" fill="#000000" fill-rule="nonzero" fill-opacity="1"></path><path clip-path="url(#clip310)" d="M769.754 283.199 Q766.97 283.199 765.353 285.381 Q763.735 287.544 763.735 291.324 Q763.735 295.104 765.334 297.286 Q766.952 299.449 769.754 299.449 Q772.519 299.449 774.136 297.267 Q775.754 295.085 775.754 291.324 Q775.754 287.581 774.136 285.399 Q772.519 283.199 769.754 283.199 M769.754 280.265 Q774.268 280.265 776.844 283.199 Q779.421 286.133 779.421 291.324 Q779.421 296.496 776.844 299.449 Q774.268 302.383 769.754 302.383 Q765.221 302.383 762.645 299.449 Q760.087 296.496 760.087 291.324 Q760.087 286.133 762.645 283.199 Q765.221 280.265 769.754 280.265 Z" fill="#000000" fill-rule="nonzero" fill-opacity="1"></path><path clip-path="url(#clip310)" d="M1211.32 114.518 L1211.32 110.259 Q1213.08 111.092 1214.88 111.532 Q1216.69 111.972 1218.42 111.972 Q1223.05 111.972 1225.48 108.87 Q1227.94 105.745 1228.29 99.4026 Q1226.94 101.393 1224.88 102.458 Q1222.82 103.523 1220.32 103.523 Q1215.14 103.523 1212.1 100.398 Q1209.1 97.2498 1209.1 91.81 Q1209.1 86.486 1212.24 83.2684 Q1215.39 80.0508 1220.62 80.0508 Q1226.62 80.0508 1229.77 84.6573 Q1232.94 89.2406 1232.94 97.9905 Q1232.94 106.162 1229.05 111.046 Q1225.18 115.907 1218.63 115.907 Q1216.87 115.907 1215.07 115.56 Q1213.26 115.213 1211.32 114.518 M1220.62 99.8655 Q1223.77 99.8655 1225.6 97.7128 Q1227.45 95.56 1227.45 91.81 Q1227.45 88.0832 1225.6 85.9304 Q1223.77 83.7545 1220.62 83.7545 Q1217.48 83.7545 1215.62 85.9304 Q1213.79 88.0832 1213.79 91.81 Q1213.79 95.56 1215.62 97.7128 Q1217.48 99.8655 1220.62 99.8655 Z" fill="#000000" fill-rule="nonzero" fill-opacity="1"></path><path clip-path="url(#clip310)" d="M1251.34 83.7545 Q1247.73 83.7545 1245.9 87.3193 Q1244.1 90.861 1244.1 97.9905 Q1244.1 105.097 1245.9 108.662 Q1247.73 112.203 1251.34 112.203 Q1254.98 112.203 1256.78 108.662 Q1258.61 105.097 1258.61 97.9905 Q1258.61 90.861 1256.78 87.3193 Q1254.98 83.7545 1251.34 83.7545 M1251.34 80.0508 Q1257.15 80.0508 1260.21 84.6573 Q1263.29 89.2406 1263.29 97.9905 Q1263.29 106.717 1260.21 111.324 Q1257.15 115.907 1251.34 115.907 Q1245.53 115.907 1242.45 111.324 Q1239.4 106.717 1239.4 97.9905 Q1239.4 89.2406 1242.45 84.6573 Q1245.53 80.0508 1251.34 80.0508 Z" fill="#000000" fill-rule="nonzero" fill-opacity="1"></path><path clip-path="url(#clip310)" d="M1272.95 69.1869 Q1270.17 69.1869 1268.55 71.3686 Q1266.93 73.5315 1266.93 77.3119 Q1266.93 81.0922 1268.53 83.2739 Q1270.15 85.4368 1272.95 85.4368 Q1275.72 85.4368 1277.33 83.2551 Q1278.95 81.0734 1278.95 77.3119 Q1278.95 73.5691 1277.33 71.3874 Q1275.72 69.1869 1272.95 69.1869 M1272.95 66.2529 Q1277.47 66.2529 1280.04 69.1869 Q1282.62 72.1209 1282.62 77.3119 Q1282.62 82.484 1280.04 85.4368 Q1277.47 88.3708 1272.95 88.3708 Q1268.42 88.3708 1265.84 85.4368 Q1263.29 82.484 1263.29 77.3119 Q1263.29 72.1209 1265.84 69.1869 Q1268.42 66.2529 1272.95 66.2529 Z" fill="#000000" fill-rule="nonzero" fill-opacity="1"></path><path clip-path="url(#clip310)" d="M1741.53 298.762 L1729.72 317.211 L1741.53 317.211 L1741.53 298.762 M1740.3 294.688 L1746.18 294.688 L1746.18 317.211 L1751.11 317.211 L1751.11 321.1 L1746.18 321.1 L1746.18 329.248 L1741.53 329.248 L1741.53 321.1 L1725.93 321.1 L1725.93 316.586 L1740.3 294.688 Z" fill="#000000" fill-rule="nonzero" fill-opacity="1"></path><path clip-path="url(#clip310)" d="M1758.89 294.688 L1777.25 294.688 L1777.25 298.623 L1763.17 298.623 L1763.17 307.095 Q1764.19 306.748 1765.21 306.586 Q1766.23 306.401 1767.25 306.401 Q1773.03 306.401 1776.41 309.572 Q1779.79 312.743 1779.79 318.16 Q1779.79 323.739 1776.32 326.84 Q1772.85 329.919 1766.53 329.919 Q1764.35 329.919 1762.09 329.549 Q1759.84 329.178 1757.43 328.438 L1757.43 323.739 Q1759.52 324.873 1761.74 325.428 Q1763.96 325.984 1766.44 325.984 Q1770.44 325.984 1772.78 323.877 Q1775.12 321.771 1775.12 318.16 Q1775.12 314.549 1772.78 312.442 Q1770.44 310.336 1766.44 310.336 Q1764.56 310.336 1762.69 310.753 Q1760.84 311.169 1758.89 312.049 L1758.89 294.688 Z" fill="#000000" fill-rule="nonzero" fill-opacity="1"></path><path clip-path="url(#clip310)" d="M1789.46 283.199 Q1786.68 283.199 1785.06 285.381 Q1783.44 287.544 1783.44 291.324 Q1783.44 295.104 1785.04 297.286 Q1786.66 299.449 1789.46 299.449 Q1792.23 299.449 1793.84 297.267 Q1795.46 295.085 1795.46 291.324 Q1795.46 287.581 1793.84 285.399 Q1792.23 283.199 1789.46 283.199 M1789.46 280.265 Q1793.97 280.265 1796.55 283.199 Q1799.13 286.133 1799.13 291.324 Q1799.13 296.496 1796.55 299.449 Q1793.97 302.383 1789.46 302.383 Q1784.93 302.383 1782.35 299.449 Q1779.79 296.496 1779.79 291.324 Q1779.79 286.133 1782.35 283.199 Q1784.93 280.265 1789.46 280.265 Z" fill="#000000" fill-rule="nonzero" fill-opacity="1"></path><path clip-path="url(#clip310)" d="M1279.07 807.99 Q1275.46 807.99 1273.63 811.554 Q1271.83 815.096 1271.83 822.226 Q1271.83 829.332 1273.63 832.897 Q1275.46 836.439 1279.07 836.439 Q1282.7 836.439 1284.51 832.897 Q1286.34 829.332 1286.34 822.226 Q1286.34 815.096 1284.51 811.554 Q1282.7 807.99 1279.07 807.99 M1279.07 804.286 Q1284.88 804.286 1287.94 808.892 Q1291.01 813.476 1291.01 822.226 Q1291.01 830.952 1287.94 835.559 Q1284.88 840.142 1279.07 840.142 Q1273.26 840.142 1270.18 835.559 Q1267.13 830.952 1267.13 822.226 Q1267.13 813.476 1270.18 808.892 Q1273.26 804.286 1279.07 804.286 Z" fill="#000000" fill-rule="nonzero" fill-opacity="1"></path><path clip-path="url(#clip310)" d="M1269.35 583.492 L1287.7 583.492 L1287.7 587.427 L1273.63 587.427 L1273.63 595.899 Q1274.65 595.552 1275.67 595.39 Q1276.69 595.205 1277.7 595.205 Q1283.49 595.205 1286.87 598.376 Q1290.25 601.547 1290.25 606.964 Q1290.25 612.543 1286.78 615.645 Q1283.31 618.723 1276.99 618.723 Q1274.81 618.723 1272.54 618.353 Q1270.3 617.982 1267.89 617.242 L1267.89 612.543 Q1269.97 613.677 1272.2 614.232 Q1274.42 614.788 1276.89 614.788 Q1280.9 614.788 1283.24 612.682 Q1285.58 610.575 1285.58 606.964 Q1285.58 603.353 1283.24 601.246 Q1280.9 599.14 1276.89 599.14 Q1275.02 599.14 1273.14 599.557 Q1271.29 599.973 1269.35 600.853 L1269.35 583.492 Z" fill="#000000" fill-rule="nonzero" fill-opacity="1"></path><path clip-path="url(#clip310)" d="M1253.76 392.698 L1261.4 392.698 L1261.4 366.332 L1253.09 367.999 L1253.09 363.74 L1261.35 362.073 L1266.03 362.073 L1266.03 392.698 L1273.67 392.698 L1273.67 396.633 L1253.76 396.633 L1253.76 392.698 Z" fill="#000000" fill-rule="nonzero" fill-opacity="1"></path><path clip-path="url(#clip310)" d="M1293.11 365.152 Q1289.5 365.152 1287.67 368.716 Q1285.86 372.258 1285.86 379.388 Q1285.86 386.494 1287.67 390.059 Q1289.5 393.601 1293.11 393.601 Q1296.74 393.601 1298.55 390.059 Q1300.38 386.494 1300.38 379.388 Q1300.38 372.258 1298.55 368.716 Q1296.74 365.152 1293.11 365.152 M1293.11 361.448 Q1298.92 361.448 1301.98 366.054 Q1305.05 370.638 1305.05 379.388 Q1305.05 388.114 1301.98 392.721 Q1298.92 397.304 1293.11 397.304 Q1287.3 397.304 1284.22 392.721 Q1281.17 388.114 1281.17 379.388 Q1281.17 370.638 1284.22 366.054 Q1287.3 361.448 1293.11 361.448 Z" fill="#000000" fill-rule="nonzero" fill-opacity="1"></path><path clip-path="url(#clip310)" d="M1254.26 171.279 L1261.89 171.279 L1261.89 144.913 L1253.58 146.58 L1253.58 142.321 L1261.85 140.654 L1266.52 140.654 L1266.52 171.279 L1274.16 171.279 L1274.16 175.214 L1254.26 175.214 L1254.26 171.279 Z" fill="#000000" fill-rule="nonzero" fill-opacity="1"></path><path clip-path="url(#clip310)" d="M1283.65 140.654 L1302.01 140.654 L1302.01 144.589 L1287.94 144.589 L1287.94 153.061 Q1288.95 152.714 1289.97 152.552 Q1290.99 152.367 1292.01 152.367 Q1297.8 152.367 1301.18 155.538 Q1304.56 158.709 1304.56 164.126 Q1304.56 169.705 1301.08 172.807 Q1297.61 175.885 1291.29 175.885 Q1289.12 175.885 1286.85 175.515 Q1284.6 175.144 1282.2 174.404 L1282.2 169.705 Q1284.28 170.839 1286.5 171.394 Q1288.72 171.95 1291.2 171.95 Q1295.2 171.95 1297.54 169.844 Q1299.88 167.737 1299.88 164.126 Q1299.88 160.515 1297.54 158.408 Q1295.2 156.302 1291.2 156.302 Q1289.33 156.302 1287.45 156.719 Q1285.6 157.135 1283.65 158.015 L1283.65 140.654 Z" fill="#000000" fill-rule="nonzero" fill-opacity="1"></path><polyline clip-path="url(#clip313)" style="stroke:#009af9; stroke-linecap:round; stroke-linejoin:round; stroke-width:4; stroke-opacity:1; fill:none" points="1018.9,822.191 1018.37,824.466 1017.87,826.751 1017.38,829.047 1016.91,831.354 1016.47,833.67 1016.05,835.996 1015.65,838.332 1015.28,840.677 1014.93,843.031 1014.6,845.394 1014.29,847.767 1014,850.148 1013.74,852.537 1013.51,854.934 1013.29,857.34 1013.1,859.753 1012.94,862.174 1012.79,864.602 1012.67,867.037 1012.58,869.479 1012.51,871.927 1012.46,874.383 1012.44,876.844 1012.44,879.311 1012.47,881.784 1012.52,884.262 1012.6,886.746 1012.71,889.235 1012.83,891.728 1012.99,894.226 1013.16,896.729 1013.37,899.235 1013.6,901.745 1013.85,904.259 1014.14,906.776 1014.44,909.296 1014.78,911.819 1015.13,914.345 1015.52,916.872 1015.93,919.402 1016.37,921.934 1016.83,924.467 1017.32,927.001 1017.84,929.536 1018.39,932.073 1018.96,934.609 1019.55,937.146 1020.18,939.682 1020.83,942.219 1021.51,944.755 1022.21,947.289 1022.94,949.823 1023.7,952.355 1024.49,954.886 1025.3,957.415 1026.14,959.941 1027.01,962.465 1027.91,964.986 1028.83,967.504 1029.78,970.018 1030.76,972.529 1031.76,975.036 1032.79,977.539 1033.85,980.037 1034.94,982.53 1036.06,985.019 1037.2,987.502 1038.37,989.979 1039.57,992.45 1040.79,994.915 1042.04,997.374 1043.33,999.826 1044.63,1002.27 1045.97,1004.71 1047.33,1007.14 1048.72,1009.56 1050.14,1011.97 1051.59,1014.38 1053.06,1016.77 1054.56,1019.16 1056.09,1021.54 1057.64,1023.9 1059.23,1026.26 1060.84,1028.61 1062.47,1030.94 1064.14,1033.27 1065.83,1035.58 1067.55,1037.89 1069.29,1040.18 1071.07,1042.46 1072.87,1044.72 1074.69,1046.97 1076.55,1049.22 1078.43,1051.44 1080.33,1053.66 1082.27,1055.85 1084.23,1058.04 1086.22,1060.21 1088.23,1062.37 1090.27,1064.51 1092.33,1066.63 1094.43,1068.74 1096.54,1070.83 1098.69,1072.91 1100.86,1074.97 1103.05,1077.01 1105.27,1079.04 1107.52,1081.05 1109.79,1083.04 1112.09,1085.01 1114.41,1086.97 1116.76,1088.9 1119.13,1090.82 1121.53,1092.72 1123.95,1094.59 1126.4,1096.45 1128.87,1098.29 1131.36,1100.11 1133.88,1101.9 1136.42,1103.68 1138.99,1105.43 1141.58,1107.16 1144.19,1108.87 1146.83,1110.56 1149.49,1112.23 1152.17,1113.87 1154.87,1115.49 1157.6,1117.09 1160.35,1118.66 1163.12,1120.21 1165.92,1121.73 1168.73,1123.23 1171.57,1124.71 1174.43,1126.16 1177.31,1127.58 1180.21,1128.98 1183.13,1130.36 1186.08,1131.71 1189.04,1133.03 1192.02,1134.32 1195.03,1135.59 1198.05,1136.83 1201.09,1138.05 1204.15,1139.23 1207.23,1140.39 1210.33,1141.52 1213.45,1142.62 1216.59,1143.69 1219.74,1144.74 1222.91,1145.75 1226.1,1146.74 1229.31,1147.69 1232.53,1148.62 1235.77,1149.51 1239.03,1150.38 1242.31,1151.21 1245.6,1152.01 1248.9,1152.79 1252.22,1153.53 1255.56,1154.24 1258.91,1154.92 1262.27,1155.56 1265.65,1156.17 1269.05,1156.76 1272.46,1157.3 1275.88,1157.82 1279.31,1158.3 1282.76,1158.75 1286.22,1159.17 1289.69,1159.55 1293.17,1159.9 1296.67,1160.21 1300.18,1160.49 1303.69,1160.73 1307.22,1160.94 1310.76,1161.12 1314.31,1161.26 1317.87,1161.37 1321.44,1161.43 1325.01,1161.47 1328.6,1161.47 1332.19,1161.43 1335.79,1161.36 1339.4,1161.25 1343.02,1161.1 1346.64,1160.92 1350.27,1160.7 1353.91,1160.44 1357.55,1160.15 1361.2,1159.82 1364.86,1159.45 1368.51,1159.04 1372.18,1158.6 1375.84,1158.12 1379.51,1157.6 1383.19,1157.04 1386.86,1156.45 1390.54,1155.81 1394.23,1155.14 1397.91,1154.43 1401.59,1153.68 1405.28,1152.89 1408.97,1152.07 1412.66,1151.2 1416.34,1150.3 1420.03,1149.36 1423.71,1148.37 1427.4,1147.35 1431.08,1146.29 1434.76,1145.19 1438.44,1144.05 1442.12,1142.87 1445.79,1141.65 1449.46,1140.39 1453.12,1139.1 1456.78,1137.76 1460.44,1136.38 1464.09,1134.96 1467.73,1133.5 1471.37,1132.01 1475,1130.47 1478.63,1128.89 1482.25,1127.27 1485.86,1125.62 1489.46,1123.92 1493.05,1122.18 1496.63,1120.4 1500.21,1118.59 1503.77,1116.73 1507.33,1114.83 1510.87,1112.89 1514.4,1110.92 1517.92,1108.9 1521.43,1106.84 1524.93,1104.74 1528.41,1102.6 1531.88,1100.43 1535.34,1098.21 1538.78,1095.95 1542.21,1093.65 1545.62,1091.32 1549.02,1088.94 1552.4,1086.52 1555.76,1084.07 1559.11,1081.57 1562.44,1079.04 1565.76,1076.46 1569.05,1073.85 1572.33,1071.2 1575.59,1068.51 1578.83,1065.78 1582.04,1063.01 1585.24,1060.2 1588.42,1057.35 1591.58,1054.47 1594.71,1051.54 1597.83,1048.58 1600.92,1045.58 1603.98,1042.55 1607.03,1039.47 1610.05,1036.36 1613.05,1033.21 1616.02,1030.02 1618.96,1026.79 1621.89,1023.53 1624.78,1020.23 1627.65,1016.89 1630.49,1013.52 1633.31,1010.11 1636.1,1006.67 1638.86,1003.19 1641.59,999.67 1644.29,996.117 1646.96,992.529 1649.61,988.906 1652.22,985.248 1654.8,981.556 1657.36,977.828 1659.88,974.067 1662.36,970.271 1664.82,966.442 1667.24,962.579 1669.63,958.683 1671.99,954.754 1674.31,950.792 1676.6,946.797 1678.86,942.77 1681.08,938.711 1683.26,934.621 1685.41,930.499 1687.52,926.345 1689.59,922.161 1691.63,917.947 1693.63,913.702 1695.59,909.427 1697.52,905.123 1699.4,900.789 1701.25,896.426 1703.06,892.035 1704.82,887.615 1706.55,883.167 1708.24,878.692 1709.88,874.189 1711.49,869.659 1713.05,865.102 1714.57,860.519 1716.05,855.911 1717.48,851.276 1718.87,846.617 1720.22,841.932 1721.53,837.224 1722.79,832.491 1724.01,827.734 1725.18,822.954 1726.3,818.152 1727.38,813.326 1728.42,808.479 1729.41,803.61 1730.35,798.72 1731.24,793.808 1732.09,788.877 1732.89,783.925 1733.65,778.954 1734.35,773.964 1735.01,768.955 1735.62,763.927 1736.18,758.882 1736.68,753.82 1737.15,748.74 1737.56,743.644 1737.92,738.532 1738.23,733.405 1738.48,728.262 1738.69,723.105 1738.85,717.934 1738.95,712.749 1739.01,707.551 1739.01,702.34 1738.96,697.117 1738.86,691.883 1738.7,686.637 1738.49,681.381 1738.23,676.114 1737.92,670.838 1737.55,665.552 1737.12,660.258 1736.65,654.956 1736.12,649.646 1735.53,644.329 1734.89,639.006 1734.2,633.677 1733.45,628.342 1732.64,623.002 1731.78,617.658 1730.86,612.31 1729.89,606.958 1728.86,601.604 1727.78,596.248 1726.64,590.89 1725.44,585.531 1724.19,580.172 1722.88,574.812 1721.51,569.453 1720.09,564.096 1718.61,558.74 1717.07,553.386 1715.48,548.036 1713.83,542.689 1712.12,537.346 1710.35,532.007 1708.53,526.674 1706.64,521.347 1704.7,516.026 1702.7,510.712 1700.65,505.406 1698.53,500.108 1696.36,494.819 1694.13,489.539 1691.84,484.269 1689.5,479.01 1687.09,473.763 1684.63,468.527 1682.11,463.303 1679.53,458.093 1676.89,452.896 1674.2,447.714 1671.44,442.546 1668.63,437.395 1665.76,432.259 1662.83,427.14 1659.84,422.038 1656.8,416.955 1653.7,411.89 1650.54,406.844 1647.32,401.819 1644.04,396.814 1640.71,391.83 1637.31,386.868 1633.86,381.928 1630.36,377.011 1626.79,372.118 1623.17,367.25 1619.49,362.406 1615.75,357.588 1611.96,352.796 1608.11,348.031 1604.2,343.293 1600.24,338.584 1596.21,333.903 1592.14,329.251 1588.01,324.63 1583.82,320.039 1579.57,315.48 1575.27,310.952 1570.92,306.457 1566.5,301.996 1562.04,297.568 1557.52,293.174 1552.94,288.816 1548.31,284.493 1543.63,280.206 1538.89,275.957 1534.1,271.745 1529.25,267.571 1524.36,263.436 1519.41,259.34 1514.4,255.285 1509.35,251.27 1504.24,247.297 1499.08,243.365 1493.87,239.476 1488.61,235.631 1483.29,231.829 1477.93,228.071 1472.52,224.358 1467.05,220.691 1461.54,217.07 1455.98,213.496 1450.37,209.97 1444.71,206.491 1439,203.061 1433.24,199.68 1427.44,196.349 1421.59,193.069 1415.7,189.839 1409.75,186.661 1403.77,183.535 1397.73,180.462 1391.65,177.442 1385.53,174.476 1379.37,171.564 1373.16,168.708 1366.9,165.907 1360.61,163.162 1354.27,160.474 1347.89,157.843 1341.47,155.27 1335.01,152.755 1328.5,150.299 1321.96,147.903 1315.38,145.567 1308.76,143.291 1302.1,141.076 1295.41,138.923 1288.67,136.832 1281.9,134.803 1275.1,132.838 1268.25,130.936 1261.38,129.098 1254.47,127.325 1247.52,125.617 1240.54,123.975 1233.53,122.399 1226.49,120.89 1219.41,119.447 1212.31,118.072 1205.17,116.765 1198.01,115.527 1190.81,114.357 1183.59,113.257 1176.34,112.227 1169.06,111.267 1161.75,110.378 1154.42,109.56 1147.06,108.813 1139.68,108.139 1132.28,107.537 1124.85,107.007 1117.4,106.551 1109.93,106.169 1102.43,105.861 1094.92,105.626 1087.38,105.467 1079.83,105.383 1072.25,105.375 1064.66,105.442 1057.06,105.585 1049.43,105.806 1041.79,106.103 1034.14,106.477 1026.47,106.929 1018.79,107.459 1011.1,108.067 1003.39,108.753 995.673,109.519 987.946,110.364 980.209,111.288 972.463,112.291 964.709,113.375 956.948,114.539 949.181,115.783 941.407,117.109 933.629,118.515 925.847,120.002 918.062,121.571 910.274,123.222 902.485,124.955 894.695,126.769 886.905,128.666 879.115,130.646 871.328,132.708 863.542,134.853 855.76,137.081 847.983,139.393 840.21,141.787 832.443,144.266 824.683,146.828 816.931,149.473 809.187,152.203 801.452,155.016 793.727,157.914 786.013,160.896 778.312,163.962 770.623,167.112 762.947,170.347 755.287,173.666 747.641,177.07 740.012,180.558 732.4,184.131 724.806,187.789 717.231,191.532 709.676,195.359 702.141,199.27 694.629,203.267 687.138,207.348 679.671,211.513 672.229,215.763 664.812,220.098 657.42,224.517 650.056,229.021 642.72,233.608 635.413,238.281 628.135,243.037 620.889,247.877 613.673,252.801 606.491,257.809 599.341,262.901 592.227,268.076 585.147,273.335 578.103,278.677 571.097,284.102 564.129,289.61 557.2,295.2 550.31,300.873 543.461,306.629 536.654,312.466 529.89,318.385 523.169,324.386 516.493,330.469 509.862,336.632 503.277,342.876 496.74,349.201 490.25,355.606 483.81,362.091 477.42,368.656 471.081,375.3 464.793,382.023 458.558,388.825 452.377,395.706 446.25,402.664 440.179,409.7 434.164,416.813 428.207,424.003 422.307,431.27 416.467,438.613 410.687,446.031 404.967,453.525 399.309,461.093 393.714,468.736 388.183,476.453 382.716,484.243 377.314,492.106 371.978,500.042 366.71,508.05 361.509,516.129 356.378,524.279 351.316,532.5 346.324,540.79 341.404,549.15 336.557,557.579 331.783,566.076 327.082,574.64 322.457,583.272 317.907,591.971 313.434,600.735 309.038,609.564 304.72,618.458 300.482,627.417 296.323,636.438 292.246,645.523 288.249,654.669 284.335,663.877 280.505,673.145 276.758,682.474 273.096,691.862 269.519,701.308 266.029,710.813 262.626,720.374 259.311,729.992 256.085,739.666 252.948,749.394 249.901,759.177 246.945,769.013 244.081,778.902 241.309,788.842 238.63,798.834 236.046,808.875 233.556,818.966 232.783,822.191 "></polyline>
<polyline clip-path="url(#clip313)" style="stroke:#e26f46; stroke-linecap:round; stroke-linejoin:round; stroke-width:4; stroke-opacity:1; fill:none" points="1245.86,822.191 1277.17,853.504 1308.48,884.818 1339.8,916.131 1371.11,947.444 1402.42,978.758 1433.74,1010.07 1465.05,1041.38 1496.36,1072.7 1527.68,1104.01 1558.99,1135.32 1590.3,1166.64 1621.62,1197.95 1652.93,1229.26 1684.24,1260.58 1715.56,1291.89 "></polyline>
<path clip-path="url(#clip310)" d="M1312.33 250.738 L2278.96 250.738 L2278.96 95.2176 L1312.33 95.2176  Z" fill="#ffffff" fill-rule="evenodd" fill-opacity="1"></path>
<polyline clip-path="url(#clip310)" style="stroke:#000000; stroke-linecap:round; stroke-linejoin:round; stroke-width:4; stroke-opacity:1; fill:none" points="1312.33,250.738 2278.96,250.738 2278.96,95.2176 1312.33,95.2176 1312.33,250.738 "></polyline>
<polyline clip-path="url(#clip310)" style="stroke:#009af9; stroke-linecap:round; stroke-linejoin:round; stroke-width:4; stroke-opacity:1; fill:none" points="1336.93,147.058 1484.52,147.058 "></polyline>
<path clip-path="url(#clip310)" d="M1509.11 129.778 L1538.35 129.778 L1538.35 133.713 L1526.08 133.713 L1526.08 164.338 L1521.38 164.338 L1521.38 133.713 L1509.11 133.713 L1509.11 129.778 Z" fill="#000000" fill-rule="nonzero" fill-opacity="1"></path><path clip-path="url(#clip310)" d="M1546.8 160.449 L1546.8 174.199 L1542.52 174.199 L1542.52 138.412 L1546.8 138.412 L1546.8 142.347 Q1548.14 140.032 1550.18 138.921 Q1552.24 137.787 1555.09 137.787 Q1559.81 137.787 1562.75 141.537 Q1565.71 145.287 1565.71 151.398 Q1565.71 157.509 1562.75 161.259 Q1559.81 165.009 1555.09 165.009 Q1552.24 165.009 1550.18 163.898 Q1548.14 162.763 1546.8 160.449 M1561.29 151.398 Q1561.29 146.699 1559.35 144.037 Q1557.42 141.352 1554.04 141.352 Q1550.67 141.352 1548.72 144.037 Q1546.8 146.699 1546.8 151.398 Q1546.8 156.097 1548.72 158.782 Q1550.67 161.444 1554.04 161.444 Q1557.42 161.444 1559.35 158.782 Q1561.29 156.097 1561.29 151.398 Z" fill="#000000" fill-rule="nonzero" fill-opacity="1"></path><path clip-path="url(#clip310)" d="M1584.55 151.305 Q1579.39 151.305 1577.4 152.486 Q1575.41 153.666 1575.41 156.514 Q1575.41 158.782 1576.89 160.125 Q1578.4 161.444 1580.97 161.444 Q1584.51 161.444 1586.64 158.944 Q1588.79 156.421 1588.79 152.254 L1588.79 151.305 L1584.55 151.305 M1593.05 149.546 L1593.05 164.338 L1588.79 164.338 L1588.79 160.402 Q1587.33 162.763 1585.16 163.898 Q1582.98 165.009 1579.83 165.009 Q1575.85 165.009 1573.49 162.787 Q1571.15 160.541 1571.15 156.791 Q1571.15 152.416 1574.07 150.194 Q1577.01 147.972 1582.82 147.972 L1588.79 147.972 L1588.79 147.555 Q1588.79 144.615 1586.85 143.018 Q1584.92 141.398 1581.43 141.398 Q1579.21 141.398 1577.1 141.93 Q1574.99 142.463 1573.05 143.527 L1573.05 139.592 Q1575.39 138.69 1577.59 138.25 Q1579.79 137.787 1581.87 137.787 Q1587.49 137.787 1590.27 140.703 Q1593.05 143.62 1593.05 149.546 Z" fill="#000000" fill-rule="nonzero" fill-opacity="1"></path><path clip-path="url(#clip310)" d="M1624 150.31 L1624 152.393 L1604.41 152.393 Q1604.69 156.791 1607.05 159.106 Q1609.44 161.398 1613.67 161.398 Q1616.13 161.398 1618.42 160.796 Q1620.73 160.194 1623 158.99 L1623 163.018 Q1620.71 163.99 1618.3 164.5 Q1615.9 165.009 1613.42 165.009 Q1607.22 165.009 1603.58 161.398 Q1599.97 157.787 1599.97 151.629 Q1599.97 145.264 1603.4 141.537 Q1606.85 137.787 1612.68 137.787 Q1617.91 137.787 1620.94 141.166 Q1624 144.523 1624 150.31 M1619.74 149.06 Q1619.69 145.565 1617.77 143.481 Q1615.87 141.398 1612.72 141.398 Q1609.16 141.398 1607.01 143.412 Q1604.88 145.426 1604.55 149.083 L1619.74 149.06 Z" fill="#000000" fill-rule="nonzero" fill-opacity="1"></path><path clip-path="url(#clip310)" d="M1630.83 138.412 L1635.06 138.412 L1635.06 150.588 L1647.08 138.412 L1652.31 138.412 L1642.4 148.435 L1653.58 164.338 L1648.81 164.338 L1639.62 151.259 L1635.06 155.889 L1635.06 164.338 L1630.83 164.338 L1630.83 138.412 Z" fill="#000000" fill-rule="nonzero" fill-opacity="1"></path><path clip-path="url(#clip310)" d="M1656.54 138.412 L1681.38 138.412 L1681.38 141.815 L1671.06 141.815 L1671.06 164.338 L1666.87 164.338 L1666.87 141.815 L1656.54 141.815 L1656.54 138.412 Z" fill="#000000" fill-rule="nonzero" fill-opacity="1"></path><path clip-path="url(#clip310)" d="M1697.28 141.398 Q1693.86 141.398 1691.87 144.083 Q1689.88 146.745 1689.88 151.398 Q1689.88 156.051 1691.84 158.736 Q1693.84 161.398 1697.28 161.398 Q1700.69 161.398 1702.68 158.713 Q1704.67 156.027 1704.67 151.398 Q1704.67 146.791 1702.68 144.106 Q1700.69 141.398 1697.28 141.398 M1697.28 137.787 Q1702.84 137.787 1706.01 141.398 Q1709.18 145.009 1709.18 151.398 Q1709.18 157.764 1706.01 161.398 Q1702.84 165.009 1697.28 165.009 Q1691.71 165.009 1688.53 161.398 Q1685.39 157.764 1685.39 151.398 Q1685.39 145.009 1688.53 141.398 Q1691.71 137.787 1697.28 137.787 Z" fill="#000000" fill-rule="nonzero" fill-opacity="1"></path><path clip-path="url(#clip310)" d="M1720.36 160.449 L1720.36 174.199 L1716.08 174.199 L1716.08 138.412 L1720.36 138.412 L1720.36 142.347 Q1721.71 140.032 1723.74 138.921 Q1725.8 137.787 1728.65 137.787 Q1733.37 137.787 1736.31 141.537 Q1739.28 145.287 1739.28 151.398 Q1739.28 157.509 1736.31 161.259 Q1733.37 165.009 1728.65 165.009 Q1725.8 165.009 1723.74 163.898 Q1721.71 162.763 1720.36 160.449 M1734.85 151.398 Q1734.85 146.699 1732.91 144.037 Q1730.99 141.352 1727.61 141.352 Q1724.23 141.352 1722.28 144.037 Q1720.36 146.699 1720.36 151.398 Q1720.36 156.097 1722.28 158.782 Q1724.23 161.444 1727.61 161.444 Q1730.99 161.444 1732.91 158.782 Q1734.85 156.097 1734.85 151.398 Z" fill="#000000" fill-rule="nonzero" fill-opacity="1"></path><path clip-path="url(#clip310)" d="M1768.37 138.412 L1768.37 164.338 L1764.14 164.338 L1764.14 143.527 L1751.64 164.338 L1746.17 164.338 L1746.17 138.412 L1750.41 138.412 L1750.41 159.176 L1762.89 138.412 L1768.37 138.412 Z" fill="#000000" fill-rule="nonzero" fill-opacity="1"></path><path clip-path="url(#clip310)" d="M1781.43 145.889 Q1781.43 147.81 1782.91 148.898 Q1784.39 149.986 1787.15 149.986 L1792.89 149.986 L1792.89 141.815 L1787.15 141.815 Q1784.39 141.815 1782.91 142.879 Q1781.43 143.944 1781.43 145.889 M1775.36 164.338 L1783.28 152.972 Q1780.59 152.37 1778.81 150.796 Q1777.03 149.199 1777.03 145.889 Q1777.03 142.139 1779.51 140.287 Q1782.01 138.412 1787.03 138.412 L1797.17 138.412 L1797.17 164.338 L1792.89 164.338 L1792.89 153.389 L1787.59 153.389 L1779.95 164.338 L1775.36 164.338 Z" fill="#000000" fill-rule="nonzero" fill-opacity="1"></path><path clip-path="url(#clip310)" d="M1826.52 160.935 L1838.88 160.935 L1838.88 141.815 L1829.92 141.815 L1829.92 145.055 Q1829.92 154.592 1827.19 159.685 L1826.52 160.935 M1820.34 160.935 Q1822.45 160.009 1823.37 158.041 Q1825.64 153.157 1825.64 143.319 L1825.64 138.412 L1843.16 138.412 L1843.16 160.935 L1846.57 160.935 L1846.57 170.888 L1843.16 170.888 L1843.16 164.338 L1822.15 164.338 L1822.15 170.888 L1818.74 170.888 L1818.74 160.935 L1820.34 160.935 Z" fill="#000000" fill-rule="nonzero" fill-opacity="1"></path><path clip-path="url(#clip310)" d="M1857.61 152.393 L1857.61 160.935 L1863.67 160.935 Q1866.59 160.935 1868.12 159.847 Q1869.64 158.736 1869.64 156.652 Q1869.64 154.569 1868.12 153.481 Q1866.59 152.393 1863.67 152.393 L1857.61 152.393 M1857.61 141.815 L1857.61 148.99 L1863.21 148.99 Q1865.62 148.99 1867.14 148.041 Q1868.67 147.069 1868.67 145.356 Q1868.67 143.643 1867.14 142.74 Q1865.62 141.815 1863.21 141.815 L1857.61 141.815 M1853.35 138.412 L1863.49 138.412 Q1868.05 138.412 1870.5 140.078 Q1872.95 141.745 1872.95 144.824 Q1872.95 147.208 1871.7 148.62 Q1870.45 150.009 1868 150.356 Q1870.94 150.912 1872.56 152.671 Q1874.18 154.43 1874.18 157.069 Q1874.18 160.541 1871.5 162.439 Q1868.83 164.338 1863.88 164.338 L1853.35 164.338 L1853.35 138.412 Z" fill="#000000" fill-rule="nonzero" fill-opacity="1"></path><path clip-path="url(#clip310)" d="M1903.49 138.412 L1903.49 164.338 L1899.25 164.338 L1899.25 143.527 L1886.75 164.338 L1881.29 164.338 L1881.29 138.412 L1885.52 138.412 L1885.52 159.176 L1898 138.412 L1903.49 138.412 Z" fill="#000000" fill-rule="nonzero" fill-opacity="1"></path><path clip-path="url(#clip310)" d="M1927.03 138.412 L1931.26 138.412 L1931.26 150.588 L1942.58 138.412 L1947.54 138.412 L1938.23 148.389 L1948.88 164.338 L1944.32 164.338 L1935.59 151.236 L1931.26 155.889 L1931.26 164.338 L1927.03 164.338 L1927.03 155.889 L1922.7 151.236 L1913.97 164.338 L1909.41 164.338 L1920.06 148.389 L1910.76 138.412 L1915.71 138.412 L1927.03 150.588 L1927.03 138.412 Z" fill="#000000" fill-rule="nonzero" fill-opacity="1"></path><path clip-path="url(#clip310)" d="M1977.14 150.31 L1977.14 152.393 L1957.56 152.393 Q1957.84 156.791 1960.2 159.106 Q1962.58 161.398 1966.82 161.398 Q1969.27 161.398 1971.57 160.796 Q1973.88 160.194 1976.15 158.99 L1976.15 163.018 Q1973.86 163.99 1971.45 164.5 Q1969.04 165.009 1966.57 165.009 Q1960.36 165.009 1956.73 161.398 Q1953.12 157.787 1953.12 151.629 Q1953.12 145.264 1956.54 141.537 Q1959.99 137.787 1965.82 137.787 Q1971.06 137.787 1974.09 141.166 Q1977.14 144.523 1977.14 150.31 M1972.88 149.06 Q1972.84 145.565 1970.92 143.481 Q1969.02 141.398 1965.87 141.398 Q1962.31 141.398 1960.15 143.412 Q1958.02 145.426 1957.7 149.083 L1972.88 149.06 Z" fill="#000000" fill-rule="nonzero" fill-opacity="1"></path><path clip-path="url(#clip310)" d="M1983.97 138.412 L1988.26 138.412 L1988.26 148.99 L2002.07 148.99 L2002.07 138.412 L2006.36 138.412 L2006.36 164.338 L2002.07 164.338 L2002.07 152.393 L1988.26 152.393 L1988.26 164.338 L1983.97 164.338 L1983.97 138.412 Z" fill="#000000" fill-rule="nonzero" fill-opacity="1"></path><path clip-path="url(#clip310)" d="M2037.17 138.412 L2037.17 164.338 L2032.93 164.338 L2032.93 143.527 L2020.43 164.338 L2014.97 164.338 L2014.97 138.412 L2019.2 138.412 L2019.2 159.176 L2031.68 138.412 L2037.17 138.412 Z" fill="#000000" fill-rule="nonzero" fill-opacity="1"></path><path clip-path="url(#clip310)" d="M2050.22 145.889 Q2050.22 147.81 2051.7 148.898 Q2053.19 149.986 2055.94 149.986 L2061.68 149.986 L2061.68 141.815 L2055.94 141.815 Q2053.19 141.815 2051.7 142.879 Q2050.22 143.944 2050.22 145.889 M2044.16 164.338 L2052.07 152.972 Q2049.39 152.37 2047.61 150.796 Q2045.82 149.199 2045.82 145.889 Q2045.82 142.139 2048.3 140.287 Q2050.8 138.412 2055.82 138.412 L2065.96 138.412 L2065.96 164.338 L2061.68 164.338 L2061.68 153.389 L2056.38 153.389 L2048.74 164.338 L2044.16 164.338 Z" fill="#000000" fill-rule="nonzero" fill-opacity="1"></path><path clip-path="url(#clip310)" d="M2089.37 138.412 L2093.6 138.412 L2093.6 150.588 L2105.62 138.412 L2110.85 138.412 L2100.94 148.435 L2112.12 164.338 L2107.35 164.338 L2098.16 151.259 L2093.6 155.889 L2093.6 164.338 L2089.37 164.338 L2089.37 138.412 Z" fill="#000000" fill-rule="nonzero" fill-opacity="1"></path><path clip-path="url(#clip310)" d="M2129.94 151.305 Q2124.78 151.305 2122.79 152.486 Q2120.8 153.666 2120.8 156.514 Q2120.8 158.782 2122.28 160.125 Q2123.79 161.444 2126.36 161.444 Q2129.9 161.444 2132.03 158.944 Q2134.18 156.421 2134.18 152.254 L2134.18 151.305 L2129.94 151.305 M2138.44 149.546 L2138.44 164.338 L2134.18 164.338 L2134.18 160.402 Q2132.72 162.763 2130.55 163.898 Q2128.37 165.009 2125.22 165.009 Q2121.24 165.009 2118.88 162.787 Q2116.54 160.541 2116.54 156.791 Q2116.54 152.416 2119.46 150.194 Q2122.4 147.972 2128.21 147.972 L2134.18 147.972 L2134.18 147.555 Q2134.18 144.615 2132.24 143.018 Q2130.31 141.398 2126.82 141.398 Q2124.6 141.398 2122.49 141.93 Q2120.38 142.463 2118.44 143.527 L2118.44 139.592 Q2120.78 138.69 2122.98 138.25 Q2125.18 137.787 2127.26 137.787 Q2132.88 137.787 2135.66 140.703 Q2138.44 143.62 2138.44 149.546 Z" fill="#000000" fill-rule="nonzero" fill-opacity="1"></path><path clip-path="url(#clip310)" d="M2144.13 138.412 L2168.97 138.412 L2168.97 141.815 L2158.65 141.815 L2158.65 164.338 L2154.46 164.338 L2154.46 141.815 L2144.13 141.815 L2144.13 138.412 Z" fill="#000000" fill-rule="nonzero" fill-opacity="1"></path><path clip-path="url(#clip310)" d="M2197 150.31 L2197 152.393 L2177.42 152.393 Q2177.7 156.791 2180.06 159.106 Q2182.44 161.398 2186.68 161.398 Q2189.13 161.398 2191.43 160.796 Q2193.74 160.194 2196.01 158.99 L2196.01 163.018 Q2193.72 163.99 2191.31 164.5 Q2188.9 165.009 2186.43 165.009 Q2180.22 165.009 2176.59 161.398 Q2172.98 157.787 2172.98 151.629 Q2172.98 145.264 2176.4 141.537 Q2179.85 137.787 2185.68 137.787 Q2190.92 137.787 2193.95 141.166 Q2197 144.523 2197 150.31 M2192.74 149.06 Q2192.7 145.565 2190.78 143.481 Q2188.88 141.398 2185.73 141.398 Q2182.17 141.398 2180.01 143.412 Q2177.88 145.426 2177.56 149.083 L2192.74 149.06 Z" fill="#000000" fill-rule="nonzero" fill-opacity="1"></path><path clip-path="url(#clip310)" d="M2208.12 160.449 L2208.12 174.199 L2203.83 174.199 L2203.83 138.412 L2208.12 138.412 L2208.12 142.347 Q2209.46 140.032 2211.49 138.921 Q2213.55 137.787 2216.4 137.787 Q2221.12 137.787 2224.06 141.537 Q2227.03 145.287 2227.03 151.398 Q2227.03 157.509 2224.06 161.259 Q2221.12 165.009 2216.4 165.009 Q2213.55 165.009 2211.49 163.898 Q2209.46 162.763 2208.12 160.449 M2222.61 151.398 Q2222.61 146.699 2220.66 144.037 Q2218.74 141.352 2215.36 141.352 Q2211.98 141.352 2210.04 144.037 Q2208.12 146.699 2208.12 151.398 Q2208.12 156.097 2210.04 158.782 Q2211.98 161.444 2215.36 161.444 Q2218.74 161.444 2220.66 158.782 Q2222.61 156.097 2222.61 151.398 Z" fill="#000000" fill-rule="nonzero" fill-opacity="1"></path><path clip-path="url(#clip310)" d="M2245.87 151.305 Q2240.71 151.305 2238.72 152.486 Q2236.73 153.666 2236.73 156.514 Q2236.73 158.782 2238.21 160.125 Q2239.71 161.444 2242.28 161.444 Q2245.82 161.444 2247.95 158.944 Q2250.11 156.421 2250.11 152.254 L2250.11 151.305 L2245.87 151.305 M2254.36 149.546 L2254.36 164.338 L2250.11 164.338 L2250.11 160.402 Q2248.65 162.763 2246.47 163.898 Q2244.3 165.009 2241.15 165.009 Q2237.17 165.009 2234.8 162.787 Q2232.47 160.541 2232.47 156.791 Q2232.47 152.416 2235.38 150.194 Q2238.32 147.972 2244.13 147.972 L2250.11 147.972 L2250.11 147.555 Q2250.11 144.615 2248.16 143.018 Q2246.24 141.398 2242.74 141.398 Q2240.52 141.398 2238.42 141.93 Q2236.31 142.463 2234.37 143.527 L2234.37 139.592 Q2236.7 138.69 2238.9 138.25 Q2241.1 137.787 2243.18 137.787 Q2248.81 137.787 2251.59 140.703 Q2254.36 143.62 2254.36 149.546 Z" fill="#000000" fill-rule="nonzero" fill-opacity="1"></path><polyline clip-path="url(#clip310)" style="stroke:#e26f46; stroke-linecap:round; stroke-linejoin:round; stroke-width:4; stroke-opacity:1; fill:none" points="1336.93,198.898 1484.52,198.898 "></polyline>
<path clip-path="url(#clip310)" d="M1509.11 181.618 L1538.35 181.618 L1538.35 185.553 L1526.08 185.553 L1526.08 216.178 L1521.38 216.178 L1521.38 185.553 L1509.11 185.553 L1509.11 181.618 Z" fill="#000000" fill-rule="nonzero" fill-opacity="1"></path><path clip-path="url(#clip310)" d="M1546.8 212.289 L1546.8 226.039 L1542.52 226.039 L1542.52 190.252 L1546.8 190.252 L1546.8 194.187 Q1548.14 191.872 1550.18 190.761 Q1552.24 189.627 1555.09 189.627 Q1559.81 189.627 1562.75 193.377 Q1565.71 197.127 1565.71 203.238 Q1565.71 209.349 1562.75 213.099 Q1559.81 216.849 1555.09 216.849 Q1552.24 216.849 1550.18 215.738 Q1548.14 214.603 1546.8 212.289 M1561.29 203.238 Q1561.29 198.539 1559.35 195.877 Q1557.42 193.192 1554.04 193.192 Q1550.67 193.192 1548.72 195.877 Q1546.8 198.539 1546.8 203.238 Q1546.8 207.937 1548.72 210.622 Q1550.67 213.284 1554.04 213.284 Q1557.42 213.284 1559.35 210.622 Q1561.29 207.937 1561.29 203.238 Z" fill="#000000" fill-rule="nonzero" fill-opacity="1"></path><path clip-path="url(#clip310)" d="M1584.55 203.145 Q1579.39 203.145 1577.4 204.326 Q1575.41 205.506 1575.41 208.354 Q1575.41 210.622 1576.89 211.965 Q1578.4 213.284 1580.97 213.284 Q1584.51 213.284 1586.64 210.784 Q1588.79 208.261 1588.79 204.094 L1588.79 203.145 L1584.55 203.145 M1593.05 201.386 L1593.05 216.178 L1588.79 216.178 L1588.79 212.242 Q1587.33 214.603 1585.16 215.738 Q1582.98 216.849 1579.83 216.849 Q1575.85 216.849 1573.49 214.627 Q1571.15 212.381 1571.15 208.631 Q1571.15 204.256 1574.07 202.034 Q1577.01 199.812 1582.82 199.812 L1588.79 199.812 L1588.79 199.395 Q1588.79 196.455 1586.85 194.858 Q1584.92 193.238 1581.43 193.238 Q1579.21 193.238 1577.1 193.77 Q1574.99 194.303 1573.05 195.367 L1573.05 191.432 Q1575.39 190.53 1577.59 190.09 Q1579.79 189.627 1581.87 189.627 Q1587.49 189.627 1590.27 192.543 Q1593.05 195.46 1593.05 201.386 Z" fill="#000000" fill-rule="nonzero" fill-opacity="1"></path><path clip-path="url(#clip310)" d="M1624 202.15 L1624 204.233 L1604.41 204.233 Q1604.69 208.631 1607.05 210.946 Q1609.44 213.238 1613.67 213.238 Q1616.13 213.238 1618.42 212.636 Q1620.73 212.034 1623 210.83 L1623 214.858 Q1620.71 215.83 1618.3 216.34 Q1615.9 216.849 1613.42 216.849 Q1607.22 216.849 1603.58 213.238 Q1599.97 209.627 1599.97 203.469 Q1599.97 197.104 1603.4 193.377 Q1606.85 189.627 1612.68 189.627 Q1617.91 189.627 1620.94 193.006 Q1624 196.363 1624 202.15 M1619.74 200.9 Q1619.69 197.405 1617.77 195.321 Q1615.87 193.238 1612.72 193.238 Q1609.16 193.238 1607.01 195.252 Q1604.88 197.266 1604.55 200.923 L1619.74 200.9 Z" fill="#000000" fill-rule="nonzero" fill-opacity="1"></path><path clip-path="url(#clip310)" d="M1630.83 190.252 L1635.06 190.252 L1635.06 202.428 L1647.08 190.252 L1652.31 190.252 L1642.4 200.275 L1653.58 216.178 L1648.81 216.178 L1639.62 203.099 L1635.06 207.729 L1635.06 216.178 L1630.83 216.178 L1630.83 190.252 Z" fill="#000000" fill-rule="nonzero" fill-opacity="1"></path><path clip-path="url(#clip310)" d="M1669.67 193.238 Q1666.24 193.238 1664.25 195.923 Q1662.26 198.585 1662.26 203.238 Q1662.26 207.891 1664.23 210.576 Q1666.22 213.238 1669.67 213.238 Q1673.07 213.238 1675.06 210.553 Q1677.05 207.867 1677.05 203.238 Q1677.05 198.631 1675.06 195.946 Q1673.07 193.238 1669.67 193.238 M1669.67 189.627 Q1675.22 189.627 1678.4 193.238 Q1681.57 196.849 1681.57 203.238 Q1681.57 209.604 1678.4 213.238 Q1675.22 216.849 1669.67 216.849 Q1664.09 216.849 1660.92 213.238 Q1657.77 209.604 1657.77 203.238 Q1657.77 196.849 1660.92 193.238 Q1664.09 189.627 1669.67 189.627 Z" fill="#000000" fill-rule="nonzero" fill-opacity="1"></path><path clip-path="url(#clip310)" d="M1692.75 212.289 L1692.75 226.039 L1688.47 226.039 L1688.47 190.252 L1692.75 190.252 L1692.75 194.187 Q1694.09 191.872 1696.13 190.761 Q1698.19 189.627 1701.03 189.627 Q1705.76 189.627 1708.7 193.377 Q1711.66 197.127 1711.66 203.238 Q1711.66 209.349 1708.7 213.099 Q1705.76 216.849 1701.03 216.849 Q1698.19 216.849 1696.13 215.738 Q1694.09 214.603 1692.75 212.289 M1707.24 203.238 Q1707.24 198.539 1705.29 195.877 Q1703.37 193.192 1699.99 193.192 Q1696.61 193.192 1694.67 195.877 Q1692.75 198.539 1692.75 203.238 Q1692.75 207.937 1694.67 210.622 Q1696.61 213.284 1699.99 213.284 Q1703.37 213.284 1705.29 210.622 Q1707.24 207.937 1707.24 203.238 Z" fill="#000000" fill-rule="nonzero" fill-opacity="1"></path><path clip-path="url(#clip310)" d="M1740.76 190.252 L1740.76 216.178 L1736.52 216.178 L1736.52 195.367 L1724.02 216.178 L1718.56 216.178 L1718.56 190.252 L1722.79 190.252 L1722.79 211.016 L1735.27 190.252 L1740.76 190.252 Z" fill="#000000" fill-rule="nonzero" fill-opacity="1"></path><path clip-path="url(#clip310)" d="M1753.81 197.729 Q1753.81 199.65 1755.29 200.738 Q1756.78 201.826 1759.53 201.826 L1765.27 201.826 L1765.27 193.655 L1759.53 193.655 Q1756.78 193.655 1755.29 194.719 Q1753.81 195.784 1753.81 197.729 M1747.75 216.178 L1755.66 204.812 Q1752.98 204.21 1751.2 202.636 Q1749.41 201.039 1749.41 197.729 Q1749.41 193.979 1751.89 192.127 Q1754.39 190.252 1759.41 190.252 L1769.55 190.252 L1769.55 216.178 L1765.27 216.178 L1765.27 205.229 L1759.97 205.229 L1752.33 216.178 L1747.75 216.178 Z" fill="#000000" fill-rule="nonzero" fill-opacity="1"></path><path clip-path="url(#clip310)" d="M1798.9 212.775 L1811.27 212.775 L1811.27 193.655 L1802.31 193.655 L1802.31 196.895 Q1802.31 206.432 1799.58 211.525 L1798.9 212.775 M1792.72 212.775 Q1794.83 211.849 1795.76 209.881 Q1798.02 204.997 1798.02 195.159 L1798.02 190.252 L1815.55 190.252 L1815.55 212.775 L1818.95 212.775 L1818.95 222.728 L1815.55 222.728 L1815.55 216.178 L1794.53 216.178 L1794.53 222.728 L1791.13 222.728 L1791.13 212.775 L1792.72 212.775 Z" fill="#000000" fill-rule="nonzero" fill-opacity="1"></path><path clip-path="url(#clip310)" d="M1829.99 204.233 L1829.99 212.775 L1836.06 212.775 Q1838.97 212.775 1840.5 211.687 Q1842.03 210.576 1842.03 208.492 Q1842.03 206.409 1840.5 205.321 Q1838.97 204.233 1836.06 204.233 L1829.99 204.233 M1829.99 193.655 L1829.99 200.83 L1835.59 200.83 Q1838 200.83 1839.53 199.881 Q1841.06 198.909 1841.06 197.196 Q1841.06 195.483 1839.53 194.58 Q1838 193.655 1835.59 193.655 L1829.99 193.655 M1825.73 190.252 L1835.87 190.252 Q1840.43 190.252 1842.89 191.918 Q1845.34 193.585 1845.34 196.664 Q1845.34 199.048 1844.09 200.46 Q1842.84 201.849 1840.39 202.196 Q1843.33 202.752 1844.95 204.511 Q1846.57 206.27 1846.57 208.909 Q1846.57 212.381 1843.88 214.279 Q1841.22 216.178 1836.27 216.178 L1825.73 216.178 L1825.73 190.252 Z" fill="#000000" fill-rule="nonzero" fill-opacity="1"></path><path clip-path="url(#clip310)" d="M1875.87 190.252 L1875.87 216.178 L1871.64 216.178 L1871.64 195.367 L1859.14 216.178 L1853.67 216.178 L1853.67 190.252 L1857.91 190.252 L1857.91 211.016 L1870.39 190.252 L1875.87 190.252 Z" fill="#000000" fill-rule="nonzero" fill-opacity="1"></path><path clip-path="url(#clip310)" d="M1899.41 190.252 L1903.65 190.252 L1903.65 202.428 L1914.97 190.252 L1919.92 190.252 L1910.62 200.229 L1921.26 216.178 L1916.7 216.178 L1907.98 203.076 L1903.65 207.729 L1903.65 216.178 L1899.41 216.178 L1899.41 207.729 L1895.08 203.076 L1886.36 216.178 L1881.8 216.178 L1892.45 200.229 L1883.14 190.252 L1888.09 190.252 L1899.41 202.428 L1899.41 190.252 Z" fill="#000000" fill-rule="nonzero" fill-opacity="1"></path><path clip-path="url(#clip310)" d="M1949.53 202.15 L1949.53 204.233 L1929.95 204.233 Q1930.22 208.631 1932.58 210.946 Q1934.97 213.238 1939.2 213.238 Q1941.66 213.238 1943.95 212.636 Q1946.26 212.034 1948.53 210.83 L1948.53 214.858 Q1946.24 215.83 1943.83 216.34 Q1941.43 216.849 1938.95 216.849 Q1932.75 216.849 1929.11 213.238 Q1925.5 209.627 1925.5 203.469 Q1925.5 197.104 1928.93 193.377 Q1932.38 189.627 1938.21 189.627 Q1943.44 189.627 1946.47 193.006 Q1949.53 196.363 1949.53 202.15 M1945.27 200.9 Q1945.22 197.405 1943.3 195.321 Q1941.4 193.238 1938.26 193.238 Q1934.69 193.238 1932.54 195.252 Q1930.41 197.266 1930.08 200.923 L1945.27 200.9 Z" fill="#000000" fill-rule="nonzero" fill-opacity="1"></path><path clip-path="url(#clip310)" d="M1956.36 190.252 L1960.64 190.252 L1960.64 200.83 L1974.46 200.83 L1974.46 190.252 L1978.74 190.252 L1978.74 216.178 L1974.46 216.178 L1974.46 204.233 L1960.64 204.233 L1960.64 216.178 L1956.36 216.178 L1956.36 190.252 Z" fill="#000000" fill-rule="nonzero" fill-opacity="1"></path><path clip-path="url(#clip310)" d="M2009.55 190.252 L2009.55 216.178 L2005.32 216.178 L2005.32 195.367 L1992.82 216.178 L1987.35 216.178 L1987.35 190.252 L1991.59 190.252 L1991.59 211.016 L2004.07 190.252 L2009.55 190.252 Z" fill="#000000" fill-rule="nonzero" fill-opacity="1"></path><path clip-path="url(#clip310)" d="M2022.61 197.729 Q2022.61 199.65 2024.09 200.738 Q2025.57 201.826 2028.32 201.826 L2034.07 201.826 L2034.07 193.655 L2028.32 193.655 Q2025.57 193.655 2024.09 194.719 Q2022.61 195.784 2022.61 197.729 M2016.54 216.178 L2024.46 204.812 Q2021.77 204.21 2019.99 202.636 Q2018.21 201.039 2018.21 197.729 Q2018.21 193.979 2020.69 192.127 Q2023.19 190.252 2028.21 190.252 L2038.35 190.252 L2038.35 216.178 L2034.07 216.178 L2034.07 205.229 L2028.76 205.229 L2021.13 216.178 L2016.54 216.178 Z" fill="#000000" fill-rule="nonzero" fill-opacity="1"></path><path clip-path="url(#clip310)" d="M2059.2 216.178 L2059.2 212.636 Q2063.42 211.988 2064.71 209.071 Q2066.29 204.974 2066.29 194.488 L2066.29 190.252 L2083.81 190.252 L2083.81 216.178 L2079.55 216.178 L2079.55 193.655 L2070.55 193.655 L2070.55 196.224 Q2070.55 206.224 2068.51 210.715 Q2066.33 215.506 2059.2 216.178 Z" fill="#000000" fill-rule="nonzero" fill-opacity="1"></path><path clip-path="url(#clip310)" d="M2102.26 193.238 Q2098.83 193.238 2096.84 195.923 Q2094.85 198.585 2094.85 203.238 Q2094.85 207.891 2096.82 210.576 Q2098.81 213.238 2102.26 213.238 Q2105.66 213.238 2107.65 210.553 Q2109.64 207.867 2109.64 203.238 Q2109.64 198.631 2107.65 195.946 Q2105.66 193.238 2102.26 193.238 M2102.26 189.627 Q2107.81 189.627 2110.99 193.238 Q2114.16 196.849 2114.16 203.238 Q2114.16 209.604 2110.99 213.238 Q2107.81 216.849 2102.26 216.849 Q2096.68 216.849 2093.51 213.238 Q2090.36 209.604 2090.36 203.238 Q2090.36 196.849 2093.51 193.238 Q2096.68 189.627 2102.26 189.627 Z" fill="#000000" fill-rule="nonzero" fill-opacity="1"></path><path clip-path="url(#clip310)" d="M2127 212.775 L2139.37 212.775 L2139.37 193.655 L2130.41 193.655 L2130.41 196.895 Q2130.41 206.432 2127.68 211.525 L2127 212.775 M2120.82 212.775 Q2122.93 211.849 2123.86 209.881 Q2126.12 204.997 2126.12 195.159 L2126.12 190.252 L2143.65 190.252 L2143.65 212.775 L2147.05 212.775 L2147.05 222.728 L2143.65 222.728 L2143.65 216.178 L2122.63 216.178 L2122.63 222.728 L2119.23 222.728 L2119.23 212.775 L2120.82 212.775 Z" fill="#000000" fill-rule="nonzero" fill-opacity="1"></path><path clip-path="url(#clip310)" d="M2153.83 190.252 L2158.07 190.252 L2158.07 202.428 L2170.08 190.252 L2175.31 190.252 L2165.41 200.275 L2176.59 216.178 L2171.82 216.178 L2162.63 203.099 L2158.07 207.729 L2158.07 216.178 L2153.83 216.178 L2153.83 190.252 Z" fill="#000000" fill-rule="nonzero" fill-opacity="1"></path><path clip-path="url(#clip310)" d="M2204.67 190.252 L2204.67 216.178 L2200.43 216.178 L2200.43 195.367 L2187.93 216.178 L2182.47 216.178 L2182.47 190.252 L2186.7 190.252 L2186.7 211.016 L2199.18 190.252 L2204.67 190.252 Z" fill="#000000" fill-rule="nonzero" fill-opacity="1"></path></svg>